{"glyphs":{"0":{"ha":806,"x_min":67,"x_max":757,"o":"m 757 609 q 724 335 757 451 q 636 142 692 219 q 506 27 580 65 q 349 -10 431 -10 q 235 15 287 -10 q 146 90 183 40 q 88 215 108 140 q 67 390 67 290 q 99 664 67 547 q 187 858 131 781 q 316 973 242 935 q 474 1011 390 1011 q 588 986 535 1011 q 677 911 640 961 q 736 785 715 860 q 757 609 757 710 m 609 617 q 597 744 609 692 q 564 828 585 796 q 517 875 544 860 q 459 890 490 890 q 369 864 413 890 q 291 777 325 838 q 235 620 256 717 q 214 381 214 523 q 226 255 214 306 q 258 171 238 203 q 305 125 278 139 q 363 110 332 110 q 452 136 408 110 q 532 221 497 162 q 588 377 567 281 q 609 617 609 474 z "},"1":{"ha":806,"x_min":136,"x_max":655,"o":"m 655 109 l 641 0 l 136 0 l 150 109 l 340 109 l 419 747 q 423 779 421 763 q 428 812 426 795 l 269 675 q 247 665 258 667 q 228 664 237 663 q 212 670 219 666 q 203 681 206 675 l 165 743 l 476 1001 l 594 1001 l 484 109 l 655 109 z "},"2":{"ha":806,"x_min":34,"x_max":736,"o":"m 626 136 q 661 123 649 136 q 671 87 674 109 l 660 0 l 34 0 l 40 49 q 50 80 42 63 q 73 110 58 97 l 396 424 q 478 509 442 469 q 538 588 514 549 q 575 667 563 626 q 588 753 588 707 q 553 854 588 820 q 461 888 518 888 q 404 877 431 888 q 355 850 377 867 q 317 807 333 832 q 290 753 300 783 q 260 717 277 726 q 214 713 243 707 l 140 726 q 191 849 158 796 q 270 939 225 903 q 369 993 315 974 q 485 1011 424 1011 q 588 994 541 1011 q 667 945 634 976 q 718 868 700 913 q 736 767 736 823 q 717 650 736 703 q 667 551 699 598 q 592 460 635 504 q 503 370 550 416 l 243 116 q 307 131 275 125 q 367 136 339 136 l 626 136 z "},"3":{"ha":806,"x_min":58,"x_max":733,"o":"m 142 726 q 194 849 160 796 q 273 939 228 903 q 372 993 317 974 q 488 1011 427 1011 q 590 994 544 1011 q 667 948 635 978 q 716 876 699 917 q 733 785 733 834 q 720 687 733 729 q 684 613 708 644 q 626 560 660 582 q 549 526 592 539 q 659 450 622 501 q 695 325 695 399 q 666 184 695 246 q 588 78 637 122 q 476 12 540 35 q 344 -11 413 -11 q 224 8 273 -11 q 141 61 174 26 q 88 143 108 95 q 58 251 68 192 l 124 278 q 171 283 150 288 q 200 258 192 278 q 218 211 208 237 q 245 164 228 185 q 289 127 263 142 q 356 112 315 112 q 439 130 403 112 q 501 177 476 148 q 539 245 526 207 q 552 324 552 283 q 543 378 552 353 q 510 421 533 403 q 448 450 488 440 q 350 460 409 460 l 363 564 q 466 578 423 565 q 536 616 509 591 q 577 676 564 640 q 590 757 590 712 q 556 855 590 822 q 465 888 522 888 q 407 877 434 888 q 358 850 380 867 q 319 807 335 832 q 292 753 302 783 q 262 717 279 726 q 216 713 245 707 l 142 726 z "},"4":{"ha":806,"x_min":33,"x_max":733,"o":"m 485 368 l 531 742 q 544 822 535 778 l 185 368 l 485 368 m 733 368 l 724 284 q 713 263 722 272 q 690 254 704 254 l 596 254 l 565 0 l 440 0 l 471 254 l 75 254 q 50 264 60 254 q 39 287 40 273 l 33 360 l 552 1000 l 688 1000 l 610 368 l 733 368 z "},"5":{"ha":806,"x_min":52,"x_max":737,"o":"m 737 1000 l 729 938 q 704 887 726 906 q 636 867 682 867 l 373 867 l 306 630 q 370 641 340 638 q 428 644 400 644 q 542 624 493 644 q 624 568 591 603 q 673 485 657 533 q 690 383 690 438 q 659 221 690 294 q 576 97 628 149 q 453 17 524 46 q 304 -11 383 -11 q 225 -2 262 -11 q 156 22 188 7 q 98 58 124 38 q 52 100 72 78 l 103 162 q 144 181 121 181 q 174 170 158 181 q 209 147 189 160 q 258 123 229 133 q 328 112 286 112 q 419 131 379 112 q 487 185 460 151 q 529 265 515 219 q 544 365 544 311 q 503 481 544 438 q 383 524 463 524 q 314 518 349 524 q 240 499 278 512 l 154 524 l 288 1000 l 737 1000 z "},"6":{"ha":741,"x_min":76,"x_max":717,"o":"m 363 108 q 446 126 408 108 q 512 174 484 143 q 556 247 540 205 q 572 339 572 289 q 561 409 572 378 q 530 463 551 441 q 481 497 510 485 q 417 508 452 508 q 336 490 373 508 q 271 441 299 472 q 228 368 244 410 q 213 277 213 326 q 223 209 213 240 q 251 156 233 178 q 298 121 270 133 q 363 108 326 108 m 382 631 q 361 606 372 618 q 342 583 351 594 q 407 609 372 599 q 479 618 441 618 q 571 601 528 618 q 647 551 615 584 q 698 471 679 519 q 717 362 717 424 q 690 216 717 283 q 613 97 662 148 q 497 18 564 47 q 351 -11 430 -11 q 236 10 287 -11 q 149 70 185 31 q 95 163 114 109 q 76 283 76 217 q 85 370 76 328 q 113 456 94 413 q 160 542 132 499 q 226 633 188 586 l 492 965 q 525 990 503 979 q 572 1000 547 1000 l 700 1000 l 382 631 z "},"7":{"ha":806,"x_min":115,"x_max":795,"o":"m 795 1000 l 788 936 q 776 891 784 908 q 760 860 767 873 l 301 50 q 269 15 289 29 q 218 0 249 0 l 115 0 l 578 797 q 605 835 592 818 q 633 867 618 852 l 179 867 q 157 877 166 867 q 150 901 149 888 l 162 1000 l 795 1000 z "},"8":{"ha":806,"x_min":65,"x_max":730,"o":"m 363 103 q 444 118 408 103 q 506 162 481 134 q 543 229 531 190 q 556 315 556 268 q 545 380 556 352 q 514 425 533 407 q 466 452 494 443 q 407 460 439 460 q 334 449 369 460 q 272 413 299 438 q 230 348 246 388 q 214 252 214 308 q 223 192 214 219 q 251 145 233 165 q 298 114 270 125 q 363 103 326 103 m 461 900 q 388 885 419 900 q 336 844 357 870 q 304 784 315 819 q 294 712 294 750 q 300 661 294 685 q 322 617 307 636 q 362 586 338 598 q 421 575 386 575 q 495 590 463 575 q 547 632 526 606 q 578 692 568 658 q 589 767 589 727 q 581 818 589 794 q 558 860 574 842 q 518 889 542 878 q 461 900 494 900 m 558 521 q 668 442 632 495 q 704 313 704 390 q 677 179 704 239 q 603 76 651 119 q 491 11 556 34 q 349 -11 426 -11 q 232 7 284 -11 q 142 58 179 25 q 85 138 105 91 q 65 242 65 184 q 116 421 65 349 q 272 523 167 492 q 183 598 213 549 q 154 713 154 647 q 178 831 154 776 q 246 925 203 885 q 347 988 289 965 q 474 1011 406 1011 q 580 993 533 1011 q 660 942 627 974 q 712 867 694 910 q 730 775 730 824 q 686 618 730 684 q 558 521 643 552 z "},"9":{"ha":806,"x_min":119,"x_max":738,"o":"m 265 669 q 302 556 265 597 q 406 516 338 516 q 488 533 451 516 q 549 579 524 550 q 588 647 574 608 q 601 730 601 686 q 591 797 601 767 q 562 847 581 826 q 516 880 543 868 q 457 891 490 891 q 380 875 415 891 q 319 829 344 858 q 280 759 294 800 q 265 669 265 718 m 457 394 q 483 426 471 410 q 507 456 496 441 q 430 418 472 431 q 343 406 388 406 q 258 422 298 406 q 186 469 217 438 q 138 547 156 501 q 119 652 119 592 q 147 792 119 726 q 221 906 174 858 q 333 983 268 955 q 473 1011 398 1011 q 585 990 535 1011 q 668 932 634 969 q 720 843 702 895 q 738 731 738 792 q 728 633 738 678 q 699 545 718 588 q 653 461 681 503 q 592 374 626 419 l 335 33 q 302 10 323 19 q 257 0 281 0 l 124 0 l 457 394 z "},"\u0000":{"ha":0,"x_min":0,"x_max":0,"o":""}," ":{"ha":314,"x_min":0,"x_max":0,"o":""},"A":{"ha":890,"x_min":-51,"x_max":837,"o":"m 597 374 l 517 748 q 509 797 514 769 q 499 858 503 825 q 475 797 487 825 q 453 747 463 769 l 283 374 l 597 374 m 837 0 l 716 0 q 684 10 695 0 q 667 37 672 20 l 620 261 l 231 261 l 128 37 q 106 11 121 22 q 72 0 91 0 l -51 0 l 436 1000 l 595 1000 l 837 0 z "},"Ą":{"ha":890,"x_min":-51,"x_max":862,"o":"m 597 374 l 517 748 q 509 797 514 769 q 499 858 503 825 q 475 797 487 825 q 453 747 463 769 l 283 374 l 597 374 m 862 -203 q 807 -228 840 -219 q 740 -238 775 -238 q 653 -214 683 -238 q 623 -149 623 -189 q 651 -68 623 -106 q 730 0 680 -31 l 716 0 q 684 10 695 0 q 667 37 672 20 l 620 261 l 231 261 l 128 37 q 106 11 121 22 q 72 0 91 0 l -51 0 l 436 1000 l 595 1000 l 837 0 l 821 0 q 792 -19 806 -8 q 766 -44 778 -31 q 747 -74 754 -58 q 740 -108 740 -90 q 751 -139 740 -127 q 782 -150 762 -150 q 803 -148 794 -150 q 817 -144 811 -146 q 826 -140 822 -142 q 833 -137 829 -137 q 846 -147 843 -137 l 862 -203 z "},"Æ":{"ha":1208,"x_min":-50,"x_max":1221,"o":"m 596 374 l 596 872 q 573 818 585 842 q 549 771 561 793 l 323 374 l 596 374 m 743 873 l 743 565 l 1082 565 l 1067 442 l 743 442 l 743 127 l 1114 127 l 1098 0 l 596 0 l 596 261 l 259 261 l 131 37 q 107 11 123 22 q 72 0 92 0 l -50 0 l 539 1000 l 1221 1000 l 1206 873 l 743 873 z "},"B":{"ha":845,"x_min":60,"x_max":798,"o":"m 414 124 q 503 138 465 124 q 567 177 542 151 q 604 238 592 202 q 616 317 616 273 q 577 413 616 377 q 453 448 538 448 l 272 448 l 232 124 l 414 124 m 324 877 l 285 558 l 431 558 q 587 607 534 558 q 640 747 640 656 q 600 846 640 815 q 478 877 560 877 l 324 877 m 492 1000 q 631 984 573 1000 q 726 939 689 968 q 781 867 763 909 q 798 774 798 826 q 786 691 798 731 q 749 618 774 651 q 687 558 724 584 q 598 515 649 531 q 727 444 685 494 q 770 319 770 395 q 745 192 770 250 q 672 91 719 133 q 556 24 624 48 q 401 0 488 0 l 60 0 l 183 1000 l 492 1000 z "},"C":{"ha":865,"x_min":62,"x_max":886,"o":"m 473 124 q 550 131 517 124 q 609 148 584 138 q 652 172 634 159 q 683 195 669 184 q 706 213 696 206 q 724 219 715 219 q 737 216 732 219 q 744 210 742 213 l 799 141 q 647 29 735 69 q 447 -11 560 -11 q 284 22 356 -11 q 163 112 213 54 q 88 249 114 169 q 62 424 62 329 q 103 661 62 553 q 215 847 144 769 q 383 968 287 925 q 590 1011 479 1011 q 688 1001 644 1011 q 768 974 732 992 q 833 931 803 956 q 886 876 862 906 l 833 810 q 818 797 826 803 q 797 792 810 792 q 779 798 788 792 q 759 814 770 804 q 733 834 748 823 q 697 854 718 844 q 648 869 676 863 q 582 876 620 876 q 440 845 506 876 q 325 757 374 814 q 249 619 277 700 q 222 437 222 538 q 240 306 222 364 q 292 207 259 247 q 372 145 326 167 q 473 124 418 124 z "},"Ç":{"ha":865,"x_min":62,"x_max":886,"o":"m 406 -9 q 260 33 324 -2 q 152 125 197 68 q 85 259 108 183 q 62 424 62 335 q 103 661 62 553 q 215 847 144 769 q 383 968 287 925 q 590 1011 479 1011 q 688 1001 644 1011 q 768 974 732 992 q 833 931 803 956 q 886 876 862 906 l 833 810 q 818 797 826 803 q 797 792 810 792 q 779 798 788 792 q 759 814 770 804 q 733 834 748 823 q 697 854 718 844 q 648 869 676 863 q 582 876 620 876 q 440 845 506 876 q 325 757 374 814 q 249 619 277 700 q 222 437 222 538 q 240 306 222 364 q 292 207 259 247 q 372 145 326 167 q 473 124 418 124 q 550 131 517 124 q 609 148 584 138 q 652 172 634 159 q 683 195 669 184 q 706 213 696 206 q 724 219 715 219 q 737 216 732 219 q 744 210 742 213 l 799 141 q 665 37 740 76 q 491 -10 589 -2 l 476 -47 q 552 -83 529 -60 q 574 -137 574 -106 q 562 -184 574 -163 q 528 -218 550 -204 q 476 -240 506 -233 q 410 -248 446 -248 q 361 -243 383 -248 q 318 -229 338 -238 l 338 -183 q 357 -168 343 -168 q 366 -170 361 -168 q 376 -175 370 -172 q 390 -179 382 -177 q 408 -181 397 -181 q 445 -170 433 -181 q 457 -142 457 -158 q 435 -112 457 -122 q 367 -97 413 -103 l 406 -9 z "},"D":{"ha":983,"x_min":60,"x_max":939,"o":"m 939 569 q 921 410 939 485 q 869 272 903 335 q 789 158 836 209 q 682 73 741 108 q 555 19 624 38 q 409 0 485 0 l 60 0 l 183 1000 l 533 1000 q 702 968 626 1000 q 830 879 777 936 q 910 742 882 822 q 939 569 939 663 m 778 565 q 761 693 778 635 q 709 790 743 750 q 627 852 676 831 q 517 874 578 874 l 326 874 l 233 126 l 424 126 q 569 157 503 126 q 681 243 634 187 q 753 381 727 300 q 778 565 778 463 z "},"Ð":{"ha":992,"x_min":8,"x_max":948,"o":"m 435 126 q 579 157 514 126 q 690 243 644 187 q 761 381 736 300 q 787 565 787 463 q 769 693 787 635 q 718 790 751 750 q 636 852 685 831 q 526 874 588 874 l 334 874 l 294 549 l 529 549 l 519 458 l 283 458 l 243 126 l 435 126 m 542 1000 q 711 968 635 1000 q 839 879 786 936 q 920 742 892 822 q 948 569 948 663 q 930 410 948 485 q 878 272 912 335 q 798 158 845 209 q 692 73 751 108 q 565 19 633 38 q 419 0 496 0 l 70 0 l 126 458 l 8 458 l 19 549 l 138 549 l 192 1000 l 542 1000 z "},"E":{"ha":746,"x_min":60,"x_max":760,"o":"m 325 873 l 288 565 l 622 565 l 606 443 l 272 443 l 233 127 l 653 127 l 638 0 l 60 0 l 183 1000 l 760 1000 l 744 873 l 325 873 z "},"Ę":{"ha":746,"x_min":60,"x_max":760,"o":"m 325 873 l 288 565 l 622 565 l 606 443 l 272 443 l 233 127 l 653 127 l 638 0 l 597 0 q 568 -19 582 -8 q 542 -44 553 -31 q 523 -74 530 -58 q 515 -108 515 -90 q 526 -139 515 -127 q 558 -150 538 -150 q 578 -148 570 -150 q 592 -144 587 -146 q 601 -140 598 -142 q 608 -137 605 -137 q 622 -147 619 -137 l 638 -203 q 583 -228 615 -219 q 516 -238 551 -238 q 429 -214 459 -238 q 399 -149 399 -189 q 427 -68 399 -106 q 506 0 456 -31 l 60 0 l 183 1000 l 760 1000 l 744 873 l 325 873 z "},"F":{"ha":737,"x_min":60,"x_max":760,"o":"m 325 873 l 285 546 l 641 546 l 624 419 l 269 419 l 217 0 l 60 0 l 183 1000 l 760 1000 l 744 873 l 325 873 z "},"G":{"ha":943,"x_min":62,"x_max":919,"o":"m 578 490 l 878 490 l 829 97 q 751 49 791 69 q 666 16 710 29 q 572 -5 622 2 q 465 -11 522 -11 q 300 22 374 -11 q 172 114 225 55 q 91 253 119 172 q 62 431 62 335 q 102 665 62 558 q 214 849 143 772 q 383 968 285 926 q 596 1011 481 1011 q 704 1001 656 1011 q 792 972 753 990 q 863 930 831 954 q 919 878 894 906 l 869 813 q 840 791 857 794 q 804 799 822 787 q 767 823 786 810 q 723 849 748 837 q 664 868 697 860 q 585 876 631 876 q 438 844 504 876 q 323 756 371 813 q 249 617 275 698 q 222 436 222 535 q 241 302 222 361 q 296 201 260 242 q 381 138 331 160 q 492 115 431 115 q 604 128 556 115 q 697 165 652 142 l 722 371 l 597 371 q 575 379 583 371 q 568 400 567 388 l 578 490 z "},"H":{"ha":992,"x_min":60,"x_max":951,"o":"m 951 1000 l 827 0 l 670 0 l 725 447 l 273 447 l 217 0 l 60 0 l 183 1000 l 341 1000 l 287 560 l 739 560 l 793 1000 l 951 1000 z "},"Ħ":{"ha":1006,"x_min":61,"x_max":1037,"o":"m 767 720 l 315 720 l 296 560 l 748 560 l 767 720 m 1026 720 l 925 720 l 836 0 l 679 0 l 734 447 l 282 447 l 226 0 l 69 0 l 158 720 l 61 720 l 72 813 l 169 813 l 192 1000 l 350 1000 l 327 813 l 779 813 l 802 1000 l 960 1000 l 937 813 l 1037 813 l 1026 720 z "},"I":{"ha":381,"x_min":60,"x_max":340,"o":"m 217 0 l 60 0 l 183 1000 l 340 1000 l 217 0 z "},"Į":{"ha":382,"x_min":-6,"x_max":340,"o":"m 192 0 q 164 -19 178 -8 q 138 -44 149 -31 q 118 -74 126 -58 q 111 -108 111 -90 q 122 -139 111 -127 q 153 -150 133 -150 q 174 -148 166 -150 q 188 -144 183 -146 q 197 -140 194 -142 q 204 -137 201 -137 q 217 -147 215 -137 l 233 -203 q 179 -228 211 -219 q 112 -238 147 -238 q 25 -214 55 -238 q -6 -149 -6 -189 q 23 -68 -6 -106 q 101 0 51 -31 l 60 0 l 183 1000 l 340 1000 l 217 0 l 192 0 z "},"J":{"ha":563,"x_min":-25,"x_max":530,"o":"m 449 340 q 411 192 438 257 q 342 81 385 126 q 242 13 300 36 q 113 -11 185 -11 q 42 -7 75 -11 q -25 8 9 -2 l -13 101 q -4 122 -12 113 q 19 131 3 131 q 56 125 35 131 q 113 120 78 120 q 177 132 147 120 q 230 169 206 143 q 269 236 253 194 q 292 336 285 277 l 373 1000 l 530 1000 l 449 340 z "},"K":{"ha":876,"x_min":60,"x_max":925,"o":"m 285 569 l 328 569 q 368 577 352 569 q 399 600 385 584 l 715 965 q 749 993 731 985 q 792 1000 767 1000 l 925 1000 l 550 575 q 492 526 522 540 q 525 506 511 519 q 550 471 539 493 l 826 0 l 690 0 q 648 8 660 0 q 628 32 636 17 l 395 417 q 371 442 385 435 q 326 450 356 450 l 271 450 l 216 0 l 60 0 l 183 1001 l 339 1001 l 285 569 z "},"L":{"ha":666,"x_min":60,"x_max":611,"o":"m 611 131 l 595 0 l 60 0 l 183 1000 l 340 1000 l 233 131 l 611 131 z "},"Ł":{"ha":690,"x_min":0,"x_max":635,"o":"m 635 131 l 619 0 l 84 0 l 131 377 l 0 313 l 13 420 q 35 451 15 442 l 147 508 l 207 1000 l 363 1000 l 312 584 l 556 710 l 542 605 q 519 571 539 580 l 296 453 l 256 131 l 635 131 z "},"Ľ":{"ha":666,"x_min":60,"x_max":633,"o":"m 610 1028 q 628 1022 624 1028 q 633 1009 633 1016 q 630 992 633 1002 q 619 963 628 983 q 594 910 610 943 q 551 823 578 876 q 529 801 542 806 q 498 796 517 796 l 447 796 l 515 1028 l 610 1028 m 611 131 l 595 0 l 60 0 l 183 1000 l 340 1000 l 233 131 l 611 131 z "},"M":{"ha":1210,"x_min":60,"x_max":1169,"o":"m 1169 1000 l 1046 0 l 909 0 l 994 690 q 1000 726 996 706 q 1008 767 1003 747 l 642 169 q 583 134 622 134 l 561 134 q 529 143 543 134 q 509 169 515 151 l 287 767 q 285 728 286 747 q 283 693 284 709 l 198 0 l 60 0 l 183 1000 l 300 1000 q 317 999 310 1000 q 330 995 324 998 q 340 988 335 992 q 351 974 345 983 l 574 377 q 592 310 585 344 q 608 344 600 328 q 626 377 617 361 l 995 974 q 1020 995 1010 990 q 1051 1000 1031 1000 l 1169 1000 z "},"N":{"ha":992,"x_min":60,"x_max":951,"o":"m 951 1000 l 827 0 l 748 0 q 717 7 729 0 q 695 28 706 13 l 288 748 q 285 718 286 732 q 283 691 284 703 l 198 0 l 60 0 l 183 1000 l 265 1000 q 295 996 285 1000 q 314 974 304 992 l 723 255 q 729 323 725 293 l 813 1000 l 951 1000 z "},"Ŋ":{"ha":992,"x_min":60,"x_max":950,"o":"m 842 126 l 832 39 l 831 39 l 828 15 q 803 -92 822 -44 q 753 -175 785 -140 q 677 -229 722 -210 q 572 -248 632 -248 q 513 -242 538 -248 q 459 -222 488 -236 l 483 -159 q 499 -136 490 -142 q 517 -131 508 -131 q 538 -135 527 -131 q 572 -140 549 -140 q 689 -1 672 -140 l 693 32 l 285 740 q 283 703 285 722 q 280 669 282 685 l 198 0 l 60 0 l 183 1000 l 264 1000 q 294 995 284 1000 q 314 973 303 990 l 726 260 q 727 300 726 281 q 731 336 728 319 l 813 1000 l 950 1000 l 849 173 l 842 126 z "},"O":{"ha":1041,"x_min":62,"x_max":999,"o":"m 999 569 q 981 410 999 485 q 929 270 963 334 q 847 154 895 206 q 740 66 799 102 q 613 9 681 29 q 467 -10 544 -10 q 298 23 374 -10 q 170 115 223 56 q 90 254 118 174 q 62 430 62 335 q 80 590 62 514 q 132 730 99 665 q 213 847 165 794 q 320 935 261 899 q 448 991 379 972 q 593 1011 517 1011 q 762 978 687 1011 q 890 885 837 944 q 970 745 942 826 q 999 569 999 664 m 838 565 q 819 695 838 637 q 767 794 801 753 q 684 858 733 835 q 574 880 635 880 q 431 848 496 880 q 320 758 366 817 q 248 618 274 700 q 222 435 222 535 q 240 305 222 363 q 292 206 258 247 q 374 142 326 165 q 485 120 423 120 q 629 152 564 120 q 740 241 694 183 q 812 382 787 299 q 838 565 838 464 z "},"Ø":{"ha":1041,"x_min":26,"x_max":1035,"o":"m 336 165 q 404 132 367 143 q 485 120 441 120 q 629 152 564 120 q 740 241 694 183 q 812 382 787 299 q 838 565 838 464 q 827 664 838 619 q 799 747 817 710 l 336 165 m 739 823 q 666 865 707 851 q 574 880 624 880 q 431 848 496 880 q 320 758 366 817 q 248 618 274 700 q 222 435 222 535 q 235 324 222 374 q 272 234 248 274 l 739 823 m 899 874 q 973 737 947 815 q 999 569 999 660 q 981 410 999 485 q 929 270 963 334 q 847 154 895 206 q 740 66 799 102 q 613 9 681 29 q 467 -10 544 -10 q 347 6 402 -10 q 246 51 292 22 l 179 -33 q 134 -67 159 -57 q 88 -76 110 -76 l 26 -76 l 174 111 q 91 251 120 170 q 62 430 62 333 q 80 590 62 514 q 132 730 99 665 q 213 847 165 794 q 320 935 261 899 q 448 991 379 972 q 593 1011 517 1011 q 723 992 664 1011 q 831 938 783 974 l 883 1005 q 900 1023 892 1015 q 915 1035 908 1031 q 932 1042 923 1040 q 954 1044 941 1044 l 1035 1044 l 899 874 z "},"Œ":{"ha":1397,"x_min":63,"x_max":1410,"o":"m 454 116 q 586 149 526 116 q 689 242 646 182 q 755 386 731 301 q 778 572 778 470 q 763 699 778 642 q 718 798 747 757 q 646 862 689 840 q 549 885 603 885 q 416 852 476 885 q 314 758 356 819 q 247 614 271 698 q 224 428 224 530 q 239 300 224 358 q 284 202 254 243 q 356 139 313 161 q 454 116 399 116 m 977 873 l 939 565 l 1271 565 l 1257 442 l 924 442 l 885 127 l 1303 127 l 1288 0 l 731 0 l 747 137 q 603 28 685 67 q 423 -10 522 -10 q 273 22 340 -10 q 160 113 206 55 q 88 250 113 170 q 63 423 63 329 q 80 584 63 508 q 127 726 97 660 q 202 844 158 792 q 299 934 245 897 q 415 991 353 971 q 547 1011 478 1011 q 718 966 646 1011 q 834 844 791 921 l 853 1000 l 1410 1000 l 1395 873 l 977 873 z "},"P":{"ha":794,"x_min":60,"x_max":791,"o":"m 410 488 q 508 505 466 488 q 578 552 550 522 q 619 624 606 582 q 633 716 633 666 q 590 833 633 790 q 458 877 547 877 l 324 877 l 276 488 l 410 488 m 473 1000 q 615 980 555 1000 q 714 925 675 960 q 772 839 753 889 q 791 730 791 790 q 766 583 791 650 q 690 467 740 516 q 566 391 640 419 q 395 364 492 364 l 260 364 l 216 0 l 60 0 l 183 1000 l 473 1000 z "},"Þ":{"ha":792,"x_min":60,"x_max":769,"o":"m 389 309 q 487 326 445 309 q 556 373 528 343 q 598 445 584 403 q 612 538 612 488 q 601 604 612 574 q 569 654 590 633 q 514 686 547 675 q 436 697 481 697 l 301 697 l 254 309 l 389 309 m 452 820 q 594 800 534 820 q 692 745 653 781 q 750 660 731 710 q 769 551 769 611 q 744 404 769 472 q 668 288 718 337 q 544 213 618 240 q 374 185 470 185 l 239 185 l 216 0 l 60 0 l 183 1000 l 339 1000 l 317 820 l 452 820 z "},"Q":{"ha":1041,"x_min":62,"x_max":999,"o":"m 222 435 q 240 305 222 363 q 292 206 258 247 q 374 142 326 165 q 485 120 423 120 q 629 152 564 120 q 740 241 694 183 q 812 382 787 299 q 838 565 838 464 q 819 695 838 637 q 767 794 801 753 q 684 858 733 835 q 574 880 635 880 q 431 848 496 880 q 320 758 366 817 q 248 618 274 700 q 222 435 222 535 m 614 10 q 467 -10 543 -10 q 298 23 374 -10 q 170 115 223 56 q 90 254 118 174 q 62 430 62 335 q 80 590 62 514 q 132 730 99 665 q 213 847 165 794 q 320 935 261 899 q 448 991 379 972 q 593 1011 517 1011 q 762 978 687 1011 q 890 885 837 944 q 970 745 942 826 q 999 569 999 664 q 981 413 999 487 q 932 276 964 340 q 854 161 900 213 q 752 73 808 110 l 953 -201 l 825 -201 q 775 -193 797 -201 q 738 -165 754 -185 l 614 10 z "},"R":{"ha":822,"x_min":60,"x_max":774,"o":"m 394 519 q 493 535 451 519 q 563 580 535 551 q 605 647 591 608 q 619 731 619 686 q 575 839 619 801 q 442 877 531 877 l 324 877 l 280 519 l 394 519 m 456 1000 q 600 982 540 1000 q 699 933 660 965 q 756 856 738 901 q 774 756 774 811 q 757 645 774 697 q 708 552 740 594 q 630 480 676 510 q 526 434 584 450 q 570 385 553 417 l 766 0 l 626 0 q 571 33 585 0 l 405 373 q 384 398 396 390 q 347 406 372 406 l 266 406 l 216 0 l 60 0 l 183 1000 l 456 1000 z "},"S":{"ha":711,"x_min":3,"x_max":695,"o":"m 649 831 q 632 814 640 819 q 612 808 624 808 q 585 819 599 808 q 551 844 571 831 q 502 870 531 858 q 433 881 474 881 q 360 869 392 881 q 306 835 328 856 q 273 785 284 814 q 262 723 262 756 q 278 666 262 689 q 322 627 294 644 q 383 597 349 610 q 453 570 417 584 q 523 539 489 556 q 584 495 557 521 q 627 432 611 469 q 644 343 644 395 q 619 206 644 271 q 548 93 594 142 q 435 17 501 45 q 286 -11 369 -11 q 201 -2 242 -11 q 124 25 160 8 q 57 66 88 42 q 3 120 26 90 l 58 195 q 75 209 65 203 q 97 215 85 215 q 128 200 112 215 q 167 167 144 185 q 224 134 190 149 q 306 119 257 119 q 384 132 349 119 q 443 169 419 145 q 480 227 467 193 q 492 303 492 262 q 476 363 492 340 q 433 403 460 387 q 372 432 406 420 q 303 457 338 444 q 233 487 267 470 q 173 530 199 504 q 130 595 146 556 q 113 689 113 633 q 136 810 113 752 q 202 913 159 868 q 308 984 246 957 q 447 1010 369 1010 q 523 1002 487 1010 q 591 980 559 994 q 649 944 623 965 q 695 898 675 923 l 649 831 z "},"Ş":{"ha":711,"x_min":3,"x_max":695,"o":"m 649 831 q 632 814 640 819 q 612 808 624 808 q 585 819 599 808 q 551 844 571 831 q 502 870 531 858 q 433 881 474 881 q 360 869 392 881 q 306 835 328 856 q 273 785 284 814 q 262 723 262 756 q 278 666 262 689 q 322 627 294 644 q 383 597 349 610 q 453 570 417 584 q 523 539 489 556 q 584 495 557 521 q 627 432 611 469 q 644 343 644 395 q 622 214 644 275 q 559 106 600 153 q 459 28 517 58 q 326 -9 400 -2 l 312 -47 q 387 -83 365 -60 q 410 -137 410 -106 q 398 -184 410 -163 q 364 -218 385 -204 q 311 -240 342 -233 q 245 -248 281 -248 q 196 -243 219 -248 q 153 -229 174 -238 l 173 -183 q 192 -168 178 -168 q 201 -170 197 -168 q 211 -175 206 -172 q 225 -179 217 -177 q 244 -181 233 -181 q 280 -170 268 -181 q 292 -142 292 -158 q 270 -112 292 -122 q 203 -97 248 -103 l 242 -8 q 105 34 167 -1 q 3 120 43 68 l 58 195 q 75 209 65 203 q 97 215 85 215 q 128 200 112 215 q 167 167 144 185 q 224 134 190 149 q 306 119 257 119 q 384 132 349 119 q 443 169 419 145 q 480 227 467 193 q 492 303 492 262 q 476 363 492 340 q 433 403 460 387 q 372 432 406 420 q 303 457 338 444 q 233 487 267 470 q 173 530 199 504 q 130 595 146 556 q 113 689 113 633 q 136 810 113 752 q 202 913 159 868 q 308 984 246 957 q 447 1010 369 1010 q 523 1002 487 1010 q 591 980 559 994 q 649 944 623 965 q 695 898 675 923 l 649 831 z "},"T":{"ha":766,"x_min":75,"x_max":816,"o":"m 799 869 l 516 869 l 409 0 l 253 0 l 360 869 l 75 869 l 90 1000 l 816 1000 l 799 869 z "},"Ŧ":{"ha":788,"x_min":86,"x_max":827,"o":"m 527 869 l 493 592 l 694 592 l 684 501 l 482 501 l 420 0 l 265 0 l 326 501 l 122 501 l 133 592 l 337 592 l 371 869 l 86 869 l 101 1000 l 827 1000 l 810 869 l 527 869 z "},"U":{"ha":956,"x_min":87,"x_max":926,"o":"m 441 126 q 536 145 493 126 q 613 201 580 165 q 667 286 646 237 q 695 396 688 336 l 769 1000 l 926 1000 l 852 396 q 806 234 841 308 q 715 105 770 159 q 585 19 659 50 q 424 -12 512 -12 q 271 19 337 -12 q 163 105 205 50 q 104 234 121 159 q 98 396 87 308 l 171 1000 l 327 1000 l 253 396 q 255 286 246 336 q 288 201 264 237 q 350 145 312 165 q 441 126 389 126 z "},"Ų":{"ha":956,"x_min":88,"x_max":926,"o":"m 926 1000 l 852 396 q 815 253 842 319 q 743 135 787 187 q 641 47 699 83 q 514 -3 583 12 l 515 -3 q 486 -22 500 -11 q 460 -47 472 -33 q 441 -76 448 -60 q 433 -110 433 -92 q 444 -141 433 -130 q 476 -153 456 -153 q 497 -151 488 -153 q 510 -147 505 -149 q 519 -142 516 -144 q 526 -140 523 -140 q 540 -150 537 -140 l 556 -206 q 501 -231 533 -222 q 434 -241 469 -241 q 347 -216 377 -241 q 317 -151 317 -192 q 341 -76 317 -112 q 410 -12 366 -41 q 263 23 326 -9 q 160 109 200 54 q 103 236 119 163 q 98 396 88 310 l 171 1000 l 327 1000 l 253 396 q 255 286 246 336 q 288 201 264 237 q 350 145 312 165 q 441 126 389 126 q 536 145 493 126 q 613 201 580 165 q 667 286 646 237 q 695 396 688 336 l 769 1000 l 926 1000 z "},"V":{"ha":889,"x_min":71,"x_max":958,"o":"m 958 1000 l 463 0 l 322 0 l 71 1000 l 197 1000 q 229 990 217 1000 q 244 963 241 979 l 394 300 q 406 243 401 274 q 416 178 412 212 q 439 243 427 212 q 465 300 451 274 l 776 963 q 797 989 781 977 q 833 1000 813 1000 l 958 1000 z "},"W":{"ha":1336,"x_min":82,"x_max":1392,"o":"m 1392 1000 l 983 0 l 841 0 l 717 727 q 714 754 715 740 q 710 785 712 769 q 700 754 705 769 q 689 727 694 740 l 387 0 l 246 0 l 82 1000 l 205 1000 q 238 990 225 1000 q 252 963 250 980 l 349 308 q 353 264 351 288 q 356 215 355 240 q 373 265 364 241 q 390 308 381 288 l 662 963 q 683 989 668 977 q 718 1000 698 1000 l 754 1000 q 786 990 774 1000 q 803 963 799 979 l 915 308 q 921 265 918 288 q 925 217 924 242 q 940 265 933 242 q 953 308 947 288 l 1211 963 q 1232 989 1216 978 q 1269 1000 1249 1000 l 1392 1000 z "},"X":{"ha":861,"x_min":-53,"x_max":899,"o":"m 554 541 l 811 0 l 671 0 q 646 9 655 0 q 632 28 637 18 l 445 446 q 431 423 440 435 l 153 28 q 130 6 142 13 q 103 0 117 0 l -53 0 l 338 534 l 108 1000 l 250 1000 q 273 995 266 1000 q 286 978 281 990 l 451 619 q 458 633 454 626 q 467 647 463 640 l 699 977 q 716 994 707 989 q 736 1000 724 1000 l 899 1000 l 554 541 z "},"Y":{"ha":827,"x_min":70,"x_max":899,"o":"m 488 394 l 439 0 l 283 0 l 332 394 l 70 1000 l 209 1000 q 241 990 229 1000 q 258 964 252 980 l 404 594 q 428 507 419 549 q 449 549 438 528 q 474 594 460 570 l 713 964 q 735 989 722 978 q 769 1000 749 1000 l 899 1000 l 488 394 z "},"Z":{"ha":776,"x_min":-22,"x_max":808,"o":"m 801 951 q 795 930 800 940 q 783 911 790 921 l 205 127 l 691 127 l 675 0 l -22 0 l -16 49 q -10 69 -15 60 q 1 88 -5 78 l 582 873 l 113 873 l 129 1000 l 808 1000 l 801 951 z "},"a":{"ha":717,"x_min":29,"x_max":667,"o":"m 510 608 q 487 610 499 610 q 464 611 476 611 q 352 583 404 611 q 261 508 299 556 q 200 399 222 461 q 178 268 178 337 q 203 151 178 189 q 275 113 228 113 q 336 134 306 113 q 393 190 366 154 q 442 274 419 226 q 482 380 465 323 l 510 608 m 463 165 q 411 93 439 125 q 353 38 384 60 q 289 2 323 15 q 218 -10 255 -10 q 142 6 177 -10 q 83 53 108 22 q 43 132 58 85 q 29 241 29 179 q 45 364 29 304 q 90 477 61 424 q 160 575 119 531 q 252 651 201 619 q 361 701 303 683 q 485 719 420 719 q 577 711 531 719 q 667 686 623 704 l 582 0 l 503 0 q 465 15 475 0 q 454 51 454 29 l 463 165 z "},"ą":{"ha":717,"x_min":30,"x_max":667,"o":"m 511 608 q 488 610 499 610 q 465 611 476 611 q 352 583 405 611 q 261 508 300 556 q 201 399 223 461 q 178 268 178 337 q 204 151 178 189 q 276 113 229 113 q 337 134 307 113 q 393 190 367 154 q 443 274 420 226 q 483 380 466 323 l 511 608 m 565 0 q 536 -19 550 -8 q 510 -44 522 -31 q 491 -74 498 -58 q 483 -108 483 -90 q 494 -139 483 -127 q 526 -150 506 -150 q 547 -148 538 -150 q 560 -144 555 -146 q 569 -140 566 -142 q 576 -137 573 -137 q 590 -147 587 -137 l 606 -203 q 551 -228 583 -219 q 484 -238 519 -238 q 397 -214 427 -238 q 367 -149 367 -189 q 397 -66 367 -105 q 481 4 427 -27 q 460 22 466 10 q 455 51 455 35 l 464 165 q 412 93 440 125 q 354 38 385 60 q 290 2 324 15 q 219 -10 256 -10 q 143 6 178 -10 q 83 53 108 22 q 44 132 58 85 q 30 241 30 179 q 46 364 30 304 q 91 477 62 424 q 161 575 120 531 q 253 651 202 619 q 362 701 303 683 q 485 719 421 719 q 578 711 532 719 q 667 686 624 704 l 583 0 l 565 0 z "},"æ":{"ha":1035,"x_min":8,"x_max":981,"o":"m 420 326 q 290 310 342 322 q 206 278 238 298 q 160 233 174 259 q 147 176 147 208 q 170 111 147 132 q 235 90 194 90 q 298 101 268 90 q 352 136 328 113 q 392 197 376 160 q 415 284 408 234 l 420 326 m 750 613 q 680 599 711 613 q 626 558 649 584 q 587 494 603 531 q 564 410 572 456 q 701 427 647 415 q 786 455 755 439 q 828 492 817 472 q 840 535 840 513 q 817 591 840 569 q 750 613 794 613 m 981 131 q 910 68 944 94 q 839 24 876 41 q 763 -2 803 6 q 677 -10 724 -10 q 551 26 607 -10 q 467 138 496 63 q 413 69 444 98 q 348 23 383 41 q 278 -3 314 6 q 208 -11 242 -11 q 59 32 110 -11 q 8 158 8 74 q 29 250 8 206 q 99 331 50 295 q 230 389 149 367 q 431 415 311 412 l 435 450 q 420 566 445 528 q 340 603 396 603 q 273 593 300 603 q 224 569 245 582 q 186 546 203 557 q 151 535 169 535 q 127 543 137 535 q 112 562 117 551 l 92 608 q 218 693 154 665 q 356 721 282 721 q 473 690 430 721 q 533 605 515 659 q 635 689 576 659 q 769 719 694 719 q 849 705 812 719 q 913 667 885 691 q 955 611 940 643 q 970 542 970 579 q 952 466 970 503 q 888 397 934 428 q 761 346 841 366 q 556 324 681 326 l 556 308 q 595 157 556 206 q 706 107 635 107 q 786 120 754 107 q 841 149 818 133 q 880 178 863 165 q 916 191 897 191 q 943 177 931 191 l 981 131 z "},"b":{"ha":742,"x_min":34,"x_max":692,"o":"m 198 162 q 257 118 223 131 q 324 105 290 105 q 386 119 357 105 q 440 157 415 133 q 484 214 465 181 q 516 285 503 247 q 537 363 530 322 q 544 443 544 403 q 517 561 544 522 q 441 600 490 600 q 378 580 410 600 q 317 524 347 560 q 263 440 288 489 q 219 335 238 392 l 198 162 m 246 551 q 301 620 272 589 q 362 674 330 651 q 428 708 394 696 q 499 719 463 719 q 579 703 543 719 q 640 654 615 687 q 678 572 665 621 q 692 458 692 523 q 680 341 692 399 q 645 232 667 283 q 591 135 623 180 q 522 59 560 91 q 439 8 483 26 q 347 -10 394 -10 q 248 13 292 -10 q 174 75 203 35 l 167 42 q 149 10 160 20 q 114 0 139 0 l 34 0 l 158 1028 l 304 1028 l 246 551 z "},"c":{"ha":631,"x_min":35,"x_max":607,"o":"m 573 126 q 505 61 538 87 q 439 19 472 35 q 370 -4 406 3 q 292 -10 335 -10 q 183 11 231 -10 q 102 70 135 32 q 52 163 69 109 q 35 283 35 217 q 47 395 35 340 q 83 498 60 450 q 139 587 106 547 q 213 657 172 628 q 301 702 253 686 q 403 719 349 719 q 522 694 474 719 q 607 620 570 669 l 560 563 q 547 553 554 558 q 532 549 540 549 q 512 556 522 549 q 488 573 502 564 q 453 591 474 583 q 400 599 433 599 q 317 575 356 599 q 248 509 278 551 q 201 409 219 467 q 184 282 184 351 q 220 153 184 200 q 324 107 257 107 q 395 119 367 107 q 443 147 424 132 q 478 174 463 161 q 508 186 492 186 q 535 172 523 186 l 573 126 l 573 126 z "},"ç":{"ha":631,"x_min":35,"x_max":607,"o":"m 560 563 q 547 553 554 558 q 532 549 540 549 q 512 556 522 549 q 488 573 502 564 q 453 591 474 583 q 400 599 433 599 q 317 575 356 599 q 248 509 278 551 q 201 409 219 467 q 184 282 184 351 q 220 153 184 200 q 324 107 257 107 q 395 119 367 107 q 443 147 424 132 q 478 174 463 161 q 508 186 492 186 q 535 172 523 186 l 573 126 q 512 66 541 91 q 453 26 483 42 q 393 1 424 10 q 326 -9 362 -7 l 312 -47 q 387 -83 365 -60 q 410 -137 410 -106 q 398 -184 410 -163 q 364 -218 385 -204 q 311 -240 342 -233 q 245 -248 281 -248 q 196 -243 219 -248 q 153 -229 174 -238 l 173 -183 q 192 -168 178 -168 q 201 -170 197 -168 q 211 -175 206 -172 q 225 -179 217 -177 q 244 -181 233 -181 q 280 -170 268 -181 q 292 -142 292 -158 q 270 -112 292 -122 q 203 -97 248 -103 l 242 -6 q 154 26 192 2 q 89 88 115 50 q 49 175 63 125 q 35 283 35 224 q 47 395 35 340 q 83 498 60 450 q 139 587 106 547 q 213 657 172 628 q 301 702 253 686 q 403 719 349 719 q 522 694 474 719 q 607 620 570 669 l 560 563 z "},"d":{"ha":742,"x_min":33,"x_max":732,"o":"m 526 549 q 468 591 501 579 q 401 603 434 603 q 310 573 351 603 q 241 495 269 543 q 196 386 212 447 q 181 267 181 326 q 208 149 181 188 q 283 109 235 109 q 346 129 314 109 q 407 185 378 149 q 461 269 436 220 q 505 374 487 317 l 526 549 m 732 1028 l 605 0 l 526 0 q 488 15 498 0 q 478 51 478 29 l 487 172 q 431 97 460 130 q 368 39 401 63 q 299 2 335 15 q 226 -10 264 -10 q 85 55 137 -10 q 33 251 33 121 q 45 368 33 310 q 80 478 58 426 q 134 574 102 530 q 203 650 165 618 q 286 701 242 683 q 378 719 330 719 q 469 701 428 719 q 539 648 510 682 l 586 1028 l 732 1028 z "},"ď":{"ha":742,"x_min":33,"x_max":919,"o":"m 897 1028 q 915 1022 910 1028 q 919 1009 919 1016 q 916 992 919 1002 q 906 963 914 983 q 881 910 897 943 q 838 823 865 876 q 816 801 828 806 q 784 796 803 796 l 747 796 l 815 1028 l 897 1028 m 526 549 q 468 591 501 579 q 401 603 434 603 q 310 573 351 603 q 241 495 269 543 q 196 386 212 447 q 181 267 181 326 q 208 149 181 188 q 283 109 235 109 q 346 129 314 109 q 407 185 378 149 q 461 269 436 220 q 505 374 487 317 l 526 549 m 732 1028 l 605 0 l 526 0 q 488 15 498 0 q 478 51 478 29 l 487 172 q 431 97 460 130 q 368 39 401 63 q 299 2 335 15 q 226 -10 264 -10 q 85 55 137 -10 q 33 251 33 121 q 45 368 33 310 q 80 478 58 426 q 134 574 102 530 q 203 650 165 618 q 286 701 242 683 q 378 719 330 719 q 469 701 428 719 q 539 648 510 682 l 586 1028 l 732 1028 z "},"đ":{"ha":742,"x_min":33,"x_max":803,"o":"m 525 533 q 467 574 500 562 q 401 586 434 586 q 310 559 351 586 q 241 486 269 531 q 196 384 212 441 q 181 267 181 326 q 208 149 181 188 q 283 109 235 109 q 346 129 314 109 q 407 185 378 149 q 461 269 436 220 q 505 374 487 317 l 525 533 m 792 790 l 703 790 l 605 0 l 526 0 q 488 15 498 0 q 478 51 478 29 l 487 172 q 431 97 460 130 q 368 39 401 63 q 299 2 335 15 q 226 -10 264 -10 q 85 55 137 -10 q 33 251 33 121 q 45 367 33 310 q 80 473 58 423 q 134 565 102 523 q 203 637 165 607 q 286 684 242 667 q 378 701 330 701 q 468 683 428 701 q 537 633 508 665 l 557 790 l 461 790 q 420 803 431 790 q 414 842 410 815 l 420 881 l 568 881 l 586 1028 l 732 1028 l 714 881 l 803 881 l 792 790 z "},"ð":{"ha":736,"x_min":33,"x_max":683,"o":"m 319 102 q 394 118 359 102 q 458 168 429 133 q 507 259 486 203 q 539 394 528 315 q 519 447 532 422 q 488 492 507 472 q 442 523 469 511 q 380 534 415 534 q 294 515 332 534 q 230 462 256 495 q 190 383 203 428 q 176 285 176 338 q 186 208 176 242 q 216 150 197 174 q 262 115 235 127 q 319 102 288 102 m 568 838 q 652 696 622 778 q 683 503 683 613 q 657 292 683 387 q 584 131 632 198 q 465 27 535 63 q 302 -10 394 -10 q 193 10 243 -10 q 108 68 144 31 q 52 158 72 105 q 33 278 33 212 q 57 420 33 353 q 126 537 82 487 q 231 616 170 587 q 365 645 292 645 q 483 616 431 645 q 567 531 534 588 q 541 676 565 615 q 467 783 517 738 l 329 690 l 302 738 q 299 759 296 749 q 310 776 301 770 l 395 834 q 277 881 344 861 q 248 904 253 888 q 253 941 244 919 l 276 988 q 397 954 340 976 q 504 895 455 931 l 628 977 l 652 929 q 657 908 658 919 q 642 888 656 896 l 568 838 z "},"e":{"ha":671,"x_min":35,"x_max":622,"o":"m 399 613 q 327 597 360 613 q 268 552 294 581 q 223 485 242 524 q 193 401 203 447 q 347 428 289 413 q 437 462 406 444 q 478 500 468 480 q 489 544 489 521 q 484 567 489 555 q 468 590 479 580 q 440 606 458 599 q 399 613 423 613 m 606 131 q 535 68 570 94 q 465 24 501 41 q 389 -2 428 6 q 303 -10 349 -10 q 192 10 241 -10 q 107 69 142 31 q 53 161 72 107 q 35 281 35 215 q 47 391 35 337 q 81 493 58 444 q 136 583 103 542 q 209 654 168 624 q 300 701 251 684 q 407 718 350 718 q 502 702 462 718 q 569 662 542 687 q 609 608 596 638 q 622 549 622 578 q 603 464 622 503 q 535 394 584 425 q 400 340 485 363 q 180 303 314 317 q 179 294 179 299 q 179 285 179 290 q 217 152 179 197 q 332 107 256 107 q 412 120 380 107 q 466 149 444 133 q 506 178 489 165 q 542 191 523 191 q 569 177 556 191 l 606 131 z "},"ę":{"ha":671,"x_min":35,"x_max":622,"o":"m 399 613 q 327 597 360 613 q 268 552 294 581 q 223 485 242 524 q 193 401 203 447 q 347 428 289 413 q 437 462 406 444 q 478 500 468 480 q 489 544 489 521 q 484 567 489 555 q 468 590 479 580 q 440 606 458 599 q 399 613 423 613 m 438 -203 q 384 -228 416 -219 q 317 -238 351 -238 q 230 -214 260 -238 q 199 -149 199 -189 q 223 -75 199 -110 q 290 -10 247 -40 q 185 13 232 -8 q 104 73 138 35 q 53 164 71 110 q 35 281 35 217 q 47 391 35 337 q 81 493 58 444 q 136 583 103 542 q 209 654 168 624 q 300 701 251 684 q 407 718 350 718 q 502 702 462 718 q 569 662 542 687 q 609 608 596 638 q 622 549 622 578 q 603 464 622 503 q 535 394 584 425 q 400 340 485 363 q 180 303 314 317 q 179 294 179 299 q 179 285 179 290 q 217 152 179 197 q 332 107 256 107 q 412 120 380 107 q 466 149 444 133 q 506 178 489 165 q 542 191 523 191 q 569 177 556 191 l 606 131 q 504 45 553 77 q 397 -1 454 13 q 368 -20 382 -9 q 342 -44 353 -31 q 323 -74 331 -58 q 316 -108 316 -90 q 327 -139 316 -127 q 358 -150 338 -150 q 379 -148 371 -150 q 393 -144 388 -146 q 402 -140 399 -142 q 409 -137 406 -137 q 422 -147 419 -137 l 438 -203 z "},"f":{"ha":453,"x_min":53,"x_max":524,"o":"m 293 592 l 225 26 l 191 -110 q 164 -156 181 -140 q 115 -172 147 -172 l 55 -172 l 147 590 l 85 600 q 62 612 71 603 q 56 638 53 621 l 63 699 l 160 699 l 168 758 q 199 867 176 819 q 259 948 223 915 q 342 999 295 981 q 443 1017 389 1017 q 524 1003 486 1017 l 510 925 q 503 914 508 917 q 491 908 499 910 q 473 907 483 907 q 453 907 463 907 q 400 899 424 907 q 357 872 376 890 q 326 825 338 854 q 308 753 313 796 l 301 699 l 469 699 l 455 592 l 293 592 z "},"ﬀ":{"ha":869,"x_min":53,"x_max":933,"o":"m 710 699 l 887 699 l 874 594 l 703 594 l 634 26 l 600 -110 q 573 -156 590 -140 q 524 -172 556 -172 l 464 -172 l 556 594 l 294 594 l 226 26 l 192 -110 q 165 -156 182 -140 q 115 -172 147 -172 l 56 -172 l 149 594 l 88 603 q 63 615 72 606 q 56 640 53 624 l 63 699 l 162 699 l 168 747 q 199 856 176 808 q 258 937 222 903 q 339 988 293 970 q 438 1005 385 1005 q 519 992 481 1005 l 505 913 q 486 897 501 899 q 448 895 470 895 q 396 889 419 895 q 355 866 373 882 q 326 822 338 849 q 309 751 314 794 l 302 699 l 569 699 l 577 767 q 608 876 585 828 q 668 958 632 924 q 751 1008 704 991 q 852 1026 798 1026 q 933 1013 894 1026 l 919 934 q 899 918 915 919 q 862 916 883 916 q 809 908 833 916 q 767 882 785 900 q 736 834 749 863 q 719 763 724 805 l 710 699 z "},"ﬁ":{"ha":762,"x_min":54,"x_max":703,"o":"m 301 699 l 703 699 l 618 0 l 472 0 l 545 591 l 293 591 l 224 26 l 191 -111 q 164 -157 181 -141 q 114 -173 146 -173 l 55 -173 l 149 590 l 88 599 q 63 611 72 603 q 56 635 54 619 l 62 699 l 162 699 l 166 728 q 200 848 174 794 q 270 942 226 903 q 376 1004 314 982 q 519 1026 438 1026 q 545 1025 531 1026 q 574 1023 560 1024 q 600 1018 588 1021 q 622 1013 613 1016 l 608 938 q 588 921 604 922 q 547 920 572 920 q 443 908 486 920 q 372 873 400 897 q 327 812 343 849 q 305 726 311 775 l 301 699 z "},"ﬃ":{"ha":1170,"x_min":53,"x_max":1113,"o":"m 1099 594 l 1027 0 l 883 0 l 956 594 l 703 594 l 634 26 l 600 -111 q 573 -157 590 -141 q 524 -173 556 -173 l 465 -173 l 559 594 l 294 594 l 226 26 l 192 -110 q 165 -156 182 -140 q 115 -172 147 -172 l 56 -172 l 149 594 l 88 603 q 63 615 72 606 q 56 640 53 624 l 63 699 l 162 699 l 168 747 q 199 856 176 808 q 258 937 222 903 q 339 988 293 970 q 438 1005 385 1005 q 519 992 481 1005 l 505 913 q 486 897 501 899 q 448 895 470 895 q 396 889 419 895 q 355 866 373 882 q 326 822 338 849 q 309 751 314 794 l 302 699 l 572 699 l 576 728 q 609 848 583 794 q 680 942 635 903 q 786 1004 724 982 q 928 1026 848 1026 q 955 1025 941 1026 q 983 1023 969 1024 q 1010 1018 997 1021 q 1032 1013 1022 1016 l 1017 938 q 998 921 1014 922 q 956 920 981 920 q 853 908 896 920 q 781 873 810 897 q 736 812 752 849 q 714 726 720 775 l 711 699 l 1113 699 l 1100 594 l 1099 594 z "},"ﬂ":{"ha":779,"x_min":53,"x_max":763,"o":"m 294 592 l 224 26 l 191 -111 q 164 -157 181 -141 q 114 -173 146 -173 l 55 -173 l 149 590 l 88 599 q 63 611 72 603 q 56 635 53 619 l 63 699 l 162 699 l 166 733 q 196 843 173 791 q 257 934 219 894 q 350 996 296 973 q 473 1019 403 1019 q 572 1015 525 1019 q 665 1010 619 1011 l 763 1010 l 639 0 l 494 0 l 604 902 q 542 909 573 906 q 483 913 511 913 q 362 866 408 913 q 306 733 316 820 l 303 699 l 460 699 l 447 592 l 294 592 z "},"ﬄ":{"ha":1187,"x_min":53,"x_max":1171,"o":"m 299 697 l 569 697 l 574 733 q 603 843 581 791 q 665 934 626 894 q 757 996 703 973 q 881 1019 811 1019 q 988 1015 937 1019 q 1089 1010 1039 1010 l 1171 1010 l 1047 0 l 903 0 l 1013 902 q 950 909 981 906 q 890 913 919 913 q 770 866 816 913 q 714 733 724 820 l 710 697 l 887 697 l 874 593 l 703 593 l 633 26 l 599 -111 q 572 -157 589 -141 q 522 -173 554 -173 l 463 -173 l 556 593 l 292 593 l 224 26 l 190 -110 q 163 -156 180 -140 q 113 -172 145 -172 l 53 -172 l 147 592 l 88 601 q 63 614 72 605 q 56 638 53 622 l 63 697 l 160 697 l 166 747 q 197 856 174 808 q 255 937 219 903 q 336 988 290 970 q 436 1005 383 1005 q 517 992 478 1005 l 503 913 q 483 897 499 899 q 446 895 467 895 q 394 889 417 895 q 353 866 371 882 q 323 822 335 849 q 306 751 311 794 l 299 697 z "},"g":{"ha":685,"x_min":-42,"x_max":696,"o":"m 436 -9 q 430 39 436 17 q 280 51 342 53 q 178 34 218 49 q 119 -4 138 19 q 100 -54 100 -27 q 138 -123 100 -99 q 248 -147 175 -147 q 325 -136 290 -147 q 384 -106 360 -125 q 423 -62 409 -87 q 436 -9 436 -37 m 312 326 q 372 342 346 326 q 416 382 398 357 q 443 439 433 407 q 453 502 452 470 q 425 588 453 558 q 347 617 397 617 q 288 602 313 617 q 244 564 262 588 q 217 509 226 540 q 208 445 208 478 q 235 357 208 388 q 312 326 262 326 m 696 683 l 690 634 q 658 594 685 603 l 580 577 q 586 544 584 561 q 589 508 589 527 q 581 448 589 474 q 563 399 574 422 q 539 356 551 376 q 515 316 526 336 q 497 274 504 296 q 490 226 490 252 q 502 174 490 198 q 531 125 515 150 q 559 70 547 99 q 572 3 572 41 q 548 -94 572 -49 q 482 -175 525 -140 q 376 -230 438 -210 q 235 -251 314 -251 q 121 -237 172 -251 q 33 -201 69 -224 q -22 -144 -3 -177 q -42 -72 -42 -112 q -22 9 -42 -26 q 31 69 -2 44 q 108 109 65 94 q 200 131 152 124 q 298 137 249 138 q 392 129 347 136 q 385 153 388 141 q 382 180 382 166 q 388 223 382 201 q 407 272 394 246 q 348 244 381 254 q 270 235 315 235 q 194 248 230 235 q 131 288 158 261 q 88 353 103 314 q 72 447 72 393 q 91 547 72 497 q 147 634 110 596 q 239 696 184 672 q 364 719 293 719 q 437 710 403 719 q 500 683 472 701 l 696 683 z "},"h":{"ha":744,"x_min":34,"x_max":675,"o":"m 252 572 q 369 682 306 645 q 499 719 432 719 q 579 702 544 719 q 636 650 614 684 q 667 565 658 615 q 667 451 675 515 l 614 0 l 465 0 l 518 451 q 510 561 528 526 q 443 597 492 597 q 383 580 414 597 q 324 534 352 564 q 270 463 295 505 q 227 369 244 421 l 183 0 l 34 0 l 158 1028 l 307 1028 l 252 572 z "},"ĥ":{"ha":744,"x_min":13,"x_max":675,"o":"m 160 1085 q 142 1077 152 1080 q 122 1074 131 1074 l 13 1074 l 185 1223 l 328 1223 l 463 1074 l 354 1074 q 336 1078 346 1074 q 319 1085 326 1081 l 256 1142 q 251 1145 253 1143 q 247 1149 249 1147 q 243 1145 245 1147 q 238 1142 240 1143 l 160 1085 m 252 572 q 369 682 306 645 q 499 719 432 719 q 579 702 544 719 q 636 650 614 684 q 667 565 658 615 q 667 451 675 515 l 614 0 l 465 0 l 518 451 q 510 561 528 526 q 443 597 492 597 q 383 580 414 597 q 324 534 352 564 q 270 463 295 505 q 227 369 244 421 l 183 0 l 34 0 l 158 1028 l 307 1028 l 252 572 z "},"ħ":{"ha":744,"x_min":26,"x_max":673,"o":"m 249 553 q 367 664 303 626 q 497 701 431 701 q 577 683 542 701 q 634 631 612 665 q 665 547 656 597 q 665 433 673 497 l 614 0 l 465 0 l 517 433 q 508 543 526 508 q 441 578 490 578 q 381 561 412 578 q 321 516 350 545 q 267 444 292 486 q 225 350 242 402 l 183 0 l 34 0 l 129 789 l 26 789 l 39 883 l 141 883 l 158 1028 l 307 1028 l 290 883 l 463 883 l 454 829 q 439 800 451 810 q 406 789 426 789 l 278 789 l 249 553 z "},"i":{"ha":331,"x_min":41,"x_max":317,"o":"m 273 708 l 188 0 l 41 0 l 126 708 l 273 708 m 317 922 q 309 884 317 902 q 287 852 301 866 q 256 831 273 839 q 219 823 238 823 q 184 831 201 823 q 154 852 167 839 q 133 884 141 866 q 125 922 125 902 q 133 961 125 942 q 154 993 141 979 q 185 1014 167 1006 q 220 1022 202 1022 q 257 1014 239 1022 q 288 993 274 1006 q 309 961 301 979 q 317 922 317 943 z "},"į":{"ha":331,"x_min":-33,"x_max":317,"o":"m 165 0 q 136 -19 151 -8 q 110 -44 122 -31 q 91 -74 99 -58 q 84 -108 84 -90 q 95 -139 84 -127 q 126 -150 106 -150 q 147 -148 139 -150 q 161 -144 156 -146 q 170 -140 167 -142 q 177 -137 174 -137 q 190 -147 188 -137 l 206 -203 q 152 -228 184 -219 q 85 -238 119 -238 q -2 -214 28 -238 q -33 -149 -33 -189 q -4 -68 -33 -106 q 74 0 24 -31 l 41 0 l 126 708 l 273 708 l 188 0 l 165 0 m 220 1022 q 257 1014 239 1022 q 288 993 274 1006 q 309 961 301 979 q 317 922 317 943 q 309 884 317 902 q 287 852 301 866 q 256 831 273 839 q 219 823 238 823 q 184 831 201 823 q 154 852 167 839 q 133 884 141 866 q 125 922 125 902 q 133 961 125 942 q 154 993 141 979 q 185 1014 167 1006 q 220 1022 202 1022 z "},"ı":{"ha":331,"x_min":41,"x_max":273,"o":"m 273 708 l 188 0 l 41 0 l 126 708 l 273 708 z "},"j":{"ha":329,"x_min":-125,"x_max":313,"o":"m 272 708 l 181 -37 q 159 -120 176 -81 q 114 -189 142 -160 q 47 -235 86 -218 q -44 -251 7 -251 q -89 -248 -70 -251 q -125 -238 -107 -244 l -110 -157 q -97 -141 -106 -143 q -64 -139 -87 -139 q -23 -133 -40 -139 q 6 -116 -6 -128 q 25 -84 17 -103 q 35 -37 32 -65 l 126 708 l 272 708 m 313 922 q 305 884 313 902 q 283 852 297 866 q 251 831 269 839 q 215 823 233 823 q 180 831 197 823 q 149 852 163 839 q 128 884 136 866 q 120 922 120 902 q 128 961 120 942 q 150 993 136 979 q 180 1014 163 1006 q 216 1022 197 1022 q 252 1014 235 1022 q 283 993 269 1006 q 305 961 297 979 q 313 922 313 943 z "},"ȷ":{"ha":329,"x_min":-125,"x_max":272,"o":"m 272 708 l 181 -37 q 159 -120 176 -81 q 114 -189 142 -160 q 47 -235 86 -218 q -44 -251 7 -251 q -89 -248 -70 -251 q -125 -238 -107 -244 l -110 -157 q -97 -141 -106 -143 q -64 -139 -87 -139 q -23 -133 -40 -139 q 6 -116 -6 -128 q 25 -84 17 -103 q 35 -37 32 -65 l 126 708 l 272 708 z "},"k":{"ha":678,"x_min":33,"x_max":693,"o":"m 306 1028 l 233 432 l 252 432 q 277 436 267 432 q 297 453 286 441 l 507 681 q 530 701 518 694 q 560 708 542 708 l 693 708 l 440 439 q 392 397 419 413 q 413 374 404 387 q 429 347 422 362 l 622 0 l 493 0 q 465 6 476 0 q 447 28 453 12 l 289 306 q 272 326 281 322 q 244 331 263 331 l 220 331 l 180 0 l 33 0 l 159 1028 l 306 1028 z "},"ĸ":{"ha":677,"x_min":33,"x_max":692,"o":"m 267 708 l 233 432 l 252 432 q 276 436 266 432 q 297 453 285 440 l 507 681 q 531 701 518 694 q 561 708 543 708 l 692 708 l 442 439 q 394 396 420 411 q 414 374 406 386 q 429 347 422 362 l 622 0 l 494 0 q 466 6 477 0 q 447 28 454 12 l 289 306 q 272 326 281 322 q 244 331 263 331 l 221 331 l 180 0 l 33 0 l 121 708 l 267 708 z "},"ł":{"ha":413,"x_min":33,"x_max":417,"o":"m 417 685 l 417 599 q 397 565 417 574 l 297 521 l 233 0 l 87 0 l 143 466 l 33 419 l 33 508 q 52 539 33 531 l 158 585 l 211 1028 l 358 1028 l 311 640 l 417 685 z "},"ľ":{"ha":323,"x_min":37,"x_max":504,"o":"m 482 1028 q 500 1022 496 1028 q 504 1009 504 1016 q 502 992 504 1002 q 491 963 499 983 q 466 910 482 943 q 423 823 450 876 q 401 801 413 806 q 369 796 388 796 l 333 796 l 400 1028 l 482 1028 m 37 0 l 161 1028 l 308 1028 l 183 0 l 37 0 z "},"m":{"ha":1098,"x_min":34,"x_max":1036,"o":"m 34 0 l 119 710 l 194 710 q 232 698 219 710 q 244 660 244 685 l 238 560 q 347 680 288 640 q 471 719 406 719 q 575 673 539 719 q 614 540 611 627 q 728 676 665 633 q 864 719 792 719 q 995 649 954 719 q 1021 451 1036 579 l 967 0 l 821 0 l 874 451 q 877 516 878 488 q 869 561 876 543 q 848 587 862 578 q 810 595 833 595 q 755 581 783 595 q 703 538 728 566 q 656 470 678 510 q 618 378 635 430 l 574 0 l 427 0 l 481 451 q 485 516 485 488 q 477 561 484 543 q 456 587 470 578 q 419 595 442 595 q 361 580 389 595 q 308 535 333 564 q 262 464 283 506 q 224 369 240 422 l 180 0 l 34 0 z "},"n":{"ha":744,"x_min":35,"x_max":676,"o":"m 238 548 q 360 677 292 634 q 501 719 428 719 q 580 702 545 719 q 637 650 615 684 q 667 565 659 615 q 668 451 676 515 l 615 0 l 466 0 l 519 451 q 511 561 529 526 q 444 595 492 595 q 382 578 414 595 q 320 529 349 560 q 265 452 290 497 q 222 353 239 408 l 183 0 l 35 0 l 119 710 l 194 710 q 232 698 219 710 q 244 660 244 685 l 238 548 z "},"ŋ":{"ha":744,"x_min":35,"x_max":676,"o":"m 238 548 q 360 677 292 634 q 501 719 428 719 q 580 702 545 719 q 637 650 615 684 q 667 565 659 615 q 668 451 676 515 l 623 64 l 617 11 q 590 -97 609 -48 q 540 -180 572 -145 q 462 -233 508 -214 q 355 -252 416 -252 q 326 -251 339 -252 q 301 -249 313 -251 q 278 -244 290 -247 q 252 -237 266 -242 l 265 -167 q 275 -141 268 -149 q 300 -134 281 -134 q 320 -137 309 -134 q 353 -140 331 -140 q 430 -108 402 -140 q 465 -6 458 -76 l 472 49 l 519 451 q 511 561 529 526 q 444 595 492 595 q 382 578 414 595 q 320 529 349 560 q 265 452 290 497 q 222 353 239 408 l 183 0 l 35 0 l 119 710 l 194 710 q 232 698 219 710 q 244 660 244 685 l 238 548 z "},"o":{"ha":724,"x_min":35,"x_max":672,"o":"m 317 106 q 402 132 364 106 q 467 202 440 158 q 508 303 494 246 q 523 423 523 360 q 489 559 523 515 q 390 603 456 603 q 305 577 342 603 q 240 508 267 551 q 199 408 214 465 q 185 287 185 350 q 317 106 185 106 m 304 -10 q 197 9 246 -10 q 111 67 147 29 q 56 160 76 105 q 35 285 35 215 q 64 456 35 376 q 143 593 93 535 q 260 686 193 652 q 403 719 327 719 q 511 700 462 719 q 596 642 560 680 q 651 549 631 604 q 672 424 672 494 q 658 308 672 364 q 622 205 645 253 q 564 117 598 156 q 490 49 531 77 q 402 5 449 21 q 304 -10 355 -10 z "},"ø":{"ha":723,"x_min":-2,"x_max":708,"o":"m 239 121 q 317 97 272 97 q 403 121 364 97 q 471 190 443 146 q 515 293 499 233 q 531 423 531 353 q 521 506 531 470 l 239 121 m 468 588 q 390 613 435 613 q 303 588 342 613 q 235 520 264 563 q 191 417 207 476 q 175 287 175 357 q 178 241 175 263 q 186 202 181 220 l 468 588 m 616 617 q 657 532 642 580 q 672 424 672 483 q 658 308 672 364 q 622 205 645 253 q 564 117 598 156 q 490 49 531 77 q 401 5 449 21 q 303 -10 354 -10 q 158 28 221 -10 l 143 8 q 101 -26 125 -16 q 53 -37 76 -37 l -2 -37 l 91 91 q 50 177 65 128 q 35 285 35 225 q 64 456 35 376 q 143 593 93 535 q 259 686 192 652 q 403 719 326 719 q 549 680 485 719 l 565 701 q 580 720 573 712 q 594 733 587 728 q 611 740 601 738 q 633 742 620 742 l 708 742 l 616 617 z "},"œ":{"ha":1115,"x_min":34,"x_max":1060,"o":"m 301 102 q 389 125 351 102 q 453 190 427 148 q 495 289 480 231 q 515 417 510 347 q 512 496 517 461 q 492 556 506 531 q 453 594 477 581 q 396 607 429 607 q 306 582 346 607 q 237 510 265 556 q 194 399 209 464 q 179 255 179 334 q 185 197 179 225 q 206 148 192 169 q 244 115 221 127 q 301 102 267 102 m 835 615 q 765 600 797 615 q 707 558 733 585 q 664 490 682 530 q 638 397 646 449 q 787 425 729 409 q 878 460 845 441 q 924 499 912 478 q 936 540 936 519 q 930 568 936 555 q 912 592 924 582 q 880 609 899 603 q 835 615 861 615 m 1056 131 q 985 68 1019 94 q 914 24 951 41 q 838 -2 878 6 q 752 -10 799 -10 q 627 26 683 -10 q 542 135 572 62 q 423 28 493 66 q 265 -10 352 -10 q 165 10 208 -10 q 92 67 122 31 q 49 149 63 102 q 34 247 34 195 q 65 450 34 362 q 148 598 96 538 q 267 689 199 658 q 410 719 335 719 q 531 688 481 719 q 607 599 581 656 q 714 687 651 655 q 858 719 777 719 q 942 707 904 719 q 1006 671 979 694 q 1046 616 1032 648 q 1060 546 1060 584 q 1041 463 1060 501 q 974 394 1022 425 q 842 341 926 363 q 631 305 759 318 q 671 156 631 204 q 781 107 711 107 q 861 120 829 107 q 916 149 893 133 q 955 178 938 165 q 991 191 972 191 q 1018 177 1006 191 l 1056 131 z "},"p":{"ha":742,"x_min":5,"x_max":692,"o":"m 199 161 q 257 117 224 130 q 324 105 291 105 q 387 119 358 105 q 440 157 416 133 q 484 214 465 181 q 517 285 503 247 q 537 363 530 322 q 544 443 544 403 q 517 561 544 522 q 441 600 490 600 q 379 580 410 600 q 319 525 348 560 q 264 442 290 490 q 220 338 238 394 l 199 161 m 238 538 q 293 613 263 579 q 357 670 324 646 q 425 707 390 694 q 499 719 461 719 q 579 703 543 719 q 640 654 615 687 q 678 572 665 621 q 692 458 692 523 q 680 341 692 399 q 645 232 667 283 q 591 135 623 180 q 522 59 560 91 q 439 8 483 26 q 347 -10 394 -10 q 256 8 297 -10 q 186 60 215 27 l 150 -235 l 5 -235 l 120 710 l 195 710 q 232 698 219 710 q 245 660 245 685 l 238 538 z "},"þ":{"ha":742,"x_min":5,"x_max":692,"o":"m 199 160 q 257 117 224 130 q 324 105 291 105 q 387 119 358 105 q 440 157 416 133 q 484 214 465 181 q 517 285 503 247 q 537 363 530 322 q 544 443 544 403 q 517 561 544 522 q 441 600 490 600 q 379 580 410 600 q 319 525 348 560 q 264 443 290 490 q 221 340 239 395 l 199 160 m 247 553 q 302 622 273 591 q 363 674 331 653 q 429 708 394 696 q 499 719 463 719 q 579 703 543 719 q 640 654 615 687 q 678 572 665 621 q 692 458 692 523 q 680 341 692 399 q 645 232 667 283 q 591 135 623 180 q 522 59 560 91 q 439 8 483 26 q 347 -10 394 -10 q 256 8 297 -10 q 186 60 215 27 l 156 -183 q 138 -219 153 -203 q 97 -235 122 -235 l 5 -235 l 159 1028 l 306 1028 l 247 553 z "},"q":{"ha":718,"x_min":29,"x_max":667,"o":"m 511 608 q 488 610 499 610 q 465 611 476 611 q 352 583 404 611 q 261 508 300 556 q 201 399 223 461 q 178 268 178 337 q 204 151 178 189 q 276 113 229 113 q 336 133 307 113 q 393 189 366 153 q 442 274 419 225 q 482 378 465 322 l 511 608 m 452 147 q 346 32 405 74 q 218 -10 288 -10 q 142 6 177 -10 q 83 53 108 22 q 43 132 58 85 q 29 241 29 179 q 64 423 29 336 q 161 575 99 509 q 305 680 222 641 q 485 719 388 719 q 577 711 532 719 q 667 686 623 704 l 553 -235 l 457 -235 q 433 -230 442 -235 q 418 -216 424 -225 q 411 -197 413 -208 q 411 -176 410 -187 l 452 147 z "},"r":{"ha":483,"x_min":34,"x_max":506,"o":"m 237 526 q 295 622 264 582 q 361 685 327 663 q 432 713 396 708 q 506 701 469 717 l 478 558 q 324 535 390 593 q 217 316 258 477 l 180 0 l 34 0 l 119 710 l 194 710 q 232 698 219 710 q 244 660 244 685 l 237 526 z "},"s":{"ha":560,"x_min":-7,"x_max":537,"o":"m 499 584 q 486 570 492 574 q 469 566 479 566 q 447 573 458 566 q 418 590 435 581 q 380 606 402 599 q 326 613 358 613 q 274 606 297 613 q 234 585 251 598 q 209 553 217 572 q 200 515 200 535 q 212 477 200 492 q 244 449 224 461 q 290 428 265 438 q 343 408 316 418 q 395 384 369 397 q 441 351 421 370 q 473 305 461 332 q 485 240 485 278 q 466 144 485 190 q 409 64 446 99 q 319 9 372 30 q 202 -11 267 -11 q 80 14 135 -11 q -7 76 26 38 l 30 133 q 46 149 37 143 q 68 155 55 155 q 92 145 81 155 q 120 125 104 136 q 160 104 137 113 q 222 94 184 94 q 277 103 253 94 q 318 127 301 112 q 344 163 335 142 q 353 205 353 183 q 341 247 353 230 q 308 275 328 263 q 263 297 288 288 q 211 315 238 306 q 159 338 184 325 q 113 369 133 350 q 81 414 93 388 q 69 480 69 441 q 87 569 69 526 q 139 646 105 613 q 222 699 173 679 q 335 719 272 719 q 451 697 401 719 q 537 638 501 675 l 499 584 z "},"ş":{"ha":560,"x_min":-7,"x_max":537,"o":"m 30 133 q 46 149 37 143 q 68 155 55 155 q 92 145 81 155 q 120 125 104 136 q 160 104 137 113 q 222 94 184 94 q 277 103 253 94 q 318 127 301 112 q 344 163 335 142 q 353 205 353 183 q 341 247 353 230 q 308 275 328 263 q 263 297 288 288 q 211 315 238 306 q 159 338 184 325 q 113 369 133 350 q 81 414 93 388 q 69 480 69 441 q 87 569 69 526 q 139 646 105 613 q 222 699 173 679 q 335 719 272 719 q 451 697 401 719 q 537 638 501 675 l 499 584 q 486 570 492 574 q 469 566 479 566 q 447 573 458 566 q 418 590 435 581 q 380 606 402 599 q 326 613 358 613 q 274 606 297 613 q 234 585 251 598 q 209 553 217 572 q 200 515 200 535 q 212 477 200 492 q 244 449 224 461 q 290 428 265 438 q 343 408 316 418 q 395 384 369 397 q 441 351 421 370 q 473 305 461 332 q 485 240 485 278 q 469 152 485 194 q 421 77 452 110 q 346 21 390 44 q 246 -8 301 -1 l 231 -47 q 307 -83 284 -60 q 329 -137 329 -106 q 317 -184 329 -163 q 283 -218 305 -204 q 231 -240 261 -233 q 165 -248 201 -248 q 116 -243 138 -248 q 73 -229 93 -238 l 92 -183 q 112 -168 98 -168 q 120 -170 116 -168 q 131 -175 125 -172 q 144 -179 137 -177 q 163 -181 152 -181 q 200 -170 188 -181 q 212 -142 212 -158 q 190 -112 212 -122 q 122 -97 167 -103 l 161 -8 q 64 21 107 -1 q -7 76 20 44 l 30 133 z "},"ß":{"ha":825,"x_min":49,"x_max":778,"o":"m 172 697 q 224 818 190 760 q 305 919 258 876 q 410 989 351 963 q 535 1015 468 1015 q 647 995 601 1015 q 722 945 693 976 q 765 878 751 915 q 778 808 778 842 q 763 729 778 762 q 724 672 747 697 q 674 630 701 648 q 623 595 647 613 q 585 560 600 578 q 569 518 569 542 q 584 480 569 496 q 620 450 598 464 q 667 419 642 435 q 714 382 692 403 q 750 329 735 360 q 764 253 764 298 q 741 140 764 190 q 681 57 719 91 q 592 6 642 24 q 487 -11 542 -11 q 377 14 426 -11 q 292 76 327 38 l 333 131 q 349 146 340 140 q 372 152 358 152 q 398 142 385 152 q 425 121 410 133 q 461 100 440 110 q 512 91 481 91 q 557 100 536 91 q 594 126 578 110 q 618 165 609 143 q 626 213 626 188 q 611 265 626 244 q 572 302 595 285 q 521 332 549 318 q 470 365 494 347 q 432 410 447 384 q 416 476 416 436 q 433 552 416 521 q 474 608 449 584 q 528 652 499 632 q 582 693 557 672 q 623 741 606 715 q 640 803 640 767 q 633 842 640 823 q 611 876 626 861 q 572 901 596 892 q 515 910 549 910 q 437 886 473 910 q 374 823 401 863 q 328 732 347 783 q 303 624 310 680 l 231 26 l 197 -110 q 169 -156 187 -140 q 120 -172 152 -172 l 60 -172 l 153 591 l 84 601 q 58 613 67 605 q 51 638 49 622 l 58 697 l 172 697 z "},"ſ":{"ha":390,"x_min":49,"x_max":524,"o":"m 174 758 q 203 867 181 819 q 261 948 226 915 q 342 998 296 981 q 443 1015 388 1015 q 486 1011 466 1015 q 524 1001 506 1008 l 511 926 q 492 911 508 912 q 455 910 476 910 q 403 901 426 910 q 364 875 381 893 q 335 826 347 856 q 319 753 324 797 l 231 26 l 197 -110 q 169 -156 187 -140 q 120 -172 152 -172 l 60 -172 l 153 591 l 84 601 q 58 613 67 605 q 51 638 49 622 l 58 697 l 166 697 l 174 758 z "},"t":{"ha":501,"x_min":47,"x_max":481,"o":"m 92 140 q 92 151 92 144 q 93 170 92 158 q 97 203 94 183 q 103 257 99 224 l 144 591 l 72 591 q 53 599 60 591 q 49 623 47 607 l 56 683 l 163 700 l 219 905 q 232 924 223 917 q 253 931 240 931 l 332 931 l 303 699 l 481 699 l 469 591 l 290 591 l 250 265 q 244 220 247 237 q 241 193 242 203 q 240 179 240 183 q 240 173 240 175 q 254 126 240 142 q 294 110 269 110 q 323 115 311 110 q 344 125 335 119 q 359 134 353 130 q 371 139 365 139 q 382 136 378 139 q 389 125 385 133 l 421 52 q 339 5 384 22 q 249 -11 294 -11 q 135 28 177 -11 q 92 140 94 67 z "},"ť":{"ha":500,"x_min":47,"x_max":561,"o":"m 539 1028 q 557 1022 553 1028 q 561 1009 561 1016 q 559 992 561 1002 q 548 963 556 983 q 524 910 540 943 q 481 823 508 876 q 458 801 471 806 q 426 796 446 796 l 390 796 l 457 1028 l 539 1028 m 92 140 q 92 151 92 144 q 93 170 92 158 q 97 203 94 183 q 103 257 99 224 l 144 591 l 72 591 q 53 599 60 591 q 49 623 47 607 l 56 683 l 163 700 l 219 905 q 232 924 223 917 q 253 931 240 931 l 332 931 l 303 699 l 481 699 l 469 591 l 290 591 l 250 265 q 244 220 247 237 q 241 193 242 203 q 240 179 240 183 q 240 173 240 175 q 254 126 240 142 q 294 110 269 110 q 323 115 311 110 q 344 125 335 119 q 359 134 353 130 q 371 139 365 139 q 382 136 378 139 q 389 125 385 133 l 421 52 q 339 5 384 22 q 249 -11 294 -11 q 135 28 177 -11 q 92 140 94 67 z "},"ŧ":{"ha":507,"x_min":21,"x_max":487,"o":"m 97 140 q 98 151 97 144 q 99 170 98 158 q 102 203 100 183 q 108 257 104 224 l 124 388 l 50 388 q 30 396 38 388 q 23 421 21 405 l 31 481 l 135 481 l 149 591 l 78 591 q 59 599 66 591 q 54 623 52 607 l 61 683 l 169 700 l 224 905 q 237 924 228 917 q 258 931 246 931 l 338 931 l 308 699 l 487 699 l 474 591 l 295 591 l 282 481 l 456 481 l 444 388 l 270 388 l 256 265 q 250 220 252 237 q 247 193 248 203 q 245 179 246 183 q 245 173 245 175 q 260 126 245 142 q 300 110 274 110 q 328 115 317 110 q 349 125 340 119 q 365 134 358 130 q 376 139 371 139 q 388 136 384 139 q 394 125 391 133 l 426 52 q 345 5 390 22 q 254 -11 300 -11 q 141 28 183 -11 q 97 140 99 67 z "},"u":{"ha":744,"x_min":51,"x_max":692,"o":"m 692 708 l 607 0 l 533 0 q 478 53 478 0 l 485 155 q 364 31 431 72 q 226 -10 297 -10 q 147 7 182 -10 q 90 59 113 25 q 60 144 68 94 q 59 258 51 194 l 113 708 l 261 708 l 208 258 q 216 148 198 183 q 283 113 235 113 q 343 130 312 113 q 403 176 374 146 q 458 248 433 206 q 500 342 483 290 l 544 708 l 692 708 z "},"ų":{"ha":744,"x_min":51,"x_max":692,"o":"m 587 0 q 558 -19 572 -8 q 532 -44 544 -31 q 513 -74 520 -58 q 506 -108 506 -90 q 517 -139 506 -127 q 548 -150 528 -150 q 569 -148 560 -150 q 583 -144 577 -146 q 592 -140 588 -142 q 599 -137 595 -137 q 612 -147 609 -137 l 628 -203 q 573 -228 606 -219 q 506 -238 541 -238 q 419 -214 449 -238 q 389 -149 389 -189 q 419 -66 389 -105 q 504 5 450 -26 q 478 53 478 16 l 485 155 q 364 31 431 72 q 226 -10 297 -10 q 147 7 182 -10 q 90 59 113 25 q 60 144 68 94 q 59 258 51 194 l 113 708 l 261 708 l 208 258 q 216 148 198 183 q 283 113 235 113 q 343 130 312 113 q 403 176 374 146 q 458 248 433 206 q 500 342 483 290 l 544 708 l 692 708 l 607 0 l 587 0 z "},"v":{"ha":674,"x_min":44,"x_max":701,"o":"m 701 708 l 349 0 l 224 0 l 44 708 l 166 708 q 192 700 182 708 q 203 679 201 691 l 292 267 q 301 206 298 235 q 306 145 303 176 q 326 205 315 175 q 349 267 336 235 l 542 679 q 559 700 547 692 q 584 708 570 708 l 701 708 z "},"w":{"ha":1015,"x_min":49,"x_max":1032,"o":"m 1032 708 l 738 0 l 623 0 q 599 27 603 0 l 523 468 q 520 493 522 481 q 517 517 519 505 q 509 492 513 505 q 499 467 505 480 l 314 27 q 281 0 303 0 l 172 0 l 49 708 l 162 708 q 188 700 178 708 q 199 679 197 692 l 252 267 q 256 213 254 239 q 258 160 257 187 q 277 213 267 187 q 298 267 287 239 l 471 681 q 487 702 476 694 q 512 710 498 710 l 574 710 q 600 702 590 710 q 610 681 609 694 l 679 267 q 686 213 683 239 q 692 160 690 186 q 708 212 700 185 q 726 267 716 238 l 883 679 q 898 700 887 692 q 924 708 910 708 l 1032 708 z "},"x":{"ha":662,"x_min":-50,"x_max":671,"o":"m 421 382 l 606 0 l 472 0 q 447 8 456 0 q 433 28 438 17 l 313 294 q 305 278 309 285 q 297 264 301 271 l 122 28 q 105 8 115 17 q 81 0 95 0 l -50 0 l 233 383 l 67 708 l 201 708 q 224 704 217 708 q 235 689 231 700 l 342 463 q 351 478 347 470 q 362 495 356 487 l 503 686 q 537 708 516 708 l 671 708 l 421 382 z "},"y":{"ha":675,"x_min":46,"x_max":703,"o":"m 703 708 l 231 -203 q 181 -235 214 -235 l 71 -235 l 226 49 l 46 708 l 169 708 q 195 700 187 708 q 206 679 203 691 l 306 277 q 312 244 310 261 q 316 212 315 228 q 330 245 323 228 q 345 278 338 261 l 543 680 q 561 700 549 692 q 585 708 572 708 l 703 708 z "},"z":{"ha":596,"x_min":-15,"x_max":589,"o":"m 589 708 l 581 646 q 572 615 579 630 q 556 589 565 601 l 176 116 l 506 116 l 492 0 l -15 0 l -8 63 q 0 88 -7 73 q 17 115 7 103 l 399 592 l 76 592 l 90 708 l 589 708 z "},"ª":{"ha":476,"x_min":90,"x_max":453,"o":"m 338 762 q 268 755 296 760 q 223 740 240 749 q 198 717 206 731 q 190 689 190 704 q 203 659 190 668 q 236 650 215 650 q 285 661 263 650 q 329 694 307 673 l 338 762 m 142 945 q 225 997 181 981 q 317 1013 268 1013 q 377 999 351 1013 q 421 964 403 986 q 445 911 438 941 q 449 849 453 882 l 416 584 l 368 584 q 347 588 353 584 q 335 606 341 592 l 331 635 q 299 610 315 621 q 267 592 283 599 q 233 581 251 585 q 194 578 215 578 q 119 603 147 578 q 90 676 90 628 q 102 728 90 702 q 143 776 114 755 q 221 812 172 798 q 344 828 270 826 l 347 849 q 347 881 349 866 q 339 906 345 895 q 322 922 333 916 q 294 928 311 928 q 256 922 272 928 q 229 910 241 917 q 207 897 217 903 q 184 892 197 892 q 166 898 173 892 q 156 911 160 903 l 142 945 z "},"º":{"ha":521,"x_min":97,"x_max":512,"o":"m 332 1011 q 407 998 374 1011 q 464 961 440 985 q 499 902 487 937 q 512 826 512 868 q 494 722 512 768 q 447 643 477 676 q 373 593 416 611 q 279 576 330 576 q 204 589 238 576 q 147 626 170 602 q 110 684 123 650 q 97 762 97 719 q 115 865 97 819 q 163 944 132 911 q 238 994 194 976 q 332 1011 281 1011 m 290 661 q 373 705 347 661 q 400 826 400 749 q 381 900 400 874 q 322 926 361 926 q 269 914 290 926 q 234 880 247 901 q 215 827 221 858 q 210 760 210 797 q 229 687 210 713 q 290 661 249 661 z "},"ⁿ":{"ha":419,"x_min":76,"x_max":431,"o":"m 200 951 q 255 991 226 976 q 322 1006 283 1006 q 374 995 352 1006 q 408 966 395 985 q 426 922 422 947 q 428 867 431 897 l 399 637 l 299 637 l 327 867 q 319 910 331 895 q 281 925 308 925 q 244 917 262 925 q 208 894 226 908 l 176 637 l 76 637 l 121 1000 l 174 1000 q 198 979 193 1000 l 200 951 z "},"`":{"ha":511,"x_min":181,"x_max":435,"o":"m 310 1011 q 343 1003 333 1011 q 362 977 354 994 l 435 809 l 357 809 q 332 814 342 809 q 314 831 323 819 l 181 1011 l 310 1011 z "},"´":{"ha":511,"x_min":269,"x_max":574,"o":"m 574 1011 l 399 831 q 377 814 388 819 q 351 809 367 809 l 269 809 l 381 977 q 405 1003 392 994 q 441 1011 417 1011 l 574 1011 z "},"ˆ":{"ha":511,"x_min":138,"x_max":556,"o":"m 556 812 l 464 812 q 448 815 456 812 q 433 827 440 817 l 372 908 q 362 922 365 915 q 355 915 358 918 q 348 908 351 911 l 267 827 q 251 816 260 819 q 233 812 242 812 l 138 812 l 304 1000 l 432 1000 l 556 812 z "},"ˇ":{"ha":511,"x_min":160,"x_max":577,"o":"m 577 1000 l 411 812 l 283 812 l 160 1000 l 254 1000 q 271 997 263 1000 q 282 989 278 993 l 347 904 q 352 897 349 901 q 358 888 354 893 q 372 904 364 897 l 455 989 q 469 996 460 992 q 485 1000 477 1000 l 577 1000 z "},"̕":{"ha":0,"x_min":276,"x_max":467,"o":"m 444 1029 q 462 1023 458 1029 q 467 1010 467 1017 q 464 994 467 1003 q 453 964 462 984 q 429 911 445 944 q 385 823 413 878 q 361 800 374 806 q 329 795 349 795 l 276 795 l 344 1029 l 444 1029 z "},"˜":{"ha":511,"x_min":155,"x_max":565,"o":"m 430 933 q 464 946 451 933 q 481 989 477 959 l 565 989 q 548 923 560 953 q 517 873 535 894 q 475 840 499 851 q 424 828 451 828 q 382 838 401 828 q 348 858 364 847 q 317 879 331 869 q 290 888 303 888 q 256 875 269 888 q 240 831 243 861 l 155 831 q 172 897 159 867 q 203 948 184 927 q 245 981 222 969 q 297 993 269 993 q 338 984 319 993 q 373 963 357 974 q 403 943 389 952 q 430 933 417 933 z "},"¯":{"ha":511,"x_min":164,"x_max":550,"o":"m 174 945 l 550 945 l 538 849 l 164 849 l 174 945 z "},"˘":{"ha":511,"x_min":180,"x_max":553,"o":"m 347 808 q 261 823 294 808 q 209 865 228 838 q 185 926 190 891 q 184 1000 180 960 l 281 1000 q 280 960 278 978 q 291 930 282 942 q 315 910 299 917 q 358 903 331 903 q 401 910 383 903 q 430 930 419 917 q 448 960 442 942 q 456 1000 453 978 l 553 1000 q 535 926 549 960 q 497 865 522 891 q 436 823 473 838 q 347 808 399 808 z "},"˚":{"ha":511,"x_min":220,"x_max":499,"o":"m 224 917 q 241 973 227 948 q 275 1017 254 999 q 321 1044 295 1035 q 374 1054 347 1054 q 425 1044 401 1054 q 465 1017 449 1035 q 490 973 482 999 q 495 917 499 948 q 478 862 492 887 q 443 820 464 838 q 397 792 422 802 q 343 783 371 783 q 293 792 316 783 q 253 820 269 802 q 228 862 236 838 q 224 917 220 887 m 299 917 q 309 870 295 888 q 353 852 324 852 q 398 870 379 852 q 419 917 416 888 q 408 965 423 947 q 367 983 394 983 q 320 965 338 983 q 299 917 302 947 z "},"˝":{"ha":511,"x_min":198,"x_max":663,"o":"m 451 1011 l 303 831 q 282 814 292 818 q 255 809 271 809 l 198 809 l 301 977 q 325 1003 312 994 q 361 1011 338 1011 l 451 1011 m 663 1011 l 485 831 q 463 814 473 819 q 436 809 452 809 l 371 809 l 504 977 q 528 1002 517 994 q 564 1011 540 1011 l 663 1011 z "},"˙":{"ha":511,"x_min":265,"x_max":458,"o":"m 458 922 q 449 884 458 902 q 427 852 441 866 q 396 831 413 839 q 360 823 378 823 q 324 831 341 823 q 294 852 307 839 q 273 884 281 866 q 265 922 265 902 q 273 961 265 942 q 294 993 281 979 q 325 1014 308 1006 q 360 1022 342 1022 q 397 1014 379 1022 q 428 993 415 1006 q 450 961 442 979 q 458 922 458 943 z "},"¸":{"ha":511,"x_min":120,"x_max":376,"o":"m 278 -47 q 354 -83 331 -60 q 376 -137 376 -106 q 364 -184 376 -163 q 330 -218 352 -204 q 278 -240 308 -233 q 212 -248 248 -248 q 163 -243 185 -248 q 120 -229 140 -238 l 140 -183 q 159 -168 145 -168 q 168 -170 163 -168 q 178 -175 172 -172 q 192 -179 184 -177 q 210 -181 199 -181 q 247 -170 235 -181 q 259 -142 259 -158 q 237 -112 259 -122 q 169 -97 215 -103 l 222 22 l 305 22 l 278 -47 z "},"˛":{"ha":511,"x_min":119,"x_max":358,"o":"m 329 -137 q 342 -147 340 -137 l 358 -203 q 304 -228 336 -219 q 237 -238 272 -238 q 150 -214 180 -238 q 119 -149 119 -189 q 152 -62 119 -103 q 242 9 185 -22 l 317 0 q 289 -19 303 -8 q 263 -44 274 -31 q 243 -74 251 -58 q 236 -108 236 -90 q 247 -139 236 -127 q 278 -150 258 -150 q 299 -148 291 -150 q 313 -144 308 -146 q 322 -140 319 -142 q 329 -137 326 -137 z "},"Γ":{"ha":715,"x_min":60,"x_max":758,"o":"m 744 877 l 324 877 l 217 0 l 60 0 l 183 1000 l 758 1000 l 744 877 z "},"Δ":{"ha":905,"x_min":-53,"x_max":853,"o":"m 168 126 l 664 126 l 521 748 q 511 788 516 765 q 503 837 507 810 q 483 788 493 810 q 465 747 474 765 l 168 126 m 853 0 l -53 0 l 452 999 l 594 999 l 853 0 z "},"Θ":{"ha":1041,"x_min":62,"x_max":999,"o":"m 363 567 l 710 567 l 694 441 l 348 441 l 363 567 m 999 569 q 981 410 999 485 q 929 270 963 334 q 847 154 895 206 q 740 66 799 102 q 613 9 681 29 q 467 -10 544 -10 q 298 23 374 -10 q 170 115 223 56 q 90 254 118 174 q 62 430 62 335 q 80 590 62 514 q 132 730 99 665 q 213 847 165 794 q 320 935 261 899 q 448 991 379 972 q 593 1011 517 1011 q 762 978 687 1011 q 890 885 837 944 q 970 745 942 826 q 999 569 999 664 m 838 565 q 819 695 838 637 q 767 794 801 753 q 684 858 733 835 q 574 880 635 880 q 431 848 496 880 q 320 758 366 817 q 248 618 274 700 q 222 435 222 535 q 240 305 222 363 q 292 206 258 247 q 374 142 326 165 q 485 120 423 120 q 629 152 564 120 q 740 241 694 183 q 812 382 787 299 q 838 565 838 464 z "},"Λ":{"ha":890,"x_min":-51,"x_max":836,"o":"m 836 0 l 710 0 q 678 10 690 0 q 661 36 666 20 l 513 700 q 500 757 506 726 q 490 822 494 788 q 467 757 479 788 q 442 700 455 726 l 131 36 q 109 11 124 22 q 74 0 94 0 l -51 0 l 444 1000 l 585 1000 l 836 0 z "},"Ξ":{"ha":803,"x_min":3,"x_max":822,"o":"m 822 1000 l 806 868 l 109 868 l 125 1000 l 822 1000 m 715 131 l 699 0 l 3 0 l 18 131 l 715 131 m 231 572 l 608 572 l 592 436 l 215 436 l 231 572 z "},"Π":{"ha":990,"x_min":60,"x_max":949,"o":"m 826 0 l 669 0 l 777 877 l 324 877 l 217 0 l 60 0 l 183 1000 l 949 1000 l 826 0 z "},"Σ":{"ha":785,"x_min":-12,"x_max":806,"o":"m 376 877 q 315 880 342 877 q 261 888 288 882 q 349 804 319 853 l 476 588 q 491 561 485 572 q 501 542 497 550 q 506 527 505 533 q 506 514 507 520 q 503 498 506 506 q 494 480 500 490 q 479 459 488 471 q 456 431 469 447 l 243 177 q 207 141 224 155 q 172 115 190 126 q 222 120 199 119 q 265 122 245 122 l 699 122 l 683 0 l -12 0 l -6 58 q 7 94 -3 76 q 31 124 17 111 l 372 499 l 115 887 q 104 908 108 897 q 102 932 101 919 l 110 1000 l 806 1000 l 791 877 l 376 877 z "},"Φ":{"ha":1085,"x_min":47,"x_max":1058,"o":"m 586 177 q 674 191 633 178 q 751 229 716 205 q 816 287 787 253 q 864 361 844 320 q 895 448 884 401 q 906 544 906 494 q 889 652 906 601 q 842 742 873 703 q 767 803 812 781 q 666 827 723 826 l 586 177 m 518 827 q 390 796 449 826 q 289 717 331 767 q 223 601 247 667 q 199 460 199 535 q 215 352 199 403 q 262 262 231 301 q 338 201 293 224 q 438 177 382 178 l 518 827 m 681 949 q 840 915 770 947 q 959 830 910 883 q 1032 704 1007 776 q 1058 551 1058 633 q 1042 420 1058 483 q 995 302 1026 357 q 922 202 965 247 q 825 124 879 157 q 707 74 772 92 q 572 55 643 56 l 555 -78 l 407 -78 l 424 55 q 264 88 334 56 q 146 174 194 120 q 73 300 98 228 q 47 453 47 372 q 64 584 47 521 q 110 701 80 647 q 183 801 140 756 q 281 879 226 847 q 398 930 335 911 q 533 949 462 948 l 549 1078 l 697 1078 l 681 949 z "},"Ψ":{"ha":1063,"x_min":76,"x_max":1072,"o":"m 1072 1000 l 1028 642 q 983 482 1017 553 q 893 359 949 410 q 760 277 838 307 q 585 242 683 247 l 556 0 l 399 0 l 428 242 q 263 277 333 247 q 151 359 194 308 q 92 483 108 411 q 86 642 76 554 l 130 1000 l 235 1000 q 272 984 260 1000 q 281 946 283 968 l 244 642 q 242 530 235 579 q 272 447 249 481 q 338 393 296 413 q 444 369 380 374 l 522 1000 l 678 1000 l 601 369 q 714 393 666 374 q 793 447 761 413 q 844 530 826 481 q 870 642 863 578 l 908 946 q 926 984 911 968 q 967 1000 942 1000 l 1072 1000 z "},"Ω":{"ha":983,"x_min":19,"x_max":944,"o":"m 627 131 l 882 131 l 872 50 q 854 14 870 28 q 814 0 838 0 l 490 0 l 530 322 q 629 357 583 333 q 709 419 675 381 q 763 514 744 458 q 783 645 783 570 q 766 747 783 702 q 719 822 750 792 q 645 868 689 852 q 549 884 602 884 q 425 862 481 884 q 330 798 369 840 q 267 695 290 756 q 245 556 245 634 q 259 465 245 504 q 297 396 273 425 q 356 349 322 367 q 431 322 390 331 l 392 0 l 68 0 q 31 14 44 0 q 22 50 19 28 l 31 131 l 287 131 l 300 242 q 209 287 249 258 q 142 357 169 317 q 100 448 115 398 q 86 555 86 498 q 123 737 86 653 q 223 881 159 820 q 375 976 288 942 q 564 1010 462 1010 q 721 983 651 1010 q 841 908 791 956 q 917 794 890 860 q 944 652 944 728 q 923 510 944 576 q 862 389 901 443 q 767 298 823 335 q 640 241 710 260 l 627 131 z "},"α":{"ha":777,"x_min":33,"x_max":759,"o":"m 281 109 q 340 124 311 109 q 396 168 369 140 q 448 237 423 197 q 496 328 473 278 q 504 431 502 381 q 497 519 506 481 q 466 581 488 558 q 403 603 444 603 q 317 577 358 603 q 247 506 277 551 q 199 400 217 460 q 181 272 181 340 q 206 150 181 191 q 281 109 231 109 m 759 709 q 682 482 726 588 q 587 290 638 376 q 587 225 585 255 q 597 174 589 196 q 619 140 604 152 q 660 128 634 128 l 709 128 l 694 45 q 688 27 692 36 q 674 11 683 18 q 648 -1 664 3 q 609 -6 633 -6 q 560 4 580 -6 q 526 35 540 14 q 507 87 513 56 q 497 160 500 118 q 359 34 430 79 q 216 -10 288 -10 q 141 5 175 -10 q 83 53 108 21 q 46 134 59 85 q 33 248 33 182 q 45 370 33 311 q 81 482 58 430 q 136 578 104 535 q 208 653 169 622 q 292 702 247 685 q 385 719 337 719 q 459 706 428 719 q 514 669 491 692 q 550 614 536 646 q 572 545 565 582 l 578 566 q 600 641 590 613 q 618 684 609 669 q 636 704 627 699 q 658 709 646 709 l 759 709 z "},"β":{"ha":730,"x_min":4,"x_max":669,"o":"m 197 160 q 255 119 219 133 q 330 106 291 106 q 414 124 378 106 q 476 173 451 142 q 513 245 501 203 q 526 333 526 286 q 513 406 526 376 q 478 454 500 435 q 427 482 456 473 q 367 490 399 490 l 327 490 l 341 604 l 363 604 q 432 615 401 604 q 485 649 463 626 q 519 705 507 672 q 531 784 531 739 q 502 873 531 842 q 421 904 472 904 q 358 889 385 904 q 311 842 331 874 q 278 758 292 810 q 255 633 264 706 l 204 219 l 197 160 m 111 638 q 146 795 122 726 q 208 912 169 864 q 302 985 247 960 q 429 1010 356 1010 q 532 993 487 1010 q 607 947 576 976 q 652 879 637 918 q 668 795 668 840 q 625 643 668 706 q 503 552 582 580 q 626 473 583 530 q 669 333 669 416 q 646 199 669 261 q 582 90 623 136 q 483 17 541 44 q 356 -10 426 -10 q 263 8 308 -10 q 185 65 217 26 l 173 -37 l 139 -174 q 111 -219 129 -203 q 62 -236 94 -236 l 4 -236 l 60 222 l 111 638 z "},"γ":{"ha":713,"x_min":48,"x_max":733,"o":"m 733 708 q 668 541 706 625 q 584 375 630 457 q 489 216 539 293 q 386 68 438 138 l 349 -235 l 206 -235 l 242 64 q 227 274 238 176 q 197 447 217 373 q 146 564 177 521 q 68 606 115 606 l 48 606 l 54 659 q 59 681 56 672 q 72 698 63 691 q 94 709 80 706 q 131 713 108 713 q 235 677 192 713 q 304 574 278 641 q 342 410 331 506 q 354 192 354 313 q 417 302 388 244 q 472 420 447 360 q 519 541 498 481 q 558 660 541 602 q 578 698 565 688 q 612 708 592 708 l 733 708 z "},"δ":{"ha":719,"x_min":31,"x_max":665,"o":"m 321 101 q 397 118 361 101 q 459 168 433 135 q 501 246 486 200 q 517 349 517 292 q 506 428 517 393 q 477 492 495 463 q 434 544 458 521 q 383 589 410 568 q 306 548 343 573 q 241 487 269 524 q 197 400 213 450 q 180 285 180 351 q 188 215 180 248 q 214 156 197 181 q 258 116 231 131 q 321 101 284 101 m 642 892 q 629 866 638 872 q 602 860 620 860 q 572 865 592 860 q 526 878 552 871 q 471 890 501 885 q 413 896 442 896 q 340 876 362 896 q 318 831 318 857 q 343 778 318 803 q 407 727 369 754 q 489 667 445 700 q 572 591 533 635 q 635 490 610 548 q 660 355 660 432 q 635 209 660 276 q 564 94 610 142 q 453 18 518 45 q 309 -9 388 -9 q 191 13 242 -9 q 103 73 139 35 q 50 164 68 112 q 31 277 31 217 q 319 635 31 551 q 267 675 292 655 q 224 719 242 696 q 193 768 205 742 q 182 828 182 795 q 198 901 182 868 q 246 959 215 935 q 324 996 278 983 q 428 1010 369 1010 q 485 1007 454 1010 q 548 1001 517 1005 q 610 991 580 997 q 665 979 640 985 l 642 892 z "},"ε":{"ha":589,"x_min":23,"x_max":570,"o":"m 521 102 q 460 50 492 72 q 394 16 428 29 q 327 -3 360 3 q 265 -9 294 -9 q 170 5 215 -9 q 94 43 126 18 q 42 105 61 69 q 23 185 23 140 q 65 300 23 250 q 191 372 107 349 q 136 398 158 382 q 101 434 115 415 q 82 475 88 453 q 76 517 76 496 q 95 592 76 556 q 149 657 113 628 q 235 702 184 685 q 353 719 287 719 q 482 695 426 719 q 570 633 537 672 l 531 581 q 514 563 522 567 q 496 560 506 560 q 475 567 486 560 q 449 584 465 575 q 409 602 433 594 q 351 610 385 610 q 292 602 317 610 q 250 580 267 594 q 224 547 233 566 q 215 507 215 528 q 247 442 215 468 q 340 417 278 417 l 445 417 l 433 321 l 328 321 q 209 289 247 321 q 171 202 171 256 q 201 130 171 158 q 286 101 231 101 q 353 111 326 101 q 399 135 380 122 q 433 158 419 147 q 461 169 447 169 q 486 155 478 169 l 521 102 z "},"ζ":{"ha":510,"x_min":32,"x_max":592,"o":"m 591 951 q 589 928 592 939 q 577 903 587 917 q 551 872 568 890 q 506 828 533 853 q 436 763 473 798 q 362 689 399 728 q 291 606 325 649 q 231 514 257 562 q 190 415 206 467 q 174 310 174 364 q 184 250 174 276 q 211 205 193 224 q 255 171 228 185 q 316 144 281 156 q 397 108 365 127 q 447 67 428 88 q 474 23 466 46 q 481 -24 481 0 q 460 -125 481 -76 q 401 -228 440 -174 l 295 -184 q 311 -158 303 -172 q 327 -128 320 -144 q 339 -98 334 -113 q 343 -67 343 -82 q 339 -44 343 -56 q 321 -20 334 -32 q 286 4 308 -8 q 228 28 264 16 q 144 67 181 45 q 83 117 108 88 q 45 184 58 147 q 32 270 32 222 q 63 436 32 357 q 149 591 94 515 q 279 743 204 667 q 441 899 354 819 q 354 886 401 892 q 249 881 307 881 l 198 881 q 171 886 182 881 q 154 897 160 890 q 145 913 148 904 q 144 929 143 921 l 153 1000 l 586 1000 l 591 951 z "},"η":{"ha":758,"x_min":34,"x_max":690,"o":"m 41 665 q 62 700 44 685 q 121 715 80 715 q 178 706 152 715 q 224 679 205 697 q 253 632 242 660 q 263 564 263 603 q 381 681 317 642 q 515 719 446 719 q 594 702 559 719 q 651 650 629 684 q 682 565 674 615 q 682 451 690 515 l 598 -235 l 454 -235 l 538 451 l 539 451 q 529 561 549 526 q 460 595 510 595 q 406 583 433 595 q 352 547 378 570 q 302 490 326 524 q 260 415 278 457 l 209 0 l 66 0 l 128 509 q 118 584 135 560 q 65 608 102 608 l 34 608 l 41 665 z "},"θ":{"ha":781,"x_min":69,"x_max":727,"o":"m 209 459 q 207 372 207 417 q 244 171 207 238 q 353 103 281 103 q 504 196 447 103 q 581 459 562 288 l 209 459 m 588 558 q 589 594 588 576 q 589 630 589 612 q 553 831 589 763 q 449 899 517 899 q 363 876 401 899 q 295 810 324 853 q 247 703 266 766 q 217 558 227 640 l 588 558 m 458 1011 q 569 984 519 1011 q 655 907 619 958 q 708 782 690 856 q 727 615 727 708 q 699 348 727 465 q 620 152 671 232 q 499 31 570 73 q 343 -10 428 -10 q 228 16 279 -10 q 142 94 178 43 q 88 219 107 145 q 69 388 69 293 q 98 653 69 537 q 177 849 126 769 q 300 970 228 928 q 458 1011 371 1011 z "},"ι":{"ha":354,"x_min":47,"x_max":321,"o":"m 115 708 l 259 708 l 197 200 q 206 125 191 151 q 264 99 222 99 l 321 99 l 315 55 q 302 28 313 40 q 274 8 291 16 q 236 -4 258 0 q 194 -8 215 -8 q 124 7 153 -8 q 77 48 94 22 q 53 111 59 74 q 52 192 47 149 l 115 708 z "},"λ":{"ha":702,"x_min":-30,"x_max":663,"o":"m 663 100 l 655 42 q 633 2 651 12 q 582 -8 614 -8 q 520 -1 548 -8 q 472 25 493 6 q 435 80 451 44 q 410 172 420 115 l 364 379 q 355 445 358 418 q 353 495 353 473 q 335 447 344 472 q 312 393 325 422 l 139 28 q 122 8 133 17 q 90 0 111 0 l -30 0 l 302 642 l 265 828 q 255 863 261 849 q 239 885 249 876 q 213 898 228 894 q 174 901 197 901 l 132 901 l 138 955 q 144 976 139 966 q 160 993 149 986 q 187 1005 170 1001 q 228 1009 203 1009 q 282 1003 256 1009 q 330 984 308 998 q 368 945 352 969 q 393 883 385 921 l 544 173 q 570 117 552 135 q 625 100 588 100 l 663 100 z "},"μ":{"ha":777,"x_min":8,"x_max":735,"o":"m 735 104 l 728 44 q 699 9 726 24 q 628 -7 672 -7 q 577 1 601 -7 q 535 26 553 10 q 503 69 516 43 q 488 130 491 94 q 396 40 444 72 q 290 8 347 8 q 172 53 212 8 q 171 -3 173 26 q 166 -56 169 -32 l 144 -235 l 70 -235 q 24 -219 39 -235 q 12 -172 8 -203 l 120 708 l 269 708 l 216 272 q 235 168 210 206 q 314 131 259 131 q 408 162 367 131 q 480 250 449 194 l 536 708 l 685 708 l 623 201 q 636 128 617 151 q 691 104 654 104 l 735 104 z "},"ν":{"ha":669,"x_min":44,"x_max":688,"o":"m 688 708 q 616 518 657 613 q 527 333 576 424 q 423 158 478 242 q 308 0 367 74 l 219 0 l 44 708 l 163 708 q 189 700 178 708 q 201 679 199 691 l 288 258 q 297 208 293 233 q 302 158 300 183 q 369 273 338 212 q 427 399 401 334 q 476 532 453 465 q 517 665 498 599 q 537 699 524 689 q 565 708 550 708 l 688 708 z "},"ξ":{"ha":513,"x_min":31,"x_max":579,"o":"m 572 939 q 549 899 568 913 q 508 884 530 884 l 450 884 q 369 869 406 884 q 307 830 333 855 q 267 770 281 804 q 253 697 253 736 q 293 614 253 643 q 407 584 332 584 l 468 584 l 455 470 l 361 470 q 277 457 313 470 q 220 419 242 443 q 186 362 197 395 q 176 290 176 329 q 186 238 176 260 q 218 196 197 215 q 271 160 239 177 q 346 126 303 144 q 438 63 411 99 q 465 -19 465 27 q 444 -123 465 -72 q 383 -228 423 -173 l 277 -184 q 294 -158 285 -172 q 310 -128 303 -144 q 322 -98 317 -113 q 326 -66 326 -82 q 310 -22 326 -42 q 251 13 294 -1 q 161 52 202 30 q 92 106 121 75 q 47 176 63 137 q 31 265 31 215 q 41 342 31 303 q 75 418 51 382 q 135 485 98 455 q 227 533 173 515 q 144 592 170 554 q 119 680 119 629 q 133 752 119 719 q 170 810 147 784 q 224 856 193 836 q 289 890 255 876 l 173 890 q 129 905 140 890 q 121 946 117 920 l 128 1000 l 579 1000 l 572 939 z "},"π":{"ha":807,"x_min":3,"x_max":803,"o":"m 794 633 q 778 600 792 613 q 742 586 764 586 l 653 586 q 642 528 647 558 q 632 462 636 499 q 625 376 628 425 q 623 261 623 328 q 627 181 623 211 q 639 133 631 150 q 658 111 647 117 q 683 106 669 106 l 711 106 l 703 45 q 694 23 702 33 q 672 8 685 14 q 641 -2 658 1 q 605 -5 624 -5 q 500 41 534 -5 q 467 175 467 87 q 473 258 467 217 q 490 347 480 299 q 513 452 501 394 q 538 586 526 510 l 331 586 q 295 376 313 467 q 256 220 276 285 q 214 111 236 154 q 168 41 192 67 q 117 5 144 15 q 62 -6 91 -6 q 42 -4 52 -6 q 23 1 31 -2 q 9 10 14 5 q 5 23 3 15 l 17 124 l 30 124 q 72 149 50 124 q 116 228 94 174 q 160 372 138 283 q 201 586 181 460 l 67 586 l 74 649 q 80 668 75 658 q 93 686 85 678 q 113 699 101 694 q 137 704 124 704 l 803 704 l 794 633 z "},"ρ":{"ha":732,"x_min":-6,"x_max":678,"o":"m 191 188 q 253 122 216 143 q 327 101 290 101 q 407 122 370 101 q 472 184 444 144 q 514 284 499 225 q 530 419 530 344 q 493 560 530 516 q 397 605 457 605 q 335 592 365 605 q 281 551 305 578 q 239 481 256 524 q 215 381 222 439 l 191 188 m 70 376 q 108 524 81 460 q 180 632 136 588 q 281 697 223 675 q 410 719 340 719 q 517 699 468 719 q 602 638 566 678 q 658 542 638 599 q 678 414 678 485 q 652 249 678 326 q 582 114 627 172 q 476 23 538 56 q 344 -10 415 -10 q 251 12 294 -10 q 176 72 208 34 l 139 -235 l -6 -235 l 70 376 z "},"σ":{"ha":786,"x_min":36,"x_max":819,"o":"m 438 594 q 323 574 371 594 q 243 514 274 553 q 198 417 213 474 q 183 288 183 360 q 220 150 183 198 q 330 102 257 102 q 420 124 381 102 q 484 187 458 146 q 524 289 510 228 q 537 425 537 349 q 533 480 537 453 q 520 530 528 507 q 498 569 511 552 q 467 594 485 586 l 438 594 m 819 706 l 810 643 q 794 609 808 623 q 749 594 780 594 l 596 594 q 658 510 635 560 q 681 395 681 460 q 655 234 681 308 q 580 106 628 160 q 464 20 531 51 q 317 -10 397 -10 q 200 11 252 -10 q 111 71 148 32 q 56 166 75 110 q 36 291 36 222 q 66 460 36 384 q 151 592 97 537 q 284 676 206 647 q 456 706 361 706 l 819 706 z "},"ς":{"ha":606,"x_min":40,"x_max":612,"o":"m 567 572 q 553 558 560 563 q 535 553 547 553 q 513 562 524 553 q 487 581 502 570 q 450 599 472 591 q 396 608 428 608 q 310 587 349 608 q 245 531 272 567 q 204 445 219 494 q 190 340 190 397 q 203 259 190 291 q 240 203 216 226 q 299 164 265 181 q 377 131 334 148 q 440 101 415 117 q 480 67 465 85 q 502 27 495 49 q 508 -19 508 6 q 488 -123 508 -72 q 427 -228 467 -173 l 321 -184 q 338 -158 329 -172 q 353 -127 346 -143 q 365 -95 360 -112 q 369 -62 369 -79 q 366 -41 369 -51 q 354 -21 363 -31 q 329 -3 345 -12 q 288 16 313 6 q 194 57 239 34 q 115 115 149 80 q 60 201 81 150 q 40 326 40 251 q 65 480 40 408 q 135 605 89 552 q 248 689 181 658 q 398 719 314 719 q 522 694 470 719 q 612 624 574 669 l 567 572 z "},"τ":{"ha":608,"x_min":33,"x_max":623,"o":"m 616 645 q 598 607 613 621 q 560 594 584 594 l 371 594 l 323 203 q 333 127 317 153 q 390 101 348 101 l 447 101 l 442 57 q 428 30 440 42 q 400 11 417 19 q 363 -1 383 3 q 320 -6 342 -6 q 250 9 279 -6 q 203 51 221 24 q 179 114 185 77 q 178 194 173 151 l 227 594 l 33 594 l 41 656 q 57 689 43 674 q 94 703 70 703 l 623 703 l 616 645 z "},"υ":{"ha":717,"x_min":51,"x_max":657,"o":"m 653 708 q 655 666 654 690 q 656 619 655 642 q 657 574 656 595 q 657 538 657 553 q 642 355 657 435 q 602 213 628 274 q 541 109 576 152 q 466 40 506 67 q 381 1 426 13 q 292 -11 337 -11 q 181 8 228 -11 q 104 61 134 26 q 63 145 74 96 q 58 257 51 195 l 113 708 l 258 708 l 202 257 q 203 192 197 220 q 225 143 210 163 q 263 113 240 124 q 316 103 286 103 q 384 120 349 103 q 448 179 419 138 q 495 291 476 221 q 513 467 513 361 q 513 512 513 488 q 511 561 512 536 q 510 612 510 587 q 509 660 509 638 q 514 682 509 673 q 525 697 518 691 q 539 706 531 703 q 554 708 547 708 l 653 708 z "},"φ":{"ha":981,"x_min":37,"x_max":928,"o":"m 515 98 q 629 124 579 99 q 714 193 679 149 q 767 295 749 237 q 785 422 785 353 q 777 499 785 464 q 753 559 769 534 q 716 598 738 584 q 665 611 694 611 q 598 582 625 611 q 563 488 570 552 l 515 98 m 428 488 q 455 590 435 547 q 506 663 475 634 q 580 706 538 692 q 673 719 622 719 q 780 697 732 719 q 860 634 827 674 q 911 541 893 594 q 928 424 928 487 q 914 303 928 360 q 873 198 899 246 q 808 112 846 150 q 722 47 769 74 q 619 5 674 19 q 501 -10 563 -10 l 474 -235 l 339 -235 l 367 -10 q 229 15 290 -9 q 125 82 168 40 q 60 183 83 124 q 37 310 37 241 q 57 444 37 382 q 115 559 78 507 q 203 650 151 610 q 317 715 255 689 l 349 656 q 353 639 353 648 q 350 622 353 630 q 341 607 347 614 q 328 597 335 601 q 219 484 258 558 q 181 315 181 410 q 193 230 181 269 q 232 161 206 190 q 294 116 257 133 q 380 98 331 99 l 428 488 z "},"χ":{"ha":626,"x_min":-65,"x_max":648,"o":"m 461 -67 q 488 -122 471 -104 q 542 -140 505 -140 l 566 -140 l 559 -197 q 553 -222 557 -212 q 543 -237 550 -232 q 524 -245 535 -243 q 497 -247 513 -247 q 442 -242 467 -247 q 395 -221 417 -236 q 357 -179 374 -206 q 329 -109 340 -152 l 260 143 q 248 105 255 123 q 235 72 242 86 l 83 -206 q 67 -226 78 -217 q 38 -234 56 -234 l -65 -234 l 213 263 l 138 536 q 124 571 131 557 q 106 593 117 585 q 81 605 96 601 q 45 609 67 609 l 22 609 l 28 663 q 31 683 30 674 q 39 700 33 693 q 57 712 44 708 q 92 716 69 716 q 154 709 126 716 q 203 688 182 703 q 240 650 224 674 q 265 591 256 626 l 333 344 q 345 383 338 364 q 358 416 351 401 l 500 680 q 516 700 506 691 q 545 708 527 708 l 648 708 l 380 228 l 461 -67 z "},"ψ":{"ha":1003,"x_min":56,"x_max":944,"o":"m 939 708 q 941 666 940 690 q 942 619 942 642 q 943 574 943 596 q 944 538 944 553 q 928 357 944 436 q 884 219 913 278 q 817 119 856 160 q 731 52 778 78 q 631 12 684 26 q 522 -7 578 -2 l 494 -235 l 351 -235 l 378 -8 q 224 25 288 -1 q 122 96 160 52 q 69 201 83 140 q 65 338 56 263 l 110 708 l 210 708 q 239 691 228 708 q 247 652 250 674 l 208 338 q 245 180 197 238 q 393 108 294 123 l 503 1000 l 646 1000 l 536 107 q 643 134 595 113 q 726 197 692 155 q 778 307 760 239 q 797 474 797 374 q 795 526 797 501 q 792 573 794 551 q 790 617 790 596 q 790 660 789 639 q 807 697 793 686 q 836 708 821 708 l 939 708 z "},"ω":{"ha":1011,"x_min":40,"x_max":953,"o":"m 907 708 q 926 643 917 678 q 940 570 934 608 q 950 497 947 533 q 953 426 953 460 q 930 247 953 328 q 865 109 906 166 q 768 20 824 51 q 647 -11 712 -11 q 577 -1 607 -11 q 525 27 547 9 q 490 69 503 44 q 467 122 476 93 q 432 69 452 93 q 385 27 411 44 q 328 -1 360 9 q 258 -11 296 -11 q 167 11 207 -11 q 98 73 126 33 q 55 168 70 113 q 40 290 40 223 q 50 402 40 347 q 78 508 60 456 q 120 610 96 560 q 172 708 144 660 l 266 708 q 286 705 276 708 q 301 693 296 701 q 306 672 307 685 q 292 640 304 659 q 252 575 272 610 q 219 498 233 540 q 195 407 204 456 q 186 300 186 358 q 195 206 186 244 q 218 145 204 168 q 251 113 233 122 q 287 103 269 103 q 333 115 313 103 q 369 150 353 128 q 397 205 385 173 q 415 275 408 236 l 439 475 l 583 475 l 560 296 l 561 296 q 557 217 556 253 q 569 157 559 182 q 597 117 578 131 q 642 103 615 103 q 697 117 668 103 q 751 165 726 131 q 791 256 775 199 q 807 398 807 313 q 802 469 807 433 q 791 539 798 506 q 776 600 784 572 q 763 644 769 628 q 760 674 757 662 q 770 694 763 686 q 787 705 778 701 q 804 708 797 708 l 907 708 z "},"΄":{"ha":511,"x_min":303,"x_max":488,"o":"m 303 796 l 372 1044 l 456 1044 q 482 1030 476 1044 q 478 994 488 1017 l 384 796 l 303 796 z "},"΅":{"ha":511,"x_min":147,"x_max":619,"o":"m 303 800 l 370 1049 l 455 1049 q 481 1035 475 1049 q 476 998 486 1021 l 383 800 l 303 800 m 617 896 q 609 868 616 881 q 592 845 602 855 q 568 830 581 835 q 542 824 556 824 q 517 830 528 824 q 498 845 506 835 q 486 868 490 855 q 484 896 483 881 q 492 924 485 911 q 509 948 499 938 q 532 964 519 958 q 558 969 544 969 q 584 964 572 969 q 603 948 595 958 q 616 924 612 938 q 617 896 619 911 m 282 896 q 274 868 281 881 q 256 845 267 855 q 233 830 246 835 q 206 824 220 824 q 182 830 193 824 q 163 845 170 835 q 151 868 155 855 q 149 896 147 881 q 157 924 151 911 q 174 948 164 938 q 197 964 184 958 q 222 969 209 969 q 248 964 236 969 q 268 948 260 958 q 280 924 276 938 q 282 896 284 911 z "},"ʹ":{"ha":282,"x_min":104,"x_max":322,"o":"m 313 1049 q 283 842 322 942 q 158 655 244 741 l 117 683 q 105 703 104 692 q 112 724 105 715 q 150 774 133 749 q 176 825 167 799 q 185 877 185 850 q 171 935 184 904 l 181 1011 q 193 1039 183 1028 q 224 1049 203 1049 l 313 1049 z "},"͵":{"ha":285,"x_min":13,"x_max":231,"o":"m 222 242 q 192 34 231 135 q 67 -153 153 -67 l 26 -124 q 14 -105 13 -116 q 21 -84 14 -93 q 59 -33 42 -58 q 85 17 76 -8 q 94 69 94 42 q 80 127 93 97 l 90 203 q 102 231 92 220 q 133 242 113 242 l 222 242 z "},"Б":{"ha":813,"x_min":60,"x_max":798,"o":"m 272 453 l 231 124 l 390 124 q 480 137 442 124 q 543 176 518 151 q 580 238 567 201 q 592 319 592 274 q 583 375 592 351 q 555 417 574 400 q 505 444 535 435 q 431 453 474 453 l 272 453 m 324 876 l 287 576 l 447 576 q 584 558 526 576 q 677 509 641 540 q 731 434 714 477 q 748 340 748 390 q 722 201 748 264 q 648 94 697 139 q 531 25 600 49 q 375 0 462 0 l 60 0 l 183 1000 l 798 1000 l 783 876 l 324 876 z "},"Г":{"ha":702,"x_min":60,"x_max":746,"o":"m 731 877 l 324 877 l 217 0 l 60 0 l 183 1000 l 746 1000 l 731 877 z "},"Ґ":{"ha":702,"x_min":60,"x_max":774,"o":"m 731 877 l 324 877 l 217 0 l 60 0 l 183 1000 l 625 1000 l 653 1224 l 774 1224 l 731 877 z "},"Д":{"ha":1027,"x_min":-67,"x_max":962,"o":"m 659 122 l 751 877 l 483 877 q 427 594 456 717 q 369 381 399 472 q 308 227 339 290 q 246 122 277 164 l 659 122 m 962 122 l 923 -195 q 905 -228 920 -215 q 868 -241 890 -241 l 774 -241 l 803 0 l 106 0 l 81 -195 q 64 -228 79 -215 q 26 -241 49 -241 l -67 -241 l -23 122 l 73 122 q 115 155 93 132 q 159 221 136 178 q 205 328 181 263 q 252 487 228 393 q 301 708 276 581 q 351 1000 326 835 l 924 1000 l 817 122 l 962 122 z "},"Ж":{"ha":1359,"x_min":-44,"x_max":1398,"o":"m 1102 606 q 1057 556 1080 576 q 1005 526 1035 537 q 1060 491 1037 514 q 1101 429 1083 468 l 1299 0 l 1195 0 q 1139 15 1161 0 q 1105 56 1116 30 l 943 395 q 909 437 929 424 q 857 450 890 450 l 756 450 l 701 0 l 553 0 l 609 450 l 509 450 q 453 437 476 450 q 409 395 430 424 l 165 56 q 120 15 147 30 q 60 0 94 0 l -44 0 l 260 429 q 315 491 286 468 q 378 526 344 514 q 334 556 352 537 q 301 606 317 576 l 103 1000 l 226 1000 q 269 988 250 1000 q 297 954 288 976 l 458 620 q 493 580 473 590 q 540 570 513 570 l 624 570 l 676 1000 l 824 1000 l 771 570 l 856 570 q 905 580 883 570 q 949 620 927 590 l 1192 954 q 1229 988 1207 976 q 1274 1000 1251 1000 l 1398 1000 l 1102 606 z "},"З":{"ha":751,"x_min":-14,"x_max":706,"o":"m 117 906 q 258 982 181 955 q 424 1010 335 1010 q 544 993 492 1010 q 633 945 597 976 q 688 872 669 914 q 706 779 706 829 q 661 628 706 693 q 532 531 616 563 q 638 447 601 501 q 676 322 676 393 q 650 193 676 253 q 576 88 624 133 q 460 16 528 42 q 308 -10 392 -10 q 209 0 256 -10 q 120 27 162 10 q 45 69 79 44 q -14 123 11 93 l 40 197 q 58 211 48 205 q 78 217 67 217 q 100 209 89 217 q 125 192 111 202 q 156 168 139 181 q 196 145 174 156 q 248 127 219 135 q 315 120 277 120 q 405 134 365 120 q 472 174 444 148 q 514 236 499 199 q 528 319 528 273 q 517 378 528 351 q 484 424 506 405 q 430 453 462 443 q 356 464 397 464 l 230 464 l 245 592 l 365 592 q 443 603 408 592 q 505 635 479 615 q 544 686 530 656 q 558 756 558 717 q 519 846 558 811 q 405 881 481 881 q 320 869 357 881 q 256 844 283 858 q 210 818 229 830 q 179 807 192 807 q 160 813 167 807 q 147 831 152 819 l 117 906 z "},"И":{"ha":990,"x_min":60,"x_max":949,"o":"m 949 1000 l 826 0 l 669 0 l 751 658 q 760 726 754 690 q 776 801 767 761 q 742 735 760 765 q 708 683 724 706 l 252 49 q 238 32 246 40 q 219 16 229 23 q 199 5 210 9 q 176 0 188 0 l 60 0 l 183 1000 l 340 1000 l 258 342 q 248 275 254 310 q 232 199 242 239 q 267 264 249 234 q 301 317 285 294 l 757 951 q 772 969 763 960 q 790 985 780 978 q 810 996 799 992 q 832 1000 821 1000 l 949 1000 z "},"К":{"ha":886,"x_min":60,"x_max":926,"o":"m 617 593 q 574 551 597 568 q 525 525 551 535 q 583 492 560 515 q 624 428 606 469 l 827 0 l 685 0 q 649 12 663 0 q 624 48 635 24 l 457 401 q 426 440 444 429 q 376 450 409 450 l 271 450 l 216 0 l 60 0 l 183 1000 l 338 1000 l 285 570 l 376 570 q 423 580 403 570 q 465 617 443 589 l 721 957 q 752 988 735 976 q 792 1000 770 1000 l 926 1000 l 617 593 z "},"Л":{"ha":953,"x_min":-51,"x_max":912,"o":"m 790 0 l 632 0 l 740 877 l 472 877 q 407 547 440 687 q 339 308 374 407 q 269 148 305 210 q 194 51 233 85 q 116 3 156 16 q 32 -10 75 -10 q -47 21 -51 -10 l -35 119 l 13 119 q 61 129 36 119 q 111 170 85 139 q 165 259 138 201 q 221 416 192 318 q 279 657 250 514 q 339 1000 308 800 l 912 1000 l 790 0 z "},"Љ":{"ha":1367,"x_min":-51,"x_max":1319,"o":"m 962 124 q 1052 137 1014 124 q 1114 176 1090 151 q 1151 238 1139 201 q 1163 319 1163 274 q 1154 375 1163 351 q 1126 417 1145 400 q 1076 444 1107 435 q 1003 453 1046 453 l 845 453 l 805 124 l 962 124 m 1018 576 q 1155 558 1098 576 q 1249 509 1213 540 q 1302 434 1285 477 q 1319 340 1319 390 q 1294 201 1319 264 q 1220 94 1268 139 q 1103 25 1172 49 q 947 0 1034 0 l 632 0 l 740 877 l 472 877 q 407 547 440 687 q 339 308 374 407 q 269 148 305 210 q 194 51 233 85 q 116 3 156 16 q 32 -10 75 -10 q -47 21 -51 -10 l -35 119 l 13 119 q 61 129 36 119 q 111 170 85 139 q 165 259 138 201 q 221 416 192 318 q 279 657 250 514 q 339 1000 308 800 l 912 1000 l 860 576 l 1018 576 z "},"Њ":{"ha":1403,"x_min":60,"x_max":1356,"o":"m 998 124 q 1088 137 1050 124 q 1150 176 1126 151 q 1187 238 1175 201 q 1199 319 1199 274 q 1190 375 1199 351 q 1162 417 1181 400 q 1113 444 1143 435 q 1039 453 1082 453 l 883 453 l 842 124 l 998 124 m 1054 576 q 1191 558 1134 576 q 1285 509 1249 540 q 1339 434 1322 477 q 1356 340 1356 390 q 1330 201 1356 264 q 1256 94 1304 139 q 1139 25 1208 49 q 983 0 1070 0 l 670 0 l 725 447 l 273 447 l 217 0 l 60 0 l 183 1000 l 341 1000 l 287 560 l 739 560 l 793 1000 l 951 1000 l 899 576 l 1054 576 z "},"Ѳ":{"ha":1041,"x_min":62,"x_max":999,"o":"m 222 435 q 240 305 222 363 q 292 206 258 247 q 374 142 326 165 q 485 120 423 120 q 609 143 552 120 q 710 209 666 166 q 785 312 755 251 q 828 449 815 373 l 222 449 l 222 435 m 838 567 q 819 696 838 638 q 767 795 801 754 q 684 858 733 835 q 574 880 635 880 q 454 858 510 880 q 355 796 399 837 q 280 698 311 756 q 235 567 249 640 l 838 567 m 593 1011 q 762 978 687 1011 q 890 885 837 944 q 970 745 942 826 q 999 569 999 664 q 981 410 999 485 q 929 270 963 334 q 847 154 895 206 q 740 66 799 102 q 613 9 681 29 q 467 -10 544 -10 q 298 23 374 -10 q 170 115 223 56 q 90 254 118 174 q 62 430 62 335 q 80 590 62 514 q 132 730 99 665 q 213 847 165 794 q 320 935 261 899 q 448 991 379 972 q 593 1011 517 1011 z "},"П":{"ha":957,"x_min":60,"x_max":916,"o":"m 793 0 l 636 0 l 743 877 l 324 877 l 217 0 l 60 0 l 183 1000 l 916 1000 l 793 0 z "},"У":{"ha":829,"x_min":68,"x_max":897,"o":"m 897 1000 l 417 134 q 368 64 393 92 q 318 20 344 36 q 265 -3 292 3 q 210 -10 238 -10 q 140 0 163 -10 q 120 33 117 10 l 131 119 l 178 119 q 214 123 197 119 q 244 136 230 126 q 273 161 259 145 q 300 201 286 176 l 352 294 l 68 1000 l 211 1000 q 242 990 231 1000 q 259 963 253 979 l 403 549 q 420 488 413 518 q 432 427 428 458 q 458 488 444 458 q 488 549 472 517 l 707 963 q 729 989 715 977 q 764 1000 744 1000 l 897 1000 z "},"Ѵ":{"ha":915,"x_min":70,"x_max":966,"o":"m 694 863 q 775 970 726 935 q 900 1005 824 1005 q 936 1003 922 1005 q 956 997 949 1001 q 965 985 963 992 q 965 965 966 977 l 954 876 l 919 876 q 828 803 862 876 l 462 0 l 320 0 l 70 1000 l 192 1000 q 225 990 213 1000 q 240 963 237 979 l 390 300 q 402 243 396 274 q 411 178 408 212 q 434 243 422 212 q 460 300 447 274 l 694 863 z "},"Ф":{"ha":1027,"x_min":55,"x_max":996,"o":"m 566 242 q 674 269 624 244 q 761 338 724 295 q 819 439 798 381 q 840 560 840 496 q 825 653 840 610 q 785 731 811 697 q 720 783 758 764 q 635 804 683 803 l 566 242 m 486 804 q 377 777 428 803 q 291 708 327 751 q 233 608 254 665 q 213 487 213 551 q 226 393 213 438 q 267 316 240 349 q 332 264 294 283 q 417 242 369 244 l 486 804 m 649 926 q 792 894 728 924 q 902 816 856 865 q 972 703 947 767 q 996 567 996 639 q 961 396 996 476 q 867 256 927 316 q 726 159 808 195 q 551 120 644 123 l 536 0 l 388 0 l 402 120 q 259 152 323 123 q 149 231 194 182 q 80 344 104 280 q 55 481 55 408 q 90 651 55 572 q 184 791 124 731 q 326 888 244 851 q 501 926 407 924 l 515 1044 l 664 1044 l 649 926 z "},"Ц":{"ha":1014,"x_min":60,"x_max":943,"o":"m 943 122 l 904 -195 q 886 -228 901 -215 q 849 -241 871 -241 l 755 -241 l 785 0 l 60 0 l 183 1000 l 340 1000 l 232 122 l 651 122 l 758 1000 l 916 1000 l 808 122 l 943 122 z "},"Џ":{"ha":957,"x_min":60,"x_max":916,"o":"m 916 1000 l 793 0 l 498 0 l 474 -195 q 456 -228 472 -215 q 419 -241 441 -241 l 325 -241 l 355 0 l 60 0 l 183 1000 l 340 1000 l 232 122 l 651 122 l 758 1000 l 916 1000 z "},"Ч":{"ha":867,"x_min":78,"x_max":825,"o":"m 825 1000 l 702 0 l 545 0 l 597 418 q 449 386 519 397 q 319 377 379 375 q 213 396 260 379 q 134 448 165 413 q 90 538 103 483 q 88 672 78 593 l 127 1000 l 285 1000 l 244 672 q 252 567 236 608 q 312 509 268 526 q 429 497 356 492 q 610 531 503 503 l 668 1000 l 825 1000 z "},"Ш":{"ha":1392,"x_min":60,"x_max":1351,"o":"m 1351 1000 l 1228 0 l 60 0 l 183 1000 l 340 1000 l 232 122 l 579 122 l 687 1000 l 844 1000 l 737 122 l 1086 122 l 1193 1000 l 1351 1000 z "},"Щ":{"ha":1449,"x_min":60,"x_max":1377,"o":"m 1377 122 l 1339 -195 q 1321 -228 1336 -215 q 1283 -241 1306 -241 l 1190 -241 l 1219 0 l 60 0 l 183 1000 l 340 1000 l 232 122 l 579 122 l 687 1000 l 844 1000 l 737 122 l 1086 122 l 1193 1000 l 1351 1000 l 1243 122 l 1377 122 z "},"Ъ":{"ha":964,"x_min":71,"x_max":917,"o":"m 560 124 q 650 137 612 124 q 712 176 688 151 q 749 238 737 201 q 761 319 761 274 q 752 375 761 351 q 724 417 743 400 q 674 444 705 435 q 600 453 644 453 l 441 453 l 401 124 l 560 124 m 616 576 q 753 558 696 576 q 847 509 810 540 q 900 434 883 477 q 917 340 917 390 q 892 201 917 264 q 818 94 866 139 q 700 25 769 49 q 544 0 631 0 l 229 0 l 337 873 l 71 873 l 87 1000 l 508 1000 l 456 576 l 616 576 z "},"Ы":{"ha":1153,"x_min":60,"x_max":1111,"o":"m 390 124 q 480 137 442 124 q 543 176 518 151 q 580 238 567 201 q 592 319 592 274 q 583 375 592 351 q 555 417 574 400 q 505 444 535 435 q 431 453 474 453 l 272 453 l 231 124 l 390 124 m 447 576 q 584 558 526 576 q 677 509 641 540 q 731 434 714 477 q 748 340 748 390 q 722 201 748 264 q 648 94 697 139 q 531 25 600 49 q 375 0 462 0 l 60 0 l 183 1000 l 338 1000 l 286 576 l 447 576 m 989 0 l 832 0 l 954 1000 l 1111 1000 l 989 0 z "},"Ь":{"ha":796,"x_min":60,"x_max":748,"o":"m 390 124 q 480 137 442 124 q 543 176 518 151 q 580 238 567 201 q 592 319 592 274 q 583 375 592 351 q 555 417 574 400 q 505 444 535 435 q 431 453 474 453 l 272 453 l 231 124 l 390 124 m 447 576 q 584 558 526 576 q 677 509 641 540 q 731 434 714 477 q 748 340 748 390 q 722 201 748 264 q 648 94 697 139 q 531 25 600 49 q 375 0 462 0 l 60 0 l 183 1000 l 338 1000 l 286 576 l 447 576 z "},"Э":{"ha":868,"x_min":-3,"x_max":823,"o":"m 102 885 q 249 977 167 943 q 431 1011 331 1011 q 595 978 522 1011 q 718 887 667 946 q 796 748 769 828 q 823 571 823 667 q 786 338 823 444 q 683 153 749 231 q 524 32 617 76 q 319 -11 431 -11 q 127 29 205 -11 q -3 140 49 69 l 67 208 q 79 216 73 214 q 91 218 85 218 q 116 206 106 218 q 157 168 136 184 q 202 143 178 153 q 255 128 226 133 q 320 123 284 123 q 433 145 378 123 q 531 208 487 167 q 607 311 575 250 q 653 449 639 372 l 210 449 l 225 567 l 663 567 q 645 695 663 638 q 595 793 628 753 q 517 855 563 833 q 414 877 471 877 q 319 864 358 877 q 252 836 280 851 q 206 809 224 822 q 174 796 187 796 q 155 801 161 796 q 144 814 148 806 l 102 885 z "},"Є":{"ha":867,"x_min":63,"x_max":878,"o":"m 800 141 q 648 29 735 69 q 448 -11 561 -11 q 285 21 357 -11 q 164 111 214 53 q 89 249 115 169 q 63 424 63 329 q 102 661 63 553 q 211 847 142 769 q 376 968 281 924 q 582 1011 472 1011 q 756 976 682 1011 q 878 883 830 940 l 817 810 q 803 797 811 802 q 783 791 795 791 q 764 797 774 791 q 743 813 755 803 q 717 833 732 822 q 680 853 701 844 q 631 869 659 863 q 565 875 603 875 q 452 854 506 875 q 355 794 399 833 q 281 697 312 754 q 235 567 250 640 l 677 567 l 663 449 l 223 449 l 223 438 q 242 306 223 365 q 294 207 260 248 q 373 145 327 167 q 474 124 419 124 q 540 128 510 124 q 596 143 569 133 q 648 169 623 153 q 697 208 672 185 q 723 219 709 217 q 747 209 736 222 l 800 141 l 800 141 z "},"Ю":{"ha":1386,"x_min":60,"x_max":1341,"o":"m 858 121 q 991 153 931 121 q 1092 244 1050 185 q 1158 387 1135 303 q 1181 574 1181 470 q 1166 699 1181 643 q 1121 796 1151 756 q 1049 858 1092 836 q 951 880 1006 880 q 819 847 878 880 q 717 755 759 815 q 651 612 674 696 q 628 426 628 528 q 643 300 628 356 q 688 204 658 244 q 760 142 717 164 q 858 121 803 121 m 481 560 q 542 743 499 660 q 648 885 585 826 q 792 978 711 945 q 967 1011 874 1011 q 1125 978 1056 1011 q 1242 887 1194 945 q 1316 750 1290 829 q 1341 576 1341 670 q 1304 342 1341 449 q 1201 156 1267 234 q 1043 34 1135 78 q 842 -10 951 -10 q 685 22 754 -10 q 567 113 615 55 q 494 250 519 170 q 469 424 469 330 l 469 438 l 271 438 l 217 0 l 60 0 l 183 1000 l 340 1000 l 286 560 l 481 560 z "},"Я":{"ha":869,"x_min":-56,"x_max":828,"o":"m 616 547 l 656 876 l 493 876 q 341 824 390 876 q 292 682 292 773 q 301 626 292 651 q 329 583 310 601 q 378 556 348 565 q 452 547 409 547 l 616 547 m 706 0 l 549 0 l 601 423 l 497 423 q 466 420 481 423 q 437 409 451 417 q 407 386 422 401 q 377 351 392 372 l 166 56 q 122 15 148 30 q 62 0 96 0 l -56 0 l 208 359 q 259 415 233 392 q 317 451 285 437 q 238 484 272 463 q 181 535 203 506 q 148 599 158 564 q 137 676 137 635 q 163 807 137 747 q 236 909 188 867 q 353 976 284 952 q 508 1000 422 1000 l 828 1000 l 706 0 z "},"Ђ":{"ha":971,"x_min":76,"x_max":926,"o":"m 624 576 q 761 558 703 576 q 855 509 818 540 q 909 434 892 477 q 926 340 926 390 q 900 201 926 264 q 826 94 874 139 q 709 25 778 49 q 553 0 640 0 l 495 0 l 510 124 l 567 124 q 658 137 619 124 q 720 176 696 151 q 757 238 745 201 q 769 319 769 274 q 760 375 769 351 q 732 417 751 400 q 683 444 713 435 q 609 453 652 453 l 428 453 l 372 0 l 216 0 l 323 874 l 76 874 l 90 1000 l 769 1000 l 753 874 l 479 874 l 443 576 l 624 576 z "},"Ћ":{"ha":972,"x_min":76,"x_max":915,"o":"m 442 573 q 584 603 518 593 q 705 611 651 614 q 802 592 760 609 q 870 540 844 575 q 906 450 896 505 q 906 317 915 395 l 867 -1 l 710 -1 l 749 317 q 747 422 757 381 q 700 480 736 463 q 598 493 664 498 q 428 460 532 488 l 372 0 l 216 0 l 323 874 l 76 874 l 91 1000 l 769 1000 l 754 874 l 480 874 l 442 573 z "},"Ѣ":{"ha":944,"x_min":72,"x_max":895,"o":"m 538 124 q 627 137 590 124 q 690 176 665 151 q 727 238 715 201 q 739 319 739 274 q 730 375 739 351 q 702 417 721 400 q 652 444 683 435 q 578 453 622 453 l 419 453 l 378 124 l 538 124 m 594 576 q 731 558 674 576 q 825 509 788 540 q 878 434 861 477 q 895 340 895 390 q 869 201 895 264 q 795 94 844 139 q 678 25 747 49 q 522 0 609 0 l 207 0 l 297 735 l 72 735 l 87 852 l 312 852 l 330 1000 l 485 1000 l 467 852 l 743 852 l 729 735 l 453 735 l 433 576 l 594 576 z "},"б":{"ha":753,"x_min":66,"x_max":747,"o":"m 443 585 q 350 558 392 585 q 276 487 307 531 q 228 389 245 444 q 210 278 210 334 q 244 146 210 191 q 338 101 278 101 q 426 130 386 101 q 494 205 466 158 q 539 310 523 251 q 554 431 554 369 q 443 585 554 585 m 747 1051 l 747 975 q 735 933 747 951 q 699 910 723 915 l 504 879 q 402 850 447 870 q 325 803 358 831 q 269 742 292 776 q 231 671 247 708 q 206 593 215 633 q 192 513 197 553 q 247 586 215 553 q 317 642 278 619 q 400 679 356 666 q 494 692 445 692 q 578 677 540 692 q 643 631 616 662 q 686 554 671 601 q 702 443 702 507 q 690 331 702 387 q 655 225 678 276 q 599 132 632 175 q 525 57 567 89 q 434 8 483 26 q 329 -10 385 -10 q 225 9 274 -10 q 142 71 177 28 q 86 180 106 113 q 66 340 66 247 q 72 461 66 395 q 92 594 77 526 q 136 728 108 663 q 209 849 164 794 q 318 943 253 903 q 470 999 382 983 l 747 1051 z "},"в":{"ha":666,"x_min":33,"x_max":601,"o":"m 180 291 q 186 212 178 247 q 211 151 194 176 q 252 114 227 126 q 313 102 278 101 q 370 114 344 103 q 417 145 397 126 q 448 190 437 165 q 459 242 459 215 q 451 285 459 265 q 426 317 444 304 q 380 333 408 329 q 310 329 351 337 l 180 301 l 180 291 m 305 418 q 392 443 359 428 q 443 474 425 458 q 468 509 462 491 q 474 545 474 527 q 470 572 474 559 q 457 595 466 585 q 433 611 448 605 q 397 617 418 617 q 329 600 361 617 q 270 553 297 583 q 223 482 243 524 q 192 392 203 441 l 305 418 m 432 390 q 498 378 468 388 q 550 350 528 368 q 584 305 572 332 q 597 244 597 278 q 575 150 597 196 q 515 69 554 105 q 420 11 476 33 q 297 -10 365 -10 q 183 10 232 -10 q 101 67 134 30 q 50 155 67 103 q 33 270 33 207 q 46 385 33 329 q 83 491 59 441 q 141 582 107 540 q 218 654 176 624 q 310 701 260 684 q 415 718 360 718 q 497 706 463 718 q 555 674 532 694 q 590 628 578 654 q 601 573 601 602 q 561 469 601 518 q 432 390 520 420 z "},"г":{"ha":565,"x_min":10,"x_max":519,"o":"m 312 718 q 391 708 353 718 q 457 678 428 698 q 502 627 485 658 q 519 557 519 597 q 493 469 519 508 q 426 398 466 430 q 339 338 385 365 q 251 284 292 310 q 184 230 211 258 q 158 171 158 203 q 183 125 158 144 q 256 106 209 106 q 315 115 288 106 q 364 135 342 124 q 402 156 385 147 q 429 165 418 165 q 447 161 440 165 q 460 147 454 157 l 495 94 q 371 16 440 42 q 231 -10 301 -10 q 139 3 180 -10 q 69 39 98 16 q 26 92 41 61 q 10 159 10 123 q 38 250 10 210 q 105 325 65 291 q 193 387 146 358 q 282 442 241 415 q 349 493 322 468 q 376 547 376 519 q 356 585 376 569 q 294 601 335 601 q 242 594 266 601 q 198 578 218 587 q 162 561 178 569 q 136 553 147 553 q 123 556 130 553 q 110 572 115 560 l 78 633 q 128 668 101 653 q 186 695 156 684 q 249 712 217 706 q 312 718 281 718 z "},"ґ":{"ha":539,"x_min":-28,"x_max":599,"o":"m 599 881 l 542 604 l 399 604 q 329 574 356 604 q 290 478 302 544 l 242 205 q 172 49 224 105 q 28 -7 119 -7 q -16 -1 -3 -7 q -27 21 -28 5 l -17 106 l -3 106 q 64 132 36 106 q 101 212 91 158 l 147 473 q 179 580 158 535 q 230 653 200 624 q 299 695 260 682 q 385 708 338 708 l 438 708 l 465 819 q 492 865 473 849 q 542 881 512 881 l 599 881 z "},"д":{"ha":738,"x_min":37,"x_max":682,"o":"m 535 550 q 481 587 513 573 q 410 601 449 601 q 317 576 359 601 q 247 509 276 551 q 201 409 217 466 q 185 290 185 353 q 195 207 185 242 q 221 150 204 173 q 262 117 238 128 q 315 107 285 107 q 400 133 360 107 q 470 213 440 158 q 518 350 501 267 q 535 550 535 434 m 175 1003 q 385 1000 291 1016 q 544 930 478 983 q 646 783 610 876 q 682 547 682 689 q 651 311 682 415 q 568 136 621 208 q 446 28 516 65 q 297 -10 376 -10 q 192 9 240 -10 q 110 66 144 28 q 56 160 75 104 q 37 290 37 216 q 61 445 37 370 q 131 580 86 521 q 238 674 175 638 q 378 709 301 709 q 471 692 431 709 q 544 641 512 674 q 509 768 535 717 q 440 849 483 819 q 336 891 397 879 q 197 901 276 903 q 172 910 178 901 q 167 935 165 918 l 175 1003 z "},"ж":{"ha":1214,"x_min":-13,"x_max":1210,"o":"m 657 311 q 763 478 706 403 q 878 606 821 553 q 990 689 936 660 q 1084 718 1044 718 q 1148 707 1117 718 q 1210 669 1179 695 l 1174 606 q 1158 588 1166 592 q 1141 583 1149 583 q 1128 585 1135 583 q 1114 590 1122 588 q 1097 595 1106 592 q 1077 597 1088 597 q 1020 573 1049 597 q 968 506 991 549 q 931 400 945 462 q 917 263 917 338 q 922 189 917 219 q 936 141 926 160 q 959 115 945 123 q 992 107 973 107 q 1018 111 1006 107 q 1040 122 1030 116 q 1058 133 1050 128 q 1074 138 1067 138 q 1089 135 1081 138 q 1101 124 1097 133 l 1134 60 q 1091 27 1113 40 q 1045 6 1068 14 q 999 -6 1022 -3 q 958 -10 977 -10 q 889 3 919 -10 q 836 44 858 17 q 802 111 814 71 q 790 206 790 151 q 801 324 790 267 q 832 432 812 381 q 772 351 802 395 q 715 256 742 306 q 666 152 688 206 q 629 41 644 97 l 625 -1 l 499 -1 l 540 399 q 434 232 492 308 q 318 103 376 156 q 207 20 260 49 q 113 -10 153 -10 q 48 2 79 -10 q -13 40 17 13 l 23 102 q 39 120 31 116 q 56 125 47 125 q 68 123 62 125 q 83 118 75 121 q 99 114 90 116 q 119 111 108 111 q 177 135 148 111 q 228 202 206 158 q 266 308 251 246 q 280 446 280 369 q 275 519 280 490 q 261 567 270 549 q 238 593 251 585 q 205 601 224 601 q 178 597 190 601 q 157 586 167 592 q 138 576 147 581 q 123 571 130 571 q 108 573 115 571 q 95 584 100 576 l 63 649 q 152 703 104 688 q 239 718 199 718 q 308 705 277 718 q 361 665 339 692 q 394 598 383 638 q 406 503 406 558 q 395 385 406 442 q 365 277 385 328 q 425 360 394 315 q 483 456 456 405 q 532 562 510 507 q 569 675 555 617 l 572 709 l 698 709 l 657 311 z "},"з":{"ha":607,"x_min":-16,"x_max":556,"o":"m 72 619 q 121 659 92 640 q 184 691 150 677 q 257 712 219 704 q 337 719 296 719 q 435 706 394 719 q 503 669 476 692 q 543 616 530 646 q 556 555 556 586 q 548 505 556 530 q 522 456 540 479 q 474 415 503 433 q 403 385 445 396 q 499 332 466 372 q 532 234 532 293 q 513 147 532 190 q 455 68 494 103 q 358 11 417 33 q 222 -10 300 -10 q 94 11 153 -10 q -16 79 35 33 l 22 140 q 34 154 26 148 q 51 160 42 160 q 80 151 66 160 q 113 131 94 142 q 160 110 132 119 q 229 101 188 101 q 301 111 269 101 q 353 140 332 122 q 385 183 374 158 q 396 238 396 208 q 364 309 396 288 q 274 330 331 330 q 225 326 253 330 q 172 319 197 322 q 174 374 172 347 q 188 428 176 400 q 225 424 206 426 q 262 422 243 422 q 334 430 303 421 q 384 455 364 440 q 413 489 403 469 q 422 527 422 508 q 416 559 422 544 q 396 584 410 574 q 361 601 383 595 q 308 608 340 608 q 239 599 267 608 q 190 580 210 590 q 157 560 170 569 q 133 550 144 551 q 117 552 124 549 q 103 567 110 555 l 72 619 z "},"и":{"ha":744,"x_min":51,"x_max":692,"o":"m 692 708 l 607 0 l 533 0 q 478 53 478 0 l 485 155 q 364 31 431 72 q 226 -10 297 -10 q 147 7 182 -10 q 90 59 113 25 q 60 144 68 94 q 59 258 51 194 l 113 708 l 261 708 l 208 258 q 216 148 198 183 q 283 113 235 113 q 343 130 312 113 q 403 176 374 146 q 458 248 433 206 q 500 342 483 290 l 544 708 l 692 708 z "},"к":{"ha":687,"x_min":33,"x_max":677,"o":"m 439 581 q 481 640 463 615 q 517 680 499 665 q 558 703 535 696 q 615 710 581 710 l 677 710 l 662 632 q 650 609 658 615 q 629 601 641 604 q 603 591 617 598 q 575 565 589 585 l 485 445 q 444 400 464 416 q 392 376 424 383 q 460 346 434 369 q 503 281 487 324 l 623 0 l 538 0 q 481 13 499 0 q 450 50 462 26 l 360 259 q 329 302 351 285 q 281 319 308 319 l 214 306 l 176 0 l 33 0 l 119 708 l 263 708 l 226 404 l 275 415 q 298 420 288 417 q 317 428 308 424 q 332 440 325 433 q 347 458 339 447 l 439 581 z "},"л":{"ha":760,"x_min":-22,"x_max":709,"o":"m 176 381 q 228 531 198 469 q 303 632 258 593 q 410 690 347 672 q 560 708 472 708 l 709 708 l 622 0 l 479 0 l 552 596 l 530 596 q 451 585 485 596 q 393 549 418 574 q 350 480 368 523 q 317 374 332 438 q 264 191 292 265 q 202 73 236 117 q 128 9 169 28 q 40 -10 88 -10 q -9 -4 4 -10 q -21 17 -22 2 l -10 103 l 12 103 q 66 117 44 103 q 107 164 89 131 q 141 250 124 197 q 176 381 157 303 z "},"љ":{"ha":1091,"x_min":-22,"x_max":1045,"o":"m 650 166 q 669 115 647 135 q 738 94 692 94 q 803 113 773 94 q 857 159 834 131 q 893 224 880 188 q 907 295 907 260 q 903 330 907 313 q 891 358 900 346 q 867 378 882 371 q 831 386 853 386 q 771 369 801 386 q 716 325 741 352 q 674 264 691 298 q 653 196 658 230 l 650 166 m 676 378 q 723 425 697 404 q 775 460 748 446 q 828 483 801 475 q 881 490 856 490 q 949 478 918 490 q 1000 443 979 465 q 1033 388 1022 420 q 1045 316 1045 356 q 1017 191 1045 250 q 941 87 989 132 q 828 16 892 42 q 693 -10 765 -10 q 604 2 642 -10 q 543 40 567 15 q 511 99 520 64 q 507 177 501 133 l 558 596 l 544 596 q 463 585 499 596 q 400 549 428 574 q 352 480 372 523 q 317 374 332 438 q 264 191 292 265 q 202 73 236 117 q 128 9 169 28 q 40 -10 88 -10 q -9 -4 4 -10 q -21 17 -22 2 l -10 103 l 12 103 q 66 117 44 103 q 107 164 89 131 q 141 250 124 197 q 176 381 157 303 q 230 531 198 469 q 309 632 262 592 q 420 690 356 672 q 571 708 484 708 l 716 708 l 676 378 z "},"м":{"ha":979,"x_min":-5,"x_max":928,"o":"m 928 710 l 842 0 l 707 0 l 764 455 q 770 490 766 471 q 778 529 774 510 l 496 44 q 451 17 479 17 l 431 17 q 393 44 403 17 l 252 523 q 245 480 249 502 q 238 439 242 457 q 219 343 228 390 q 199 248 210 296 q 176 151 189 201 q 144 46 163 101 q 122 12 136 24 q 85 0 107 0 l -5 0 q 94 342 47 165 q 172 710 140 519 l 290 710 q 320 704 306 710 q 341 678 335 698 l 467 292 q 477 255 473 272 q 485 221 482 237 q 497 246 491 233 q 510 272 502 259 l 743 678 q 771 704 756 698 q 801 710 787 710 l 928 710 z "},"н":{"ha":742,"x_min":34,"x_max":691,"o":"m 691 708 l 606 0 l 458 0 l 495 316 l 221 316 l 183 0 l 34 0 l 119 708 l 268 708 l 234 425 l 508 425 l 542 708 l 691 708 z "},"њ":{"ha":1061,"x_min":34,"x_max":1016,"o":"m 621 166 q 640 115 617 135 q 709 94 663 94 q 774 113 744 94 q 828 159 805 131 q 864 224 851 188 q 878 295 878 260 q 874 330 878 313 q 862 358 871 346 q 838 378 853 371 q 801 386 824 386 q 742 369 772 386 q 687 325 712 352 q 645 264 662 298 q 624 196 628 230 l 621 166 m 647 378 q 693 425 668 404 q 745 460 719 446 q 799 483 772 475 q 851 490 826 490 q 919 478 889 490 q 971 443 950 465 q 1004 388 992 420 q 1016 316 1016 356 q 988 191 1016 250 q 911 87 960 132 q 799 16 863 42 q 664 -10 735 -10 q 575 2 613 -10 q 514 40 538 15 q 482 99 491 64 q 478 177 472 133 l 494 318 l 221 318 l 183 0 l 34 0 l 119 708 l 267 708 l 234 427 l 508 427 l 542 708 l 687 708 l 647 378 z "},"ѳ":{"ha":724,"x_min":35,"x_max":672,"o":"m 403 719 q 511 700 462 719 q 596 642 560 680 q 651 549 631 604 q 672 424 672 494 q 658 308 672 364 q 622 205 645 253 q 564 117 598 156 q 490 49 531 77 q 402 5 449 21 q 304 -10 355 -10 q 197 9 246 -10 q 111 67 147 29 q 56 160 76 105 q 35 285 35 215 q 64 456 35 376 q 143 593 93 535 q 260 686 193 652 q 403 719 327 719 m 528 406 l 528 426 q 494 567 528 521 q 391 613 459 613 q 323 597 354 613 q 266 554 292 581 q 223 489 241 526 q 193 406 204 451 l 528 406 m 180 310 q 179 297 179 303 q 179 284 179 291 q 316 97 179 97 q 385 113 353 97 q 442 158 417 129 q 487 225 468 186 q 516 310 506 265 l 180 310 z "},"п":{"ha":744,"x_min":35,"x_max":676,"o":"m 238 548 q 360 677 292 634 q 501 719 428 719 q 580 702 545 719 q 637 650 615 684 q 667 565 659 615 q 668 451 676 515 l 615 0 l 466 0 l 519 451 q 511 561 529 526 q 444 595 492 595 q 382 578 414 595 q 320 529 349 560 q 265 452 290 497 q 222 353 239 408 l 183 0 l 35 0 l 119 710 l 194 710 q 232 698 219 710 q 244 660 244 685 l 238 548 z "},"т":{"ha":1098,"x_min":34,"x_max":1036,"o":"m 34 0 l 119 710 l 194 710 q 232 698 219 710 q 244 660 244 685 l 238 560 q 347 680 288 640 q 471 719 406 719 q 575 673 539 719 q 614 540 611 627 q 728 676 665 633 q 864 719 792 719 q 995 649 954 719 q 1021 451 1036 579 l 967 0 l 821 0 l 874 451 q 877 516 878 488 q 869 561 876 543 q 848 587 862 578 q 810 595 833 595 q 755 581 783 595 q 703 538 728 566 q 656 470 678 510 q 618 378 635 430 l 574 0 l 427 0 l 481 451 q 485 516 485 488 q 477 561 484 543 q 456 587 470 578 q 419 595 442 595 q 361 580 389 595 q 308 535 333 564 q 262 464 283 506 q 224 369 240 422 l 180 0 l 34 0 z "},"ѵ":{"ha":701,"x_min":43,"x_max":713,"o":"m 477 585 q 512 652 492 626 q 553 692 531 678 q 600 711 576 706 q 651 716 625 716 q 683 714 670 716 q 702 708 695 711 q 711 701 709 705 q 713 694 713 697 l 703 615 l 684 615 q 637 602 657 615 q 603 560 617 590 l 347 0 l 217 0 l 43 708 l 162 708 q 188 700 178 708 q 201 679 199 691 l 291 258 q 300 211 297 234 q 305 165 303 188 q 338 258 320 209 l 477 585 z "},"ф":{"ha":1024,"x_min":35,"x_max":972,"o":"m 549 126 q 585 109 566 114 q 624 105 604 105 q 709 134 672 105 q 772 212 747 164 q 811 320 798 260 q 824 442 824 381 q 797 564 824 528 q 719 600 769 600 q 653 585 685 600 q 599 543 622 570 l 549 126 m 458 583 q 422 599 441 594 q 382 604 402 604 q 297 575 334 604 q 235 497 260 545 q 196 389 209 449 q 183 267 183 328 q 210 145 183 181 q 288 109 237 109 q 355 124 322 109 q 408 167 387 140 l 458 583 m 613 659 q 684 704 645 689 q 772 719 723 719 q 854 704 817 719 q 917 657 891 689 q 957 575 943 625 q 972 456 972 525 q 948 281 972 365 q 882 132 924 197 q 780 28 839 67 q 651 -10 722 -10 q 587 3 616 -10 q 538 36 558 17 l 513 -173 q 488 -221 510 -201 q 432 -241 467 -241 l 359 -241 l 394 51 q 323 5 362 21 q 234 -10 284 -10 q 152 5 189 -10 q 89 52 115 19 q 49 134 63 84 q 35 253 35 183 q 58 428 35 344 q 125 577 82 512 q 226 681 167 642 q 355 719 285 719 q 420 706 391 719 q 469 672 449 692 l 503 960 q 528 1008 507 988 q 585 1028 550 1028 l 658 1028 l 613 659 z "},"ц":{"ha":794,"x_min":51,"x_max":740,"o":"m 740 109 l 665 -197 q 649 -229 663 -217 q 618 -241 636 -241 l 529 -241 l 596 0 l 533 0 q 478 53 478 0 l 485 155 q 364 31 431 72 q 226 -10 297 -10 q 147 7 182 -10 q 90 59 113 25 q 60 144 68 94 q 59 258 51 194 l 113 708 l 261 708 l 208 258 q 216 148 198 183 q 283 113 235 113 q 343 130 312 113 q 403 176 374 146 q 458 248 433 206 q 500 342 483 290 l 544 708 l 692 708 l 620 109 l 740 109 z "},"џ":{"ha":744,"x_min":51,"x_max":692,"o":"m 692 708 l 607 0 l 533 0 q 478 53 478 0 l 485 155 q 420 75 455 108 q 347 22 385 42 l 321 -197 q 305 -229 318 -217 q 274 -241 292 -241 l 185 -241 l 213 -10 q 140 12 172 -7 q 87 65 108 31 q 59 148 67 99 q 59 258 51 197 l 113 708 l 261 708 l 208 258 q 216 148 198 183 q 283 113 235 113 q 343 130 312 113 q 403 176 374 146 q 458 248 433 206 q 500 342 483 290 l 544 708 l 692 708 z "},"ч":{"ha":676,"x_min":43,"x_max":625,"o":"m 625 708 l 540 0 l 392 0 l 429 314 q 330 237 385 264 q 210 210 275 210 q 130 227 163 210 q 77 275 97 244 q 50 350 57 306 q 49 445 43 393 l 82 708 l 231 708 l 198 445 q 198 400 195 421 q 209 365 200 380 q 234 342 218 350 q 273 333 249 333 q 326 343 300 333 q 376 370 353 352 q 417 414 399 388 q 448 472 435 440 l 476 708 l 625 708 z "},"ш":{"ha":1097,"x_min":44,"x_max":1046,"o":"m 1046 708 l 960 0 l 885 0 q 848 12 861 0 q 835 50 835 24 l 842 149 q 733 30 792 69 q 610 -10 674 -10 q 505 36 541 -10 q 465 169 469 82 q 351 33 414 76 q 217 -10 289 -10 q 85 59 126 -10 q 60 258 44 129 l 113 708 l 260 708 l 206 258 q 210 148 197 183 q 269 113 224 113 q 324 128 297 113 q 376 170 351 142 q 423 238 401 198 q 461 330 445 278 l 506 708 l 653 708 l 600 258 q 603 148 590 183 q 661 113 615 113 q 719 129 691 113 q 772 174 747 144 q 818 246 797 203 q 856 341 839 288 l 900 708 l 1046 708 z "},"щ":{"ha":1146,"x_min":44,"x_max":1090,"o":"m 1090 109 l 1015 -197 q 1000 -229 1013 -217 q 969 -241 987 -241 l 879 -241 l 945 0 l 885 0 q 848 12 861 0 q 835 50 835 24 l 842 149 q 733 30 792 69 q 610 -10 674 -10 q 505 36 541 -10 q 465 169 469 82 q 351 33 414 76 q 217 -10 289 -10 q 85 59 126 -10 q 60 258 44 129 l 113 708 l 260 708 l 206 258 q 210 148 197 183 q 269 113 224 113 q 324 128 297 113 q 376 170 351 142 q 423 238 401 198 q 461 330 445 278 l 506 708 l 653 708 l 600 258 q 603 148 590 183 q 661 113 615 113 q 719 129 691 113 q 772 174 747 144 q 818 246 797 203 q 856 341 839 288 l 900 708 l 1046 708 l 974 109 l 1090 109 z "},"ъ":{"ha":731,"x_min":35,"x_max":684,"o":"m 378 94 q 444 112 413 94 q 497 158 474 130 q 533 223 519 187 q 546 297 546 260 q 542 330 546 314 q 530 359 539 347 q 507 379 522 372 q 471 386 492 386 q 407 370 440 386 q 348 326 374 353 q 306 264 322 299 q 289 189 289 228 q 314 118 289 141 q 378 94 340 94 m 411 633 q 374 570 390 601 q 346 508 358 539 q 325 445 334 476 q 311 380 317 413 q 359 427 333 406 q 414 461 385 447 q 470 483 442 476 q 526 490 499 490 q 590 478 561 490 q 640 443 619 465 q 673 388 661 420 q 684 316 684 356 q 674 241 684 279 q 644 166 664 202 q 597 97 625 129 q 533 41 569 65 q 453 3 497 17 q 358 -10 409 -10 q 270 3 310 -10 q 203 46 231 17 q 160 119 176 75 q 145 224 145 163 q 151 313 145 268 q 172 405 158 358 q 210 499 186 451 q 269 599 234 547 l 35 599 l 42 652 q 63 692 46 676 q 109 708 80 708 l 424 708 l 411 633 z "},"ы":{"ha":917,"x_min":46,"x_max":865,"o":"m 865 708 l 780 0 l 632 0 l 717 708 l 865 708 m 194 166 q 214 115 191 135 q 283 94 237 94 q 348 113 317 94 q 401 159 378 131 q 438 224 424 188 q 451 295 451 260 q 448 330 451 313 q 435 358 444 346 q 412 378 426 371 q 375 386 397 386 q 315 369 345 386 q 260 325 285 352 q 219 264 235 298 q 198 196 202 230 l 194 166 m 220 378 q 267 425 242 404 q 319 460 292 446 q 373 483 346 475 q 425 490 400 490 q 493 478 463 490 q 545 443 524 465 q 578 388 566 420 q 590 316 590 356 q 561 191 590 250 q 485 87 533 132 q 373 16 437 42 q 238 -10 309 -10 q 149 2 186 -10 q 88 40 111 15 q 55 99 65 64 q 51 177 46 133 l 115 708 l 260 708 l 220 378 z "},"ь":{"ha":635,"x_min":46,"x_max":590,"o":"m 194 166 q 214 115 191 135 q 283 94 237 94 q 348 113 317 94 q 401 159 378 131 q 438 224 424 188 q 451 295 451 260 q 448 330 451 313 q 435 358 444 346 q 412 378 426 371 q 375 386 397 386 q 315 369 345 386 q 260 325 285 352 q 219 264 235 298 q 198 196 202 230 l 194 166 m 220 378 q 267 425 242 404 q 319 460 292 446 q 373 483 346 475 q 425 490 400 490 q 493 478 463 490 q 545 443 524 465 q 578 388 566 420 q 590 316 590 356 q 561 191 590 250 q 485 87 533 132 q 373 16 437 42 q 238 -10 309 -10 q 149 2 186 -10 q 88 40 111 15 q 55 99 65 64 q 51 177 46 133 l 115 708 l 260 708 l 220 378 z "},"э":{"ha":635,"x_min":-1,"x_max":581,"o":"m 56 632 q 111 669 83 653 q 169 696 139 685 q 232 713 199 707 q 302 719 265 719 q 422 696 369 719 q 509 633 474 674 q 563 533 544 592 q 581 403 581 475 q 553 240 581 315 q 476 108 526 164 q 359 21 427 53 q 210 -10 291 -10 q 88 15 140 -10 q -1 88 37 40 l 42 140 q 55 151 48 147 q 70 156 62 156 q 91 148 81 156 q 118 130 102 140 q 156 113 133 121 q 210 105 178 105 q 290 120 253 105 q 353 162 326 135 q 400 227 381 189 q 428 312 419 265 l 135 312 l 147 412 l 437 412 q 392 556 433 506 q 274 606 351 606 q 219 598 243 606 q 176 581 194 590 q 143 563 157 571 q 116 555 128 555 q 92 561 99 556 q 81 575 85 567 l 56 632 z "},"є":{"ha":635,"x_min":35,"x_max":607,"o":"m 573 126 q 505 61 538 87 q 439 19 472 35 q 370 -4 406 3 q 292 -10 335 -10 q 183 11 231 -10 q 102 70 135 32 q 52 163 69 109 q 35 283 35 217 q 47 395 35 340 q 83 498 60 450 q 139 587 106 547 q 213 657 172 628 q 301 702 253 686 q 403 719 349 719 q 522 694 474 719 q 607 620 570 669 l 565 568 q 552 557 559 562 q 536 553 544 553 q 516 561 526 553 q 492 578 506 569 q 458 595 478 588 q 404 603 437 603 q 336 590 369 603 q 277 551 304 576 q 229 490 250 526 q 196 412 208 455 l 479 412 l 467 312 l 180 312 q 179 299 179 306 q 179 287 179 293 q 189 212 179 246 q 217 153 199 178 q 264 116 236 129 q 328 102 292 102 q 400 115 372 102 q 448 142 428 127 q 483 169 468 157 q 513 182 497 182 q 540 168 528 182 l 573 126 l 573 126 z "},"ю":{"ha":986,"x_min":33,"x_max":934,"o":"m 603 106 q 678 133 644 106 q 736 203 712 159 q 772 306 760 248 q 785 428 785 365 q 672 603 784 603 q 596 577 630 603 q 539 507 563 551 q 502 404 515 463 q 490 281 490 346 q 603 106 490 106 m 364 410 q 409 535 379 478 q 482 633 440 592 q 576 697 524 674 q 687 719 628 719 q 785 700 740 719 q 864 643 831 681 q 915 551 897 606 q 934 428 934 497 q 907 257 934 337 q 832 118 880 177 q 722 24 785 58 q 587 -10 658 -10 q 490 9 534 -10 q 415 66 447 28 q 367 158 384 103 q 350 281 350 212 q 350 293 350 288 q 351 306 350 299 l 214 306 l 176 0 l 33 0 l 120 708 l 264 708 l 227 410 l 364 410 z "},"я":{"ha":703,"x_min":-25,"x_max":653,"o":"m 505 613 l 378 613 q 313 600 339 613 q 270 567 286 587 q 248 525 254 548 q 241 481 241 501 q 270 408 241 433 q 351 383 299 383 l 477 383 l 505 613 m 653 708 l 566 0 l 430 0 l 465 292 l 388 292 q 352 288 367 292 q 327 276 338 283 q 308 258 316 269 q 292 234 299 247 l 202 84 q 167 37 185 55 q 127 10 148 19 q 85 -3 107 0 q 39 -7 63 -7 q -11 -1 2 -7 q -24 20 -25 5 l -13 105 l 10 105 q 57 116 36 105 q 94 153 78 127 l 159 250 q 198 294 176 276 q 249 321 219 311 q 178 344 207 328 q 132 383 149 360 q 106 431 114 405 q 98 485 98 458 q 114 564 98 524 q 164 636 130 603 q 250 688 197 668 q 377 708 303 708 l 653 708 z "},"ђ":{"ha":723,"x_min":18,"x_max":654,"o":"m 241 526 q 350 623 292 588 q 475 658 408 658 q 554 641 520 658 q 610 592 588 624 q 643 514 632 560 q 654 410 654 468 q 638 249 654 329 q 592 88 622 168 q 519 -71 562 8 q 423 -228 476 -150 l 313 -183 q 402 -20 365 -97 q 463 128 440 58 q 498 262 487 198 q 508 388 508 326 q 415 544 508 544 q 366 532 391 544 q 316 498 341 520 q 268 445 292 476 q 223 376 244 415 l 176 0 l 33 0 l 126 758 l 18 758 l 32 868 l 140 868 l 159 1028 l 303 1028 l 283 868 l 493 868 l 480 758 l 269 758 l 241 526 z "},"ѣ":{"ha":742,"x_min":36,"x_max":688,"o":"m 292 166 q 312 115 289 135 q 381 94 335 94 q 446 113 415 94 q 499 159 476 131 q 536 224 522 188 q 549 295 549 260 q 546 330 549 313 q 533 358 542 346 q 510 378 524 371 q 473 386 495 386 q 413 369 443 386 q 358 325 383 352 q 317 264 333 298 q 296 196 300 230 l 292 166 m 318 378 q 365 425 340 404 q 417 460 390 446 q 471 483 444 475 q 523 490 498 490 q 591 478 560 490 q 643 443 622 465 q 676 388 664 420 q 688 316 688 356 q 659 191 688 250 q 583 87 631 132 q 471 16 535 42 q 335 -10 407 -10 q 247 2 284 -10 q 186 40 209 15 q 153 99 163 64 q 149 177 144 133 l 200 599 l 36 599 l 49 708 l 214 708 l 238 900 l 383 900 l 359 708 l 552 708 l 538 599 l 345 599 l 333 503 l 318 378 z "},"!":{"ha":360,"x_min":47,"x_max":314,"o":"m 314 1000 l 265 602 q 257 541 262 571 q 245 480 251 510 q 231 417 239 449 q 215 350 224 385 l 118 350 q 118 417 118 385 q 120 480 119 449 q 124 541 122 510 q 131 602 126 571 l 179 1000 l 314 1000 m 47 86 q 55 124 47 106 q 75 155 62 142 q 106 176 88 168 q 144 183 123 183 q 182 176 164 183 q 212 155 199 168 q 233 124 225 142 q 240 86 240 106 q 233 48 240 65 q 212 17 225 31 q 182 -3 199 4 q 144 -10 164 -10 q 106 -3 123 -10 q 75 17 88 4 q 55 48 62 31 q 47 86 47 65 z "},"?":{"ha":590,"x_min":106,"x_max":577,"o":"m 106 909 q 158 948 130 930 q 217 981 185 967 q 283 1002 248 994 q 359 1010 319 1010 q 451 995 410 1010 q 520 953 492 980 q 563 891 548 927 q 577 814 577 856 q 561 715 577 756 q 521 644 545 674 q 467 593 497 615 q 410 550 438 571 q 362 508 383 530 q 332 455 340 485 l 305 350 l 206 350 l 211 465 q 230 525 213 499 q 274 574 248 551 q 329 618 299 597 q 384 664 359 640 q 427 718 410 688 q 444 787 444 747 q 415 864 444 835 q 333 892 385 892 q 268 883 295 892 q 221 861 241 873 q 188 840 201 850 q 165 831 175 831 q 149 835 154 831 q 138 849 143 839 l 106 909 m 143 86 q 150 124 143 106 q 171 155 158 142 q 201 176 184 168 q 240 183 219 183 q 277 176 260 183 q 308 155 295 168 q 328 124 321 142 q 336 86 336 106 q 328 48 336 65 q 308 17 321 31 q 277 -3 295 4 q 240 -10 260 -10 q 201 -3 219 -10 q 171 17 184 4 q 150 48 158 31 q 143 86 143 65 z "},"‽":{"ha":650,"x_min":125,"x_max":644,"o":"m 234 183 q 272 176 254 183 q 302 155 290 168 q 323 124 315 142 q 331 86 331 106 q 323 48 331 65 q 302 17 315 31 q 272 -3 290 4 q 234 -10 254 -10 q 196 -3 213 -10 q 165 17 178 4 q 145 48 152 31 q 138 86 138 65 q 145 124 138 106 q 165 155 152 142 q 196 176 178 168 q 234 183 213 183 m 328 981 q 383 994 351 989 q 444 999 415 999 q 527 987 490 999 q 590 952 564 975 q 630 894 616 928 q 644 816 644 860 q 633 732 644 768 q 603 669 622 697 q 560 620 584 641 q 509 582 535 599 q 457 548 483 564 q 408 513 431 531 q 369 472 385 494 q 344 421 352 450 l 320 340 l 231 340 q 209 445 219 388 q 191 556 199 501 l 125 982 l 262 1016 l 300 688 q 302 664 301 679 q 305 630 303 649 q 307 589 306 611 q 310 545 308 567 q 350 592 328 572 q 395 629 372 612 q 438 663 417 647 q 475 698 459 679 q 501 740 491 717 q 510 794 510 763 q 486 858 510 835 q 420 881 461 881 q 388 878 402 881 q 368 876 374 876 q 345 882 352 876 q 338 899 338 888 l 328 981 z "},",":{"ha":319,"x_min":26,"x_max":213,"o":"m 116 1 q 79 8 96 1 q 51 28 63 15 q 32 58 39 41 q 26 97 26 76 q 51 158 26 133 q 117 183 76 183 q 159 175 141 183 q 189 151 177 166 q 207 116 201 136 q 213 74 213 97 q 204 7 213 42 q 176 -64 194 -28 q 131 -132 158 -99 q 70 -193 104 -165 l 44 -169 q 33 -147 33 -159 q 45 -124 33 -137 q 71 -93 56 -111 q 100 -51 85 -74 q 119 1 114 -28 l 116 1 z "},";":{"ha":369,"x_min":52,"x_max":299,"o":"m 142 1 q 106 8 122 1 q 77 28 89 15 q 59 58 65 41 q 52 97 52 76 q 77 158 52 133 q 144 183 102 183 q 185 175 167 183 q 216 151 203 166 q 234 116 228 136 q 240 74 240 97 q 230 7 240 42 q 202 -64 221 -28 q 157 -132 184 -99 q 97 -193 131 -165 l 70 -169 q 60 -147 60 -159 q 71 -124 60 -137 q 97 -93 83 -111 q 126 -51 112 -74 q 146 1 140 -28 l 142 1 m 106 592 q 113 630 106 613 q 133 661 120 648 q 164 682 147 674 q 202 690 181 690 q 240 682 222 690 q 270 661 258 674 q 291 630 283 648 q 299 592 299 613 q 291 554 299 572 q 270 524 283 537 q 240 503 258 510 q 202 496 222 496 q 164 503 181 496 q 133 524 147 510 q 113 554 120 537 q 106 592 106 572 z "},".":{"ha":328,"x_min":28,"x_max":222,"o":"m 28 86 q 36 124 28 106 q 56 155 43 142 q 87 176 69 168 q 125 183 104 183 q 163 176 145 183 q 193 155 181 168 q 214 124 206 142 q 222 86 222 106 q 214 48 222 65 q 193 17 206 31 q 163 -3 181 4 q 125 -10 145 -10 q 87 -3 104 -10 q 56 17 69 4 q 36 48 43 31 q 28 86 28 65 z "},"…":{"ha":1057,"x_min":28,"x_max":950,"o":"m 28 86 q 36 124 28 106 q 56 155 43 142 q 87 176 69 168 q 125 183 104 183 q 163 176 145 183 q 193 155 181 168 q 214 124 206 142 q 222 86 222 106 q 214 48 222 65 q 193 17 206 31 q 163 -3 181 4 q 125 -10 145 -10 q 87 -3 104 -10 q 56 17 69 4 q 36 48 43 31 q 28 86 28 65 m 393 86 q 400 124 393 106 q 420 155 408 142 q 451 176 433 168 q 489 183 469 183 q 527 176 509 183 q 558 155 544 168 q 578 124 571 142 q 586 86 586 106 q 578 48 586 65 q 558 17 571 31 q 527 -3 544 4 q 489 -10 509 -10 q 451 -3 469 -10 q 420 17 433 4 q 400 48 408 31 q 393 86 393 65 m 757 86 q 764 124 757 106 q 785 155 772 142 q 815 176 798 168 q 853 183 833 183 q 891 176 874 183 q 922 155 909 168 q 942 124 935 142 q 950 86 950 106 q 942 48 950 65 q 922 17 935 31 q 891 -3 909 4 q 853 -10 874 -10 q 815 -3 833 -10 q 785 17 798 4 q 764 48 772 31 q 757 86 757 65 z "},"‘":{"ha":289,"x_min":108,"x_max":308,"o":"m 134 692 q 109 794 111 743 q 125 894 108 845 q 176 988 142 943 q 259 1072 210 1033 l 299 1045 q 308 1027 308 1038 q 305 1015 308 1021 q 293 1000 301 1010 q 264 961 279 985 q 240 907 249 937 q 231 841 231 876 q 249 767 231 806 q 248 744 254 755 q 226 727 241 733 l 134 692 z "},"’":{"ha":290,"x_min":95,"x_max":296,"o":"m 269 1052 q 294 950 292 1001 q 279 851 296 899 q 227 757 262 802 q 144 673 193 712 l 104 699 q 95 717 95 706 q 99 729 95 724 q 110 744 102 735 q 139 784 124 760 q 164 838 154 808 q 173 903 173 868 q 155 977 172 938 q 156 1001 149 990 q 178 1017 163 1012 l 269 1052 z "},"“":{"ha":493,"x_min":108,"x_max":512,"o":"m 134 692 q 109 794 111 743 q 125 894 108 845 q 176 988 142 943 q 259 1072 210 1033 l 299 1045 q 308 1027 308 1038 q 305 1015 308 1021 q 293 1000 301 1010 q 264 961 279 985 q 240 907 249 937 q 231 841 231 876 q 249 767 231 806 q 248 744 254 755 q 226 727 241 733 l 134 692 m 338 692 q 313 794 315 743 q 328 894 311 845 q 379 988 345 943 q 463 1072 413 1033 l 503 1045 q 512 1027 512 1038 q 508 1015 512 1021 q 497 1000 505 1010 q 468 961 483 985 q 443 907 453 937 q 434 841 434 876 q 452 767 435 806 q 451 744 458 755 q 429 727 444 733 l 338 692 z "},"”":{"ha":494,"x_min":95,"x_max":499,"o":"m 269 1052 q 294 950 292 1001 q 279 851 296 899 q 227 757 262 802 q 144 673 193 712 l 104 699 q 95 717 95 706 q 99 729 95 724 q 110 744 102 735 q 139 784 124 760 q 164 838 154 808 q 173 903 173 868 q 155 977 172 938 q 156 1001 149 990 q 178 1017 163 1012 l 269 1052 m 473 1052 q 498 950 496 1001 q 482 851 499 899 q 431 757 465 802 q 348 673 397 712 l 308 699 q 299 717 299 706 q 302 729 299 724 q 314 744 306 735 q 342 784 327 760 q 367 838 358 808 q 376 903 376 868 q 358 977 376 938 q 359 1001 353 990 q 381 1017 366 1012 l 473 1052 z "},"‚":{"ha":285,"x_min":-25,"x_max":176,"o":"m 149 183 q 174 81 172 132 q 159 -19 176 30 q 107 -112 142 -67 q 24 -197 73 -158 l -16 -170 q -25 -152 -25 -163 q -22 -140 -25 -146 q -10 -125 -18 -135 q 19 -86 3 -110 q 43 -32 34 -62 q 52 34 53 -1 q 35 108 52 69 q 36 131 29 120 q 58 148 42 142 l 149 183 z "},"„":{"ha":488,"x_min":-25,"x_max":379,"o":"m 149 183 q 174 81 172 132 q 159 -19 176 30 q 107 -112 142 -67 q 24 -197 73 -158 l -16 -170 q -25 -152 -25 -163 q -22 -140 -25 -146 q -10 -125 -18 -135 q 19 -86 3 -110 q 43 -32 34 -62 q 52 34 53 -1 q 35 108 52 69 q 36 131 29 120 q 58 148 42 142 l 149 183 m 353 183 q 377 81 376 132 q 362 -19 379 30 q 311 -112 345 -67 q 228 -197 276 -158 l 188 -170 q 178 -152 178 -163 q 182 -140 178 -146 q 194 -125 185 -135 q 222 -86 207 -110 q 247 -32 238 -62 q 256 34 256 -1 q 238 108 256 69 q 239 131 233 120 q 261 148 246 142 l 353 183 z "},"‹":{"ha":365,"x_min":51,"x_max":314,"o":"m 188 397 q 176 382 182 388 q 164 370 169 375 q 181 344 173 361 l 251 170 q 255 136 260 151 q 231 110 249 120 l 181 88 l 51 361 l 54 380 l 250 651 l 294 629 q 313 605 311 621 q 301 571 314 589 l 188 397 z "},"›":{"ha":364,"x_min":38,"x_max":299,"o":"m 299 380 l 297 361 l 102 88 l 58 110 q 39 136 40 120 q 50 170 38 151 l 165 344 q 188 370 176 361 q 171 397 178 379 l 99 571 q 97 605 91 589 q 122 629 102 621 l 171 651 l 299 380 z "},"«":{"ha":565,"x_min":51,"x_max":514,"o":"m 188 397 q 176 382 182 388 q 164 370 169 375 q 181 344 173 361 l 251 170 q 255 136 260 151 q 231 110 249 120 l 181 88 l 51 361 l 54 380 l 250 651 l 294 629 q 313 605 311 621 q 301 571 314 589 l 188 397 m 388 397 q 376 382 382 388 q 364 370 369 375 q 381 344 373 361 l 451 170 q 455 136 460 151 q 431 110 449 120 l 381 88 l 251 361 l 254 380 l 450 651 l 494 629 q 513 605 511 621 q 501 571 514 589 l 388 397 z "},"»":{"ha":564,"x_min":38,"x_max":499,"o":"m 299 380 l 297 361 l 102 88 l 58 110 q 39 136 40 120 q 50 170 38 151 l 165 344 q 188 370 176 361 q 171 397 178 379 l 99 571 q 97 605 91 589 q 122 629 102 621 l 171 651 l 299 380 m 499 380 l 497 361 l 302 88 l 258 110 q 239 136 240 120 q 250 170 238 151 l 365 344 q 388 370 376 361 q 371 397 378 379 l 299 571 q 297 605 291 589 q 322 629 302 621 l 371 651 l 499 380 z "},"/":{"ha":589,"x_min":-18,"x_max":618,"o":"m 126 -10 q 89 -51 113 -37 q 43 -65 65 -65 l -18 -65 l 477 957 q 510 995 490 981 q 558 1009 531 1009 l 618 1009 l 126 -10 z "},"|":{"ha":367,"x_min":125,"x_max":240,"o":"m 125 1070 l 240 1070 l 240 -235 l 125 -235 l 125 1070 z "},"¦":{"ha":366,"x_min":124,"x_max":240,"o":"m 124 1070 l 240 1070 l 240 513 l 124 513 l 124 1070 m 124 322 l 240 322 l 240 -235 l 124 -235 l 124 322 z "},"\\":{"ha":584,"x_min":112,"x_max":484,"o":"m 112 1009 l 172 1009 q 216 995 199 1009 q 240 957 234 981 l 484 -65 l 424 -65 q 381 -51 401 -65 q 353 -10 360 -37 l 112 1009 z "},"-":{"ha":485,"x_min":71,"x_max":412,"o":"m 85 478 l 412 478 l 397 357 l 71 357 l 85 478 z "},"–":{"ha":806,"x_min":137,"x_max":665,"o":"m 149 465 l 665 465 l 652 360 l 137 360 l 149 465 z "},"—":{"ha":1022,"x_min":72,"x_max":946,"o":"m 85 465 l 946 465 l 933 360 l 72 360 l 85 465 z "},"_":{"ha":617,"x_min":-19,"x_max":497,"o":"m 497 -106 l 485 -201 l -19 -201 l -8 -106 l 497 -106 z "},"•":{"ha":806,"x_min":119,"x_max":682,"o":"m 119 413 q 142 523 119 471 q 202 613 164 574 q 291 674 240 651 q 400 696 342 696 q 510 674 458 696 q 599 613 561 651 q 660 523 638 574 q 682 413 682 471 q 660 303 682 354 q 599 214 638 252 q 510 153 561 176 q 400 131 458 131 q 291 153 342 131 q 202 214 240 176 q 142 303 164 252 q 119 413 119 354 z "},"·":{"ha":369,"x_min":65,"x_max":301,"o":"m 65 413 q 74 459 65 438 q 99 497 83 481 q 136 523 115 513 q 181 532 157 532 q 228 523 206 532 q 266 497 250 513 q 291 459 282 481 q 301 413 301 438 q 291 367 301 388 q 266 330 282 346 q 228 305 250 314 q 181 295 206 295 q 136 305 157 295 q 99 330 115 314 q 74 367 83 346 q 65 413 65 388 z "},"(":{"ha":365,"x_min":53,"x_max":395,"o":"m 178 303 q 183 200 178 254 q 196 91 188 145 q 218 -16 205 36 q 249 -113 231 -68 q 253 -135 253 -126 q 250 -151 253 -144 q 241 -162 247 -158 q 228 -172 235 -167 l 160 -210 q 111 -87 132 -151 q 78 41 91 -24 q 59 169 65 106 q 53 291 53 233 q 65 487 53 392 q 107 678 76 582 q 188 873 137 774 q 319 1083 240 973 l 378 1044 q 388 1035 383 1040 q 394 1023 392 1030 q 393 1007 395 1016 q 383 985 391 998 q 297 829 335 908 q 233 667 259 751 q 192 494 206 584 q 178 303 178 403 z "},")":{"ha":365,"x_min":-28,"x_max":315,"o":"m 189 569 q 184 673 189 618 q 171 782 180 727 q 149 888 162 836 q 119 985 135 940 q 117 1023 110 1010 q 139 1044 125 1036 l 207 1083 q 256 959 235 1023 q 289 832 276 896 q 308 704 302 767 q 315 581 315 640 q 303 385 315 480 q 261 194 291 290 q 179 -1 231 99 q 49 -210 128 -101 l -10 -172 q -20 -162 -16 -167 q -26 -151 -24 -158 q -25 -135 -28 -144 q -15 -113 -23 -126 q 70 44 33 -35 q 135 209 108 124 q 175 383 161 293 q 189 569 189 472 z "},"[":{"ha":409,"x_min":40,"x_max":449,"o":"m 442 1012 q 428 986 441 997 q 399 975 416 975 l 306 975 l 172 -112 l 267 -112 q 293 -123 283 -112 q 300 -150 302 -134 l 293 -206 l 40 -206 l 197 1069 l 449 1069 l 442 1012 z "},"]":{"ha":410,"x_min":-40,"x_max":371,"o":"m 214 -206 l -40 -206 l -32 -150 q -18 -123 -31 -134 q 10 -112 -6 -112 l 106 -112 l 239 975 l 144 975 q 118 986 127 975 q 110 1012 108 997 l 117 1069 l 371 1069 l 214 -206 z "},"{":{"ha":399,"x_min":41,"x_max":436,"o":"m 436 1069 l 429 1004 q 415 982 427 988 q 394 975 403 975 l 386 975 q 308 939 338 975 q 274 835 278 902 q 270 769 270 801 q 270 707 269 738 q 270 648 270 677 q 267 590 269 618 q 230 486 263 528 q 149 431 197 444 q 210 385 188 418 q 232 308 232 351 q 222 228 232 267 q 201 150 213 189 q 179 71 189 111 q 169 -12 169 31 q 191 -84 169 -57 q 252 -112 212 -112 l 261 -112 q 280 -119 269 -112 q 288 -142 290 -126 l 281 -206 l 246 -206 q 157 -192 194 -206 q 94 -152 119 -178 q 57 -92 69 -127 q 44 -15 44 -56 q 55 73 44 31 q 78 153 65 114 q 101 231 90 192 q 111 310 111 269 q 94 367 111 344 q 41 389 76 389 l 51 474 q 126 517 103 474 q 149 646 149 559 q 148 675 149 658 q 145 708 147 691 q 144 742 144 726 q 143 772 143 758 q 208 991 143 913 q 403 1069 273 1069 l 436 1069 z "},"}":{"ha":399,"x_min":-36,"x_max":360,"o":"m 156 1069 q 244 1055 206 1069 q 307 1015 282 1041 q 344 954 332 990 q 356 876 356 919 q 346 790 356 831 q 323 709 335 749 q 301 631 311 669 q 290 553 290 592 q 307 496 290 518 q 360 474 324 474 l 350 389 q 276 347 299 389 q 253 217 253 304 q 253 188 253 204 q 255 155 254 172 q 256 121 256 138 q 257 92 257 105 q 192 -128 257 -50 q -1 -206 128 -206 l -36 -206 l -27 -142 q -23 -128 -26 -134 q -14 -119 -19 -123 q -3 -114 -8 -115 q 7 -112 3 -112 l 15 -112 q 94 -76 64 -112 q 128 27 124 -40 q 131 93 131 61 q 132 155 132 125 q 132 215 132 185 q 135 273 132 244 q 146 330 137 303 q 171 376 156 356 q 207 410 187 396 q 252 431 228 424 q 191 477 213 443 q 169 555 169 510 q 178 634 169 595 q 200 713 188 674 q 222 792 213 752 q 232 875 232 832 q 211 948 232 920 q 149 975 190 975 l 141 975 q 131 977 137 975 q 122 982 126 978 q 115 991 117 985 q 114 1004 113 997 l 121 1069 l 156 1069 z "},"*":{"ha":549,"x_min":109,"x_max":533,"o":"m 421 838 q 395 826 408 831 q 371 820 383 822 q 394 814 383 819 q 417 801 406 810 l 513 734 l 472 675 l 375 742 q 356 756 365 749 q 342 772 348 763 q 344 724 348 751 l 328 591 l 258 591 l 275 723 q 280 749 276 737 q 288 772 283 761 q 248 742 272 756 l 136 675 l 109 735 l 221 801 q 272 820 247 817 q 248 826 260 822 q 226 838 237 831 l 129 906 l 171 966 l 267 898 q 301 866 290 883 q 297 890 298 878 q 298 915 297 901 l 315 1049 l 384 1049 l 367 917 q 353 866 365 889 q 394 898 369 884 l 507 965 l 533 905 l 421 838 z "},"†":{"ha":806,"x_min":115,"x_max":743,"o":"m 492 691 q 541 698 516 694 q 591 707 567 703 q 639 714 615 711 q 683 717 662 717 q 712 711 700 717 q 731 698 724 706 q 741 677 738 689 q 742 654 743 666 l 736 606 l 481 606 l 446 317 l 398 -229 q 361 -243 381 -239 q 321 -248 342 -248 q 249 -229 276 -248 l 334 317 l 369 606 l 115 606 l 121 654 q 127 677 122 666 q 142 698 133 689 q 165 711 151 706 q 196 717 178 717 q 239 714 216 717 q 284 707 261 711 q 332 698 308 703 q 380 691 356 694 l 401 1013 q 437 1026 417 1021 q 478 1031 456 1031 q 517 1026 499 1031 q 549 1013 535 1021 l 492 691 z "},"‡":{"ha":806,"x_min":55,"x_max":745,"o":"m 494 691 q 543 698 518 694 q 593 707 569 703 q 641 714 617 711 q 685 717 664 717 q 714 711 702 717 q 733 698 726 706 q 743 677 740 689 q 744 654 745 666 l 738 606 l 483 606 l 456 381 l 431 177 l 685 177 l 680 129 q 658 85 676 104 q 605 65 640 65 q 561 69 584 66 q 516 76 539 72 q 468 85 492 81 q 420 92 444 89 l 400 -229 q 364 -243 383 -239 q 323 -248 344 -248 q 251 -229 278 -248 l 308 92 q 259 85 284 89 q 209 76 233 81 q 161 69 185 72 q 117 65 138 66 q 69 85 83 65 q 58 129 55 104 l 64 177 l 319 177 l 344 381 l 372 606 l 117 606 l 123 654 q 130 677 124 666 q 144 698 135 689 q 167 711 153 706 q 198 717 181 717 q 241 714 218 717 q 286 707 263 711 q 334 698 310 703 q 382 691 358 694 l 403 1013 q 439 1026 419 1021 q 480 1031 458 1031 q 519 1026 501 1031 q 551 1013 538 1021 l 494 691 z "},"§":{"ha":648,"x_min":20,"x_max":618,"o":"m 199 494 q 217 444 199 465 q 264 405 235 423 q 328 371 293 388 q 397 335 363 355 q 448 380 433 353 q 463 438 463 406 q 445 491 463 469 q 400 530 428 513 q 339 563 373 547 q 272 597 306 578 q 216 552 232 576 q 199 494 199 527 m 581 872 q 549 854 567 854 q 526 862 538 854 q 498 878 514 869 q 460 895 481 888 q 407 903 438 903 q 352 894 376 903 q 312 872 328 886 q 286 838 295 857 q 278 798 278 819 q 301 748 278 769 q 359 708 324 726 q 435 670 394 689 q 511 625 476 651 q 569 565 546 599 q 592 481 592 530 q 562 367 592 419 q 467 287 532 316 q 505 235 490 265 q 519 167 519 206 q 500 68 519 114 q 444 -12 481 22 q 355 -66 408 -47 q 233 -85 301 -85 q 168 -79 199 -85 q 109 -61 137 -73 q 59 -34 82 -50 q 20 1 37 -18 l 60 56 q 100 77 74 77 q 126 68 114 77 q 154 47 138 58 q 195 27 171 36 q 258 17 219 17 q 313 26 289 17 q 355 50 338 35 q 381 86 372 65 q 390 133 390 108 q 376 179 390 159 q 340 214 363 199 q 288 243 317 230 q 229 270 259 256 q 170 301 199 284 q 118 339 141 317 q 82 390 96 361 q 68 458 68 419 q 101 570 68 521 q 203 647 134 619 q 164 700 178 669 q 149 774 149 731 q 167 864 149 821 q 219 939 185 906 q 304 991 253 972 q 418 1010 354 1010 q 535 986 484 1010 q 618 925 586 963 l 581 872 z "},"¶":{"ha":993,"x_min":77,"x_max":1017,"o":"m 1001 873 l 851 873 l 726 -142 l 595 -142 l 720 873 l 543 873 l 418 -142 l 288 -142 l 360 447 q 243 465 296 447 q 154 515 191 483 q 97 592 117 547 q 77 692 77 638 q 102 812 77 756 q 174 910 128 868 q 285 976 220 951 q 428 1000 350 1000 l 1017 1000 l 1001 873 z "},"^":{"ha":806,"x_min":135,"x_max":740,"o":"m 740 542 l 631 542 q 608 550 617 542 q 592 569 599 558 l 470 789 q 453 824 460 807 q 440 856 445 840 q 427 824 434 840 q 410 789 420 807 l 290 569 q 275 550 285 558 q 249 542 265 542 l 135 542 l 390 1000 l 485 1000 l 740 542 z "},"~":{"ha":806,"x_min":74,"x_max":731,"o":"m 522 440 q 586 466 563 440 q 610 540 610 493 l 731 540 q 717 448 731 490 q 678 377 703 407 q 615 332 652 348 q 531 315 578 315 q 459 326 494 315 q 394 349 425 336 q 334 372 363 361 q 283 382 306 382 q 218 355 241 382 q 194 281 194 328 l 74 281 q 87 373 74 332 q 126 444 101 415 q 189 490 152 474 q 274 506 226 506 q 344 495 310 506 q 410 473 379 485 q 470 450 442 460 q 522 440 498 440 z "},"'":{"ha":276,"x_min":120,"x_max":270,"o":"m 270 999 l 245 799 l 219 690 q 199 651 212 665 q 163 637 187 637 q 132 651 141 637 q 120 690 122 665 l 120 799 l 145 999 l 270 999 z "},"\"":{"ha":500,"x_min":120,"x_max":494,"o":"m 270 999 l 245 799 l 219 690 q 199 651 212 665 q 163 637 187 637 q 132 651 141 637 q 120 690 122 665 l 120 799 l 145 999 l 270 999 m 494 999 l 469 799 l 443 690 q 424 651 436 665 q 387 637 411 637 q 356 651 365 637 q 344 690 347 665 l 344 799 l 369 999 l 494 999 z "},"&":{"ha":921,"x_min":33,"x_max":867,"o":"m 318 478 q 215 379 247 436 q 182 257 182 322 q 192 193 182 222 q 222 145 203 165 q 269 115 242 126 q 330 105 297 105 q 440 129 388 105 q 536 195 492 153 l 318 478 m 867 0 l 743 0 q 713 2 725 0 q 690 9 700 4 q 672 23 680 15 q 654 42 663 31 l 604 107 q 462 20 539 52 q 299 -11 385 -11 q 190 6 239 -11 q 106 56 140 24 q 52 134 71 88 q 33 238 33 181 q 51 341 33 292 q 100 429 69 389 q 173 501 131 469 q 265 555 215 533 q 228 643 240 599 q 217 728 217 687 q 237 838 217 787 q 294 927 257 889 q 385 988 332 966 q 504 1010 438 1010 q 600 993 558 1010 q 671 946 642 976 q 715 876 700 916 q 728 792 729 837 l 643 776 q 615 777 625 772 q 601 800 606 782 q 588 837 597 819 q 567 868 580 855 q 535 890 553 882 q 491 899 516 899 q 433 886 459 899 q 389 852 408 874 q 361 801 371 831 q 351 738 351 772 q 412 585 351 667 l 626 310 q 669 401 651 353 q 696 496 687 448 q 706 519 699 510 q 728 528 713 528 l 829 528 q 785 360 817 441 q 702 212 752 280 l 867 0 z "},"@":{"ha":1069,"x_min":57,"x_max":1026,"o":"m 678 565 q 631 570 658 570 q 544 547 585 570 q 471 487 502 524 q 421 402 440 450 q 402 306 402 355 q 418 247 402 269 q 465 224 433 224 q 500 231 482 224 q 537 253 519 237 q 573 296 556 269 q 605 365 590 323 l 678 565 m 717 378 q 696 298 700 329 q 699 250 692 267 q 719 226 705 232 q 751 219 733 219 q 816 243 785 219 q 870 310 847 267 q 909 411 894 353 q 923 540 923 470 q 901 676 923 617 q 838 776 878 735 q 740 836 797 816 q 613 857 683 857 q 494 839 551 857 q 386 787 436 821 q 295 706 336 753 q 224 598 253 658 q 178 469 194 539 q 162 324 162 400 q 189 154 162 228 q 264 30 215 80 q 380 -46 313 -20 q 528 -72 447 -72 q 620 -66 577 -72 q 700 -50 663 -60 q 766 -28 736 -40 q 817 -1 795 -15 q 841 7 831 6 q 858 5 851 8 q 869 -4 865 2 q 876 -18 874 -10 l 886 -60 q 722 -137 813 -108 q 517 -167 631 -167 q 329 -133 414 -167 q 184 -36 244 -99 q 90 116 124 26 q 57 318 57 206 q 78 486 57 406 q 136 638 99 567 q 226 765 174 708 q 341 864 278 823 q 476 928 404 906 q 625 951 548 951 q 781 922 708 951 q 908 841 853 894 q 994 711 963 788 q 1026 540 1026 635 q 1001 377 1026 452 q 935 246 977 301 q 838 160 894 191 q 720 128 783 128 q 644 152 674 128 q 608 226 614 176 q 519 152 565 174 q 424 130 474 130 q 364 142 389 130 q 322 176 338 154 q 297 227 305 197 q 289 290 289 256 q 300 376 289 333 q 333 461 311 420 q 387 539 355 503 q 460 602 419 575 q 553 645 502 630 q 665 661 605 661 q 746 654 713 661 q 809 632 779 647 l 717 378 z "},"©":{"ha":1149,"x_min":74,"x_max":1094,"o":"m 751 344 q 763 341 757 344 q 772 334 769 338 l 822 281 q 724 207 783 233 q 586 181 666 181 q 461 206 517 181 q 365 273 405 230 q 304 374 326 315 q 282 502 282 433 q 306 631 282 572 q 373 733 331 690 q 473 799 415 775 q 599 822 531 822 q 730 797 676 822 q 823 733 784 772 l 784 678 q 774 668 780 673 q 758 663 767 663 q 736 670 747 663 q 709 687 726 678 q 669 703 693 696 q 607 710 645 710 q 526 696 562 710 q 466 654 490 681 q 428 589 441 627 q 415 502 415 550 q 428 413 415 452 q 465 348 441 374 q 522 307 489 321 q 594 294 555 294 q 651 299 628 294 q 691 313 674 305 q 721 329 708 321 q 751 344 735 338 m 74 500 q 92 635 74 570 q 144 758 110 701 q 224 861 177 815 q 327 941 270 908 q 449 993 383 974 q 584 1011 514 1011 q 719 993 654 1011 q 842 941 785 974 q 945 861 899 908 q 1025 758 992 815 q 1076 635 1058 701 q 1094 500 1094 570 q 1076 365 1094 430 q 1025 243 1058 299 q 945 140 992 186 q 842 60 899 93 q 719 8 785 26 q 584 -10 654 -10 q 449 8 514 -10 q 327 60 383 26 q 224 140 270 93 q 144 243 177 186 q 92 365 110 299 q 74 500 74 430 m 156 500 q 189 329 156 408 q 280 191 222 249 q 416 98 338 132 q 584 64 494 64 q 699 79 644 64 q 802 123 755 94 q 889 190 850 151 q 956 278 928 230 q 999 383 984 327 q 1015 500 1015 439 q 999 618 1015 561 q 956 723 984 674 q 889 811 928 772 q 802 880 850 851 q 699 924 755 908 q 584 940 644 940 q 469 924 524 940 q 367 880 414 908 q 281 811 319 851 q 214 723 242 772 q 171 618 186 674 q 156 500 156 561 z "},"℗":{"ha":1149,"x_min":74,"x_max":1094,"o":"m 587 497 q 653 505 627 497 q 693 528 678 513 q 713 563 708 543 q 719 608 719 583 q 713 651 719 631 q 694 684 708 670 q 658 705 681 697 q 599 713 635 713 l 517 713 l 517 497 l 587 497 m 599 812 q 710 796 663 812 q 787 753 757 781 q 832 688 817 725 q 847 608 847 651 q 832 530 847 567 q 787 464 817 492 q 709 419 756 436 q 597 403 662 403 l 517 403 l 517 191 l 387 191 l 387 812 l 599 812 m 584 64 q 699 79 644 64 q 802 123 755 94 q 889 190 850 151 q 956 278 928 230 q 999 383 984 327 q 1015 500 1015 439 q 999 618 1015 561 q 956 723 984 674 q 889 811 928 772 q 802 880 850 851 q 699 924 755 908 q 584 940 644 940 q 469 924 524 940 q 367 880 414 908 q 281 811 319 851 q 214 723 242 772 q 171 618 186 674 q 156 500 156 561 q 189 329 156 408 q 280 191 222 249 q 416 98 338 132 q 584 64 494 64 m 584 1011 q 719 993 654 1011 q 842 941 785 974 q 945 861 899 908 q 1025 758 992 815 q 1076 635 1058 701 q 1094 500 1094 570 q 1076 365 1094 430 q 1025 243 1058 299 q 945 140 992 186 q 842 60 899 93 q 719 8 785 26 q 584 -10 654 -10 q 449 8 514 -10 q 327 60 383 26 q 224 140 270 93 q 144 243 177 186 q 92 365 110 299 q 74 500 74 430 q 92 635 74 570 q 144 758 110 701 q 224 861 177 815 q 327 941 270 908 q 449 993 383 974 q 584 1011 514 1011 z "},"®":{"ha":1150,"x_min":74,"x_max":1094,"o":"m 566 519 q 628 526 603 519 q 667 545 653 533 q 688 576 682 558 q 694 619 694 595 q 689 660 694 643 q 670 689 683 678 q 635 707 657 701 q 578 713 613 713 l 496 713 l 496 519 l 566 519 m 578 812 q 763 767 703 812 q 822 636 822 723 q 788 527 822 573 q 683 461 753 481 q 707 441 697 453 q 724 413 716 428 l 866 191 l 742 191 q 703 211 714 191 l 584 406 q 569 421 578 416 q 542 426 560 426 l 496 426 l 496 191 l 366 191 l 366 812 l 578 812 m 584 64 q 699 79 644 64 q 802 123 755 94 q 889 190 850 151 q 956 278 928 230 q 999 383 984 327 q 1015 500 1015 439 q 999 618 1015 561 q 956 723 984 674 q 889 811 928 772 q 802 880 850 851 q 699 924 755 908 q 584 940 644 940 q 469 924 524 940 q 367 880 414 908 q 281 811 319 851 q 214 723 242 772 q 171 618 186 674 q 156 500 156 561 q 189 329 156 408 q 280 191 222 249 q 416 98 338 132 q 584 64 494 64 m 584 1011 q 719 993 654 1011 q 842 941 785 974 q 945 861 899 908 q 1025 758 992 815 q 1076 635 1058 701 q 1094 500 1094 570 q 1076 365 1094 430 q 1025 243 1058 299 q 945 140 992 186 q 842 60 899 93 q 719 8 785 26 q 584 -10 654 -10 q 449 8 514 -10 q 327 60 383 26 q 224 140 270 93 q 144 243 177 186 q 92 365 110 299 q 74 500 74 430 q 92 635 74 570 q 144 758 110 701 q 224 861 177 815 q 327 941 270 908 q 449 993 383 974 q 584 1011 514 1011 z "},"™":{"ha":967,"x_min":112,"x_max":941,"o":"m 428 915 l 319 915 l 279 585 l 180 585 l 219 915 l 112 915 l 123 999 l 439 999 l 428 915 m 941 999 l 891 585 l 803 585 l 832 818 l 846 878 l 715 655 q 677 633 701 633 l 663 633 q 644 639 652 633 q 632 655 635 644 l 556 874 l 555 818 l 526 585 l 439 585 l 489 999 l 575 999 q 593 997 588 999 q 606 983 599 994 l 673 787 q 679 766 676 776 q 683 745 681 756 q 693 767 688 756 q 705 787 699 777 l 822 983 q 837 997 831 994 q 856 999 843 999 l 941 999 z "},"℠":{"ha":969,"x_min":103,"x_max":944,"o":"m 132 681 q 142 690 136 687 q 154 694 148 694 q 170 688 163 694 q 187 676 177 683 q 209 664 197 669 q 242 658 222 658 q 284 674 269 658 q 298 713 298 690 q 287 738 298 729 q 259 753 276 747 q 222 766 242 759 q 185 784 202 772 q 157 815 168 796 q 146 867 146 835 q 156 921 146 895 q 186 967 167 947 q 234 998 206 986 q 297 1010 263 1010 q 363 998 333 1010 q 411 965 393 985 l 388 919 q 365 906 378 906 q 352 910 359 906 q 337 919 346 914 q 317 928 328 924 q 288 933 305 933 q 250 920 266 933 q 235 886 235 907 q 246 865 235 872 q 274 850 258 857 q 311 836 291 844 q 348 817 331 829 q 376 786 365 805 q 388 736 388 767 q 376 676 388 704 q 345 626 365 647 q 295 593 324 605 q 230 581 266 581 q 193 585 212 581 q 158 596 175 589 q 127 614 142 603 q 103 636 113 624 l 132 681 m 944 1000 l 894 585 l 806 585 l 835 819 l 849 878 l 717 656 q 681 634 705 634 l 666 634 q 647 639 655 634 q 635 656 638 644 l 559 874 l 558 819 l 529 585 l 442 585 l 492 1000 l 578 1000 q 597 997 591 1000 q 609 984 602 994 l 676 788 q 682 767 679 777 q 687 746 685 756 q 697 767 691 756 q 708 788 702 777 l 825 984 q 840 997 833 994 q 859 1000 847 1000 l 944 1000 z "},"°":{"ha":572,"x_min":94,"x_max":561,"o":"m 94 781 q 113 872 94 829 q 162 945 131 914 q 236 994 194 976 q 327 1013 278 1013 q 419 994 376 1013 q 493 945 462 976 q 543 872 525 914 q 561 781 561 829 q 543 692 561 734 q 493 619 525 651 q 419 570 462 588 q 327 551 376 551 q 236 570 278 551 q 162 619 194 588 q 113 692 131 651 q 94 781 94 734 m 198 781 q 208 730 198 753 q 235 689 217 706 q 276 661 252 672 q 327 651 299 651 q 378 661 355 651 q 419 689 401 672 q 446 730 436 706 q 456 781 456 753 q 446 832 456 808 q 419 874 436 856 q 378 902 401 892 q 327 912 355 912 q 276 902 299 912 q 235 874 252 892 q 208 832 217 856 q 198 781 198 808 z "},"¤":{"ha":806,"x_min":87,"x_max":724,"o":"m 263 467 q 274 413 263 438 q 305 368 285 387 q 350 337 324 349 q 406 326 376 326 q 462 337 435 326 q 508 368 488 349 q 538 413 527 387 q 549 467 549 438 q 538 523 549 497 q 508 569 527 549 q 462 599 488 588 q 406 610 435 610 q 350 599 376 610 q 305 569 324 588 q 274 523 285 549 q 263 467 263 497 m 649 151 l 544 256 q 479 225 514 236 q 406 215 444 215 q 334 225 368 215 q 270 253 299 235 l 164 148 l 90 224 l 194 328 q 164 394 175 359 q 153 467 153 428 q 164 539 153 505 q 192 603 174 574 l 87 708 l 162 783 l 267 679 q 332 709 297 699 q 406 720 367 720 q 477 710 443 720 q 542 681 512 699 l 647 786 l 722 710 l 617 606 q 648 541 637 576 q 658 467 658 506 q 648 395 658 430 q 619 332 638 361 l 724 226 l 649 151 z "},"€":{"ha":806,"x_min":11,"x_max":829,"o":"m 42 633 l 135 633 q 202 790 160 721 q 300 909 244 860 q 424 984 356 958 q 569 1010 492 1010 q 656 1000 617 1010 q 726 974 694 991 q 784 931 758 956 q 829 876 809 906 l 772 821 q 759 809 766 813 q 740 804 752 804 q 717 817 728 804 q 687 844 706 829 q 639 872 669 859 q 560 884 609 884 q 468 868 511 884 q 390 819 426 851 q 327 741 355 788 q 283 633 300 694 l 656 633 l 651 588 q 636 563 648 574 q 604 552 624 552 l 265 552 q 259 508 261 531 q 256 461 257 485 l 569 461 l 564 417 q 550 391 563 403 q 519 379 537 379 l 255 379 q 273 265 258 315 q 314 183 288 216 q 377 132 340 149 q 458 115 413 115 q 522 122 494 115 q 570 140 549 129 q 606 162 591 150 q 634 185 622 174 q 655 202 646 195 q 674 209 665 209 q 685 207 681 209 q 694 199 689 206 l 749 141 q 613 29 691 69 q 436 -10 535 -10 q 297 18 357 -10 q 195 97 237 46 q 131 220 153 149 q 106 379 109 292 l 11 379 l 21 461 l 108 461 q 118 552 111 508 l 33 552 l 42 633 z "},"$":{"ha":806,"x_min":21,"x_max":774,"o":"m 454 885 q 373 866 407 881 q 317 831 340 852 q 285 783 295 810 q 274 728 274 757 q 284 682 274 701 q 309 646 293 662 q 348 619 326 631 q 397 597 371 607 l 454 885 m 391 112 q 474 132 438 117 q 535 173 510 148 q 573 230 560 197 q 585 301 585 262 q 575 348 585 328 q 548 383 565 368 q 506 409 530 398 q 454 431 482 421 l 391 112 m 733 843 q 715 825 724 831 q 694 819 706 819 q 671 827 684 819 q 640 846 658 835 q 598 867 622 856 q 544 883 574 878 l 481 568 q 569 536 526 553 q 648 493 613 519 q 705 430 683 467 q 726 336 726 392 q 701 208 726 269 q 630 101 676 148 q 517 24 583 54 q 367 -10 450 -6 l 344 -124 q 330 -149 342 -137 q 301 -160 317 -160 l 247 -160 l 278 -8 q 131 36 197 2 q 21 120 65 69 l 72 186 q 90 201 80 195 q 112 206 100 206 q 141 194 126 206 q 178 166 156 182 q 229 135 199 151 q 301 113 258 119 l 369 457 q 284 488 326 470 q 209 531 242 505 q 156 597 176 558 q 136 695 136 637 q 160 810 136 754 q 228 908 183 865 q 336 978 272 951 q 479 1009 399 1006 l 497 1102 q 513 1129 500 1117 q 542 1140 525 1140 l 594 1140 l 567 1005 q 689 965 640 994 q 774 897 739 936 l 733 843 z "},"¢":{"ha":806,"x_min":78,"x_max":735,"o":"m 451 606 q 350 578 393 601 q 278 517 307 556 q 234 426 249 478 q 219 309 219 374 q 254 175 219 227 q 351 107 288 124 l 451 606 m 561 713 q 659 681 617 703 q 735 624 702 658 l 692 573 q 678 560 685 564 q 660 556 672 556 q 641 562 651 556 q 617 575 631 567 q 584 590 603 582 q 540 603 565 598 l 440 100 q 510 114 481 103 q 560 135 539 124 q 595 156 581 147 q 621 165 609 165 q 647 152 639 165 l 680 101 q 560 23 628 49 q 418 -9 492 -3 l 396 -121 q 381 -148 392 -136 q 352 -159 369 -159 l 299 -159 l 328 -7 q 227 25 273 1 q 148 89 181 49 q 96 182 115 128 q 78 302 78 236 q 105 464 78 389 q 183 594 132 538 q 307 682 233 649 q 473 718 380 715 l 496 835 q 511 861 499 849 q 540 873 524 873 l 593 873 l 561 713 z "},"£":{"ha":806,"x_min":-6,"x_max":800,"o":"m 615 459 q 600 434 613 445 q 569 422 588 422 l 290 422 l 272 264 q 249 178 265 215 q 201 113 232 142 q 248 122 225 119 q 296 124 272 124 l 740 124 l 733 63 q 725 41 731 52 q 710 21 719 30 q 689 6 701 12 q 663 0 677 0 l -6 0 l 6 92 q 50 109 31 99 q 83 134 69 119 q 106 172 97 150 q 119 225 115 194 l 143 422 l 33 422 l 40 481 q 54 506 42 494 q 85 518 67 518 l 155 518 l 176 692 q 213 816 185 758 q 287 917 241 874 q 396 985 333 960 q 537 1010 459 1010 q 639 997 595 1010 q 714 960 683 983 q 766 904 745 936 q 800 834 787 872 l 738 796 q 698 788 717 786 q 666 807 680 789 q 642 840 654 825 q 615 865 631 855 q 576 882 599 876 q 522 888 554 888 q 447 874 481 888 q 388 835 413 860 q 345 774 362 810 q 324 694 329 738 l 302 518 l 622 518 l 615 459 l 615 459 z "},"¥":{"ha":806,"x_min":70,"x_max":850,"o":"m 499 436 l 703 436 l 694 354 l 464 354 l 455 285 l 685 285 l 675 203 l 445 203 l 419 0 l 276 0 l 301 203 l 70 203 l 81 285 l 311 285 l 319 354 l 89 354 l 99 436 l 303 436 l 92 999 l 212 999 q 244 989 232 999 q 260 963 256 979 l 390 594 q 403 543 398 567 q 410 498 408 520 q 428 544 418 521 q 452 594 438 567 l 672 963 q 694 988 680 977 q 728 999 708 999 l 850 999 l 499 436 z "},"℅":{"ha":1090,"x_min":55,"x_max":1042,"o":"m 855 976 q 875 993 864 985 q 905 1000 887 1000 l 1009 1000 l 209 22 q 188 6 200 13 q 162 0 176 0 l 55 0 l 855 976 m 403 628 q 418 622 412 628 l 456 574 q 377 514 423 534 q 274 493 332 493 q 188 510 226 493 q 125 557 151 527 q 87 627 100 586 q 74 715 74 667 q 94 835 74 781 q 151 930 115 890 q 236 992 188 970 q 343 1015 285 1015 q 435 995 396 1015 q 496 947 474 976 l 452 894 q 443 885 449 889 q 429 881 438 881 q 413 887 420 881 q 397 900 406 893 q 372 913 387 907 q 331 919 356 919 q 274 906 300 919 q 228 867 247 892 q 197 806 208 842 q 186 725 186 770 q 194 667 186 692 q 216 624 202 642 q 250 597 231 606 q 292 588 269 588 q 343 594 322 588 q 385 621 363 601 q 394 626 390 624 q 403 628 399 628 m 1042 283 q 1020 168 1042 222 q 962 74 999 114 q 874 12 925 35 q 763 -11 823 -11 q 673 6 713 -11 q 605 55 633 24 q 562 127 577 85 q 547 216 547 168 q 568 332 547 278 q 627 426 590 386 q 715 488 664 465 q 826 511 766 511 q 916 493 876 511 q 984 445 956 476 q 1027 373 1012 415 q 1042 283 1042 331 m 928 279 q 899 379 928 342 q 815 415 870 415 q 750 401 779 415 q 701 362 722 388 q 670 300 681 337 q 660 219 660 264 q 689 121 660 157 q 774 85 719 85 q 839 98 810 85 q 887 137 867 112 q 918 198 907 163 q 928 279 928 234 z "},"№":{"ha":1504,"x_min":77,"x_max":1487,"o":"m 1284 915 q 1233 904 1256 915 q 1193 873 1210 893 q 1168 823 1177 852 q 1160 758 1160 794 q 1184 678 1160 708 q 1251 649 1208 649 q 1303 660 1280 649 q 1342 692 1326 672 q 1366 741 1358 712 q 1375 806 1375 770 q 1351 886 1375 856 q 1284 915 1328 915 m 1240 551 q 1160 566 1196 551 q 1100 609 1125 582 q 1063 673 1076 636 q 1049 751 1049 709 q 1068 853 1049 806 q 1120 936 1087 901 q 1198 991 1153 971 q 1297 1011 1243 1011 q 1376 995 1341 1011 q 1436 953 1411 980 q 1474 889 1460 926 q 1487 810 1487 852 q 1468 708 1487 756 q 1417 626 1449 660 q 1339 571 1384 591 q 1240 551 1293 551 m 829 1000 l 967 1000 l 844 0 l 764 0 q 734 6 746 0 q 713 28 722 13 l 302 740 q 300 703 301 721 q 297 669 299 685 l 215 0 l 77 0 l 200 1000 l 281 1000 q 298 999 291 1000 q 311 995 306 998 q 321 987 317 992 q 331 973 326 981 l 742 260 q 744 300 743 281 q 748 336 746 319 l 829 1000 m 1016 471 l 1442 471 l 1429 367 l 1003 367 l 1016 471 z "},"#":{"ha":806,"x_min":17,"x_max":813,"o":"m 521 606 l 362 606 l 294 394 l 454 394 l 521 606 m 813 710 l 793 651 q 771 616 787 627 q 724 606 756 606 l 639 606 l 572 394 l 685 394 q 716 381 708 394 q 717 335 725 368 l 703 289 l 544 289 l 453 0 l 387 0 q 368 5 376 0 q 356 18 360 10 q 350 38 351 26 q 353 61 349 49 l 426 289 l 266 289 l 192 54 q 164 12 184 24 q 121 0 144 0 l 56 0 l 148 289 l 56 289 q 25 302 34 289 q 26 348 17 316 l 39 394 l 176 394 l 243 606 l 88 606 l 106 666 q 128 700 113 689 q 176 710 144 710 l 272 710 l 347 949 q 374 986 355 973 q 416 999 392 999 l 482 999 l 390 710 l 549 710 l 640 999 l 705 999 q 739 984 727 999 q 743 947 751 969 l 667 710 l 813 710 z "},"₀":{"ha":464,"x_min":-5,"x_max":388,"o":"m 388 147 q 369 10 388 68 q 319 -86 351 -48 q 246 -144 288 -125 q 159 -162 205 -162 q 93 -150 124 -162 q 41 -111 63 -137 q 7 -45 19 -85 q -5 47 -5 -6 q 14 185 -5 126 q 63 282 32 243 q 136 339 94 320 q 223 358 177 358 q 289 345 258 358 q 341 306 319 332 q 376 240 363 280 q 388 147 388 200 m 285 159 q 279 215 285 192 q 264 250 274 237 q 241 268 254 263 q 212 274 228 274 q 171 265 191 274 q 135 230 151 256 q 109 158 119 204 q 99 38 99 112 q 104 -17 99 5 q 119 -53 110 -40 q 141 -72 128 -67 q 169 -78 154 -78 q 214 -67 192 -78 q 251 -30 235 -56 q 276 43 267 -3 q 285 159 285 89 z "},"₁":{"ha":464,"x_min":39,"x_max":328,"o":"m 328 -81 l 319 -157 l 39 -157 l 49 -81 l 148 -81 l 181 192 l 189 224 l 117 171 q 88 165 101 160 q 71 176 76 169 l 44 221 l 218 353 l 305 353 l 251 -81 l 328 -81 z "},"₂":{"ha":464,"x_min":-24,"x_max":375,"o":"m 317 -62 q 342 -71 333 -62 q 348 -94 350 -80 l 341 -157 l -24 -157 l -19 -122 q -12 -101 -17 -112 q 3 -81 -7 -90 l 172 67 q 210 103 192 85 q 241 141 228 122 q 262 180 254 160 q 269 217 269 199 q 254 259 269 244 q 213 274 238 274 q 165 259 185 274 q 134 219 146 245 q 114 200 124 206 q 82 198 103 194 l 26 208 q 56 274 37 246 q 101 321 75 302 q 159 349 127 340 q 228 358 192 358 q 291 349 264 358 q 337 322 318 339 q 365 281 356 305 q 375 228 375 257 q 364 170 375 197 q 336 120 353 144 q 295 75 318 97 q 247 31 272 53 l 132 -73 q 168 -65 150 -67 q 201 -62 185 -62 l 317 -62 z "},"₃":{"ha":464,"x_min":-11,"x_max":374,"o":"m 32 208 q 61 274 42 246 q 106 321 81 302 q 163 349 132 340 q 228 358 194 358 q 290 349 263 358 q 335 323 317 339 q 364 284 354 306 q 374 238 374 263 q 352 159 374 190 q 283 112 331 128 q 338 76 319 99 q 356 16 356 53 q 338 -62 356 -28 q 293 -118 321 -95 q 229 -151 265 -140 q 158 -162 194 -162 q 42 -130 81 -162 q -11 -26 3 -97 l 37 -7 q 70 -3 55 0 q 90 -20 85 -6 q 96 -37 92 -28 q 109 -55 101 -47 q 130 -70 117 -64 q 163 -76 142 -76 q 200 -69 183 -76 q 227 -51 216 -62 q 245 -25 239 -40 q 251 6 251 -10 q 228 53 251 38 q 149 67 205 67 l 158 140 q 245 160 219 142 q 271 218 271 178 q 256 258 271 244 q 213 272 240 272 q 164 258 183 272 q 134 220 145 244 q 115 199 124 204 q 85 198 105 194 l 32 208 z "},"₄":{"ha":464,"x_min":-27,"x_max":381,"o":"m 224 42 l 240 178 q 245 212 242 194 q 254 249 249 230 l 78 42 l 224 42 m 381 42 l 375 -19 q 367 -33 373 -27 q 351 -40 361 -40 l 301 -40 l 286 -157 l 199 -157 l 213 -40 l 6 -40 q -15 -33 -8 -40 q -24 -17 -22 -26 l -27 35 l 249 353 l 349 353 l 310 42 l 381 42 z "},"₅":{"ha":464,"x_min":-12,"x_max":371,"o":"m 371 353 l 366 310 q 348 274 363 288 q 301 260 333 260 l 173 260 l 146 167 q 235 170 197 176 q 299 147 273 165 q 338 102 324 129 q 351 41 351 74 q 334 -41 351 -4 q 288 -106 317 -78 q 219 -148 258 -133 q 133 -162 179 -162 q 48 -143 85 -162 q -12 -98 11 -124 l 24 -55 q 51 -40 35 -40 q 70 -45 61 -40 q 89 -58 78 -51 q 114 -71 99 -65 q 150 -77 128 -77 q 218 -51 192 -77 q 245 22 245 -25 q 209 82 245 66 q 99 75 172 97 l 39 92 l 114 353 l 371 353 z "},"₆":{"ha":464,"x_min":1,"x_max":367,"o":"m 174 -83 q 210 -76 193 -83 q 241 -56 228 -69 q 261 -25 254 -43 q 269 13 269 -8 q 251 65 269 47 q 198 84 233 84 q 158 77 176 84 q 128 57 140 69 q 109 27 115 44 q 102 -10 102 10 q 121 -62 102 -42 q 174 -83 140 -83 m 213 194 q 180 163 197 178 q 146 131 163 148 q 190 153 166 145 q 239 162 213 162 q 286 154 263 162 q 327 131 309 147 q 356 91 345 115 q 367 33 367 66 q 352 -43 367 -8 q 309 -105 336 -78 q 243 -147 281 -132 q 161 -162 206 -162 q 93 -151 123 -162 q 43 -118 63 -139 q 11 -68 22 -97 q 1 -5 1 -40 q 20 85 1 44 q 81 172 40 127 l 217 329 q 240 346 225 339 q 274 353 256 353 l 364 353 l 213 194 z "},"₇":{"ha":464,"x_min":18,"x_max":403,"o":"m 403 353 l 394 281 l 131 -157 l 18 -157 l 251 211 q 268 236 259 225 q 287 258 276 248 l 59 258 q 44 265 51 258 q 39 281 38 272 l 47 353 l 403 353 z "},"₈":{"ha":464,"x_min":-3,"x_max":371,"o":"m 169 -83 q 234 -59 211 -83 q 256 7 256 -35 q 237 52 256 39 q 189 66 217 66 q 156 62 172 66 q 128 47 140 58 q 110 20 117 37 q 103 -22 103 3 q 119 -65 103 -47 q 169 -83 136 -83 m 215 282 q 158 259 176 282 q 139 204 139 235 q 153 162 139 178 q 199 147 167 147 q 257 168 238 147 q 276 226 276 190 q 261 265 276 247 q 215 282 246 282 m 288 108 q 343 67 326 94 q 360 6 360 41 q 345 -63 360 -32 q 304 -116 331 -94 q 241 -150 277 -138 q 161 -162 204 -162 q 93 -153 124 -162 q 42 -126 63 -143 q 9 -84 20 -108 q -3 -28 -3 -59 q 21 56 -3 19 q 99 110 45 92 q 57 148 71 124 q 43 203 43 172 q 57 265 43 237 q 95 314 71 294 q 153 347 120 335 q 225 358 186 358 q 285 349 258 358 q 331 322 312 339 q 360 283 350 306 q 371 234 371 260 q 350 158 371 190 q 288 108 330 126 z "},"₉":{"ha":464,"x_min":19,"x_max":376,"o":"m 124 190 q 142 141 124 158 q 193 124 160 124 q 259 148 234 124 q 283 212 283 172 q 264 261 283 242 q 215 279 245 279 q 149 255 173 279 q 124 190 124 231 m 182 16 q 210 45 197 31 q 237 73 224 58 q 197 57 219 62 q 153 51 175 51 q 105 60 128 51 q 64 85 82 69 q 35 126 46 102 q 24 180 24 149 q 39 246 24 214 q 81 303 54 278 q 143 343 107 328 q 222 358 179 358 q 287 347 258 358 q 335 317 316 336 q 365 270 355 297 q 376 210 376 242 q 355 110 376 154 q 299 24 334 67 l 167 -134 q 144 -150 158 -143 q 111 -157 129 -157 l 19 -157 l 182 16 z "},"₊":{"ha":464,"x_min":13,"x_max":367,"o":"m 358 49 l 226 49 l 209 -91 l 127 -91 l 144 49 l 13 49 l 22 126 l 153 126 l 171 265 l 253 265 l 235 126 l 367 126 l 358 49 z "},"₋":{"ha":464,"x_min":26,"x_max":353,"o":"m 36 126 l 353 126 l 344 49 l 26 49 l 36 126 z "},"₌":{"ha":464,"x_min":19,"x_max":360,"o":"m 28 62 l 345 62 l 335 -14 l 19 -14 l 28 62 m 44 189 l 360 189 l 351 113 l 35 113 l 44 189 z "},"₍":{"ha":232,"x_min":-6,"x_max":193,"o":"m 83 26 q 85 -25 83 1 q 92 -78 88 -51 q 102 -131 96 -105 q 117 -178 108 -156 q 118 -203 124 -194 q 103 -217 113 -212 l 55 -246 q 9 -115 24 -185 q -6 19 -6 -45 q 1 125 -6 74 q 26 226 9 176 q 70 326 43 276 q 137 426 98 375 l 178 399 q 190 384 186 393 q 183 358 193 376 q 110 202 137 285 q 83 26 83 120 z "},"₎":{"ha":232,"x_min":-44,"x_max":155,"o":"m 66 151 q 64 201 66 174 q 57 255 62 228 q 47 307 53 281 q 32 354 40 332 q 31 380 25 371 q 46 393 36 388 l 95 421 q 122 357 110 390 q 141 291 133 324 q 151 223 148 257 q 155 158 155 189 q 148 52 155 103 q 124 -49 140 1 q 80 -149 107 -99 q 12 -251 52 -199 l -29 -222 q -41 -208 -37 -217 q -33 -183 -44 -199 q 39 -26 13 -110 q 66 151 66 57 z "},"⁄":{"ha":194,"x_min":-289,"x_max":501,"o":"m -151 44 q -187 9 -169 18 q -230 0 -206 0 l -289 0 l 358 949 q 395 986 375 973 q 442 999 415 999 l 501 999 l -151 44 z "},"⅔":{"ha":985,"x_min":67,"x_max":917,"o":"m 261 44 q 224 9 243 18 q 182 0 206 0 l 123 0 l 769 949 q 807 986 787 973 q 853 999 827 999 l 913 999 l 261 44 m 408 585 q 432 576 424 585 q 438 552 440 567 l 431 490 l 67 490 l 72 524 q 78 545 73 534 q 94 566 83 556 l 263 714 q 300 750 283 731 q 331 788 318 769 q 352 826 344 807 q 360 864 360 845 q 344 905 360 890 q 303 920 328 920 q 256 906 275 920 q 224 866 236 892 q 204 847 215 852 q 172 844 193 841 l 117 854 q 146 920 127 892 q 191 967 165 949 q 250 995 217 986 q 319 1005 282 1005 q 381 995 354 1005 q 427 968 408 985 q 456 927 446 951 q 465 875 465 903 q 455 817 465 843 q 426 767 444 790 q 385 722 408 744 q 338 678 363 700 l 222 574 q 258 582 240 579 q 291 585 276 585 l 408 585 m 575 365 q 605 431 585 403 q 649 478 624 459 q 706 506 675 497 q 772 515 737 515 q 833 506 806 515 q 878 480 860 496 q 907 441 897 463 q 917 395 917 419 q 895 316 917 347 q 826 269 874 285 q 881 233 863 256 q 899 173 899 210 q 881 95 899 128 q 836 39 864 62 q 772 6 808 17 q 701 -6 737 -6 q 585 27 624 -6 q 532 131 547 60 l 580 150 q 613 154 598 157 q 633 137 628 151 q 639 120 635 129 q 652 102 644 110 q 673 87 660 93 q 706 81 685 81 q 743 88 726 81 q 770 106 759 94 q 788 132 782 117 q 794 163 794 147 q 771 210 794 195 q 692 224 748 224 l 701 297 q 788 317 762 299 q 814 375 814 335 q 799 415 814 401 q 756 429 783 429 q 707 415 726 429 q 677 377 688 401 q 658 356 667 361 q 628 355 648 351 l 575 365 z "},"⅖":{"ha":965,"x_min":65,"x_max":912,"o":"m 260 44 q 223 9 242 18 q 181 0 204 0 l 122 0 l 768 949 q 806 986 785 973 q 852 999 826 999 l 912 999 l 260 44 m 406 585 q 431 576 422 585 q 437 552 439 567 l 430 490 l 65 490 l 70 524 q 77 545 72 534 q 92 566 82 556 l 261 714 q 299 750 281 731 q 330 788 317 769 q 351 826 343 807 q 358 864 358 845 q 343 905 358 890 q 301 920 327 920 q 254 906 274 920 q 223 866 235 892 q 202 847 213 852 q 171 844 192 841 l 115 854 q 145 920 126 892 q 190 967 164 949 q 248 995 216 986 q 317 1005 281 1005 q 380 995 353 1005 q 426 968 407 985 q 454 927 444 951 q 464 875 464 903 q 453 817 464 843 q 425 767 442 790 q 384 722 407 744 q 336 678 361 700 l 221 574 q 257 582 239 579 q 290 585 274 585 l 406 585 m 897 510 l 892 467 q 874 431 890 445 q 827 417 859 417 l 699 417 l 672 324 q 761 327 723 333 q 825 304 799 322 q 864 259 851 286 q 877 198 877 231 q 860 116 877 153 q 814 51 843 78 q 745 9 785 24 q 660 -6 706 -6 q 575 14 612 -6 q 514 59 538 33 l 550 102 q 578 117 562 117 q 596 111 588 117 q 615 99 605 106 q 640 86 626 92 q 676 80 654 80 q 745 106 718 80 q 772 179 772 132 q 735 239 772 223 q 625 232 699 254 l 565 249 l 640 510 l 897 510 z "},"+":{"ha":806,"x_min":66,"x_max":751,"o":"m 737 412 l 460 412 l 424 119 l 306 119 l 342 412 l 66 412 l 80 521 l 356 521 l 392 812 l 508 812 l 473 521 l 751 521 l 737 412 z "},"−":{"ha":806,"x_min":98,"x_max":716,"o":"m 110 521 l 716 521 l 702 412 l 98 412 l 110 521 z "},"×":{"ha":806,"x_min":59,"x_max":747,"o":"m 485 466 l 697 225 l 612 148 l 399 390 l 126 147 l 59 224 l 332 467 l 126 700 l 212 778 l 417 543 l 679 776 l 747 699 l 485 466 z "},"÷":{"ha":806,"x_min":65,"x_max":749,"o":"m 78 521 l 749 521 l 736 412 l 65 412 l 78 521 m 342 702 q 351 743 342 724 q 374 777 359 763 q 408 800 388 792 q 449 808 427 808 q 482 802 467 808 q 509 783 498 795 q 526 756 520 772 q 533 723 533 740 q 524 681 533 701 q 500 648 515 662 q 466 626 485 634 q 426 618 447 618 q 365 642 388 618 q 342 702 342 667 m 281 208 q 290 249 281 229 q 313 283 298 268 q 347 306 327 297 q 388 314 366 314 q 421 307 406 314 q 448 289 437 301 q 465 261 459 277 q 472 228 472 246 q 463 187 472 206 q 439 153 454 167 q 405 132 424 140 q 365 124 385 124 q 331 130 346 124 q 305 148 315 137 q 288 174 294 159 q 281 208 281 190 z "},"=":{"ha":806,"x_min":83,"x_max":730,"o":"m 97 403 l 701 403 l 688 294 l 83 294 l 97 403 m 126 640 l 730 640 l 717 532 l 113 532 l 126 640 z "},"≠":{"ha":806,"x_min":149,"x_max":663,"o":"m 560 802 l 663 802 l 253 125 l 149 125 l 560 802 z "},"≈":{"ha":806,"x_min":108,"x_max":704,"o":"m 569 608 q 609 613 590 608 q 647 625 629 617 q 677 640 664 632 q 697 655 690 648 l 704 563 q 632 513 675 529 q 546 497 590 497 q 474 508 509 497 q 406 533 440 519 q 341 558 373 547 q 279 569 310 569 q 237 565 258 569 q 199 552 216 560 q 168 536 181 544 q 149 519 156 527 l 137 608 q 211 662 167 644 q 302 679 254 679 q 373 668 338 679 q 441 643 408 657 q 506 619 474 630 q 569 608 538 608 m 539 367 q 580 372 560 367 q 617 384 600 376 q 648 399 635 391 q 667 414 661 408 l 674 322 q 602 273 645 289 q 516 257 560 257 q 445 268 479 257 q 377 293 410 279 q 312 317 344 306 q 249 328 280 328 q 207 324 228 328 q 169 311 187 319 q 139 295 152 304 q 119 279 126 287 l 108 367 q 181 422 138 405 q 272 439 224 439 q 344 427 309 439 q 412 402 378 416 q 477 378 445 389 q 539 367 508 367 z "},"<":{"ha":806,"x_min":112,"x_max":698,"o":"m 698 782 l 685 674 q 676 651 683 662 q 652 633 668 641 l 354 491 q 284 467 323 477 q 348 444 320 459 l 612 302 q 634 260 638 288 l 621 153 l 112 437 l 117 483 l 119 499 l 698 782 z "},">":{"ha":806,"x_min":117,"x_max":704,"o":"m 699 452 l 697 437 l 117 153 l 131 260 q 140 284 133 274 q 164 302 148 294 l 461 444 q 531 467 492 459 q 467 491 495 476 l 204 633 q 185 651 190 641 q 182 674 181 662 l 194 782 l 704 499 l 699 452 z "},"±":{"ha":806,"x_min":25,"x_max":761,"o":"m 38 165 l 708 165 l 694 56 l 25 56 l 38 165 m 761 592 l 747 483 l 470 483 l 440 237 l 323 237 l 353 483 l 78 483 l 90 592 l 367 592 l 398 847 l 515 847 l 483 592 l 761 592 z "},"≤":{"ha":806,"x_min":81,"x_max":720,"o":"m 720 831 l 708 728 q 699 704 707 715 q 669 684 690 692 l 379 560 q 342 548 361 553 q 303 538 324 542 q 374 515 341 529 l 632 389 q 657 369 651 380 q 661 345 663 358 l 649 242 l 137 507 l 142 553 l 144 568 l 720 831 m 95 168 l 640 168 l 625 56 l 81 56 l 95 168 z "},"≥":{"ha":806,"x_min":92,"x_max":700,"o":"m 107 168 l 651 168 l 637 56 l 92 56 l 107 168 m 700 568 l 698 553 l 692 507 l 116 242 l 128 345 q 138 369 130 358 q 168 389 147 380 l 457 515 q 494 528 475 522 q 534 538 513 533 q 496 548 514 542 q 463 560 478 553 l 204 684 q 179 704 184 692 q 176 728 174 715 l 188 831 l 700 568 z "},"¬":{"ha":806,"x_min":98,"x_max":715,"o":"m 702 412 l 701 412 l 677 214 l 556 214 l 580 412 l 98 412 l 110 521 l 715 521 l 702 412 z "},"℮":{"ha":1137,"x_min":76,"x_max":1091,"o":"m 892 621 q 872 740 892 685 q 812 833 851 794 q 719 893 774 872 q 595 915 664 915 q 473 893 528 915 q 377 830 417 870 q 314 733 337 789 q 292 612 292 678 l 292 597 l 892 597 l 892 621 m 292 406 q 315 285 292 343 q 382 184 338 228 q 490 114 426 140 q 633 88 553 88 q 816 127 735 88 q 959 251 897 166 l 1040 193 q 964 106 1006 144 q 867 41 921 68 q 747 1 813 15 q 601 -13 681 -13 q 383 25 480 -13 q 218 132 286 64 q 113 293 150 200 q 76 495 76 386 q 114 697 76 603 q 220 860 152 791 q 382 970 288 930 q 589 1010 476 1010 q 739 991 670 1010 q 862 938 807 972 q 959 857 917 904 q 1030 753 1001 810 q 1074 634 1059 697 q 1091 503 1089 570 l 292 503 l 292 406 z "},"ℓ":{"ha":736,"x_min":29,"x_max":735,"o":"m 29 435 q 86 447 58 440 q 142 460 114 453 q 169 602 150 533 q 217 732 189 671 q 283 845 246 793 q 363 934 319 897 q 457 992 407 971 q 560 1013 506 1013 q 638 997 605 1013 q 692 956 670 982 q 724 894 713 929 q 735 819 735 859 q 702 689 735 750 q 609 575 669 628 q 464 478 549 522 q 276 398 380 433 l 276 374 q 283 249 276 299 q 301 169 289 199 q 332 127 314 139 q 372 115 349 115 q 420 126 397 115 q 465 159 443 138 q 505 209 486 181 q 538 272 523 238 l 660 242 q 610 142 642 188 q 538 63 579 97 q 447 9 497 28 q 341 -10 397 -10 q 256 8 294 -10 q 191 70 217 27 q 149 181 164 113 q 135 350 135 250 l 135 356 q 47 335 92 344 l 29 435 m 539 898 q 461 868 500 898 q 388 785 422 838 q 327 661 353 732 q 288 508 301 590 q 417 571 358 537 q 519 644 476 606 q 585 725 561 683 q 608 811 608 767 q 590 875 608 853 q 539 898 572 898 z "},"∞":{"ha":943,"x_min":56,"x_max":884,"o":"m 760 410 q 759 465 764 442 q 742 502 753 488 q 714 525 731 517 q 678 532 697 532 q 639 523 657 532 q 602 497 620 513 q 568 458 585 480 q 533 411 551 436 q 556 364 544 386 q 582 325 568 342 q 611 299 595 309 q 649 290 628 290 q 686 297 668 290 q 720 319 705 304 q 746 357 735 334 q 760 410 756 379 m 260 290 q 300 299 281 290 q 336 325 319 308 q 372 364 354 342 q 406 411 389 386 q 383 458 395 436 q 358 497 372 480 q 328 523 344 513 q 290 532 311 532 q 252 525 271 532 q 219 502 234 517 q 193 465 203 488 q 178 410 183 442 q 180 357 175 379 q 196 319 185 334 q 224 297 208 304 q 260 290 241 290 m 699 653 q 777 636 741 653 q 837 586 813 618 q 873 509 861 554 q 877 410 884 465 q 849 312 871 356 q 794 235 826 267 q 721 186 761 203 q 639 168 681 168 q 576 179 603 168 q 526 208 549 190 q 487 250 504 226 q 456 301 470 274 q 411 250 435 274 q 362 208 388 226 q 305 179 335 190 q 239 168 274 168 q 162 186 197 168 q 102 235 127 203 q 67 312 78 267 q 62 410 56 356 q 91 509 68 465 q 145 586 113 554 q 217 636 178 618 q 299 653 257 653 q 362 643 334 653 q 412 614 390 632 q 451 572 434 596 q 483 520 468 547 q 527 572 503 547 q 576 614 550 596 q 633 643 603 632 q 699 653 663 653 z "},"∂":{"ha":751,"x_min":23,"x_max":736,"o":"m 292 108 q 363 124 328 108 q 431 177 399 141 q 491 268 463 213 q 540 400 519 323 q 530 455 538 428 q 507 502 522 481 q 469 534 492 522 q 412 547 446 547 q 325 527 364 547 q 257 472 286 507 q 210 389 228 437 q 185 284 192 341 q 204 154 175 200 q 292 108 233 108 m 265 928 q 320 963 293 947 q 376 989 347 978 q 436 1005 405 999 q 504 1010 467 1010 q 609 984 563 1010 q 685 909 656 958 q 725 789 715 860 q 725 628 736 718 q 669 368 708 486 q 573 167 631 251 q 436 36 515 83 q 260 -10 358 -10 q 157 11 203 -10 q 80 69 111 31 q 36 161 49 107 q 31 282 23 215 q 75 432 41 363 q 160 553 109 502 q 275 634 210 605 q 410 664 339 664 q 516 639 473 664 q 583 567 559 615 q 588 599 585 584 q 591 628 590 615 q 594 743 599 694 q 573 825 590 792 q 531 874 557 858 q 469 891 504 891 q 422 884 444 891 q 380 868 399 877 q 346 853 361 860 q 321 846 331 846 q 305 851 313 846 q 291 871 298 856 l 265 928 z "},"∫":{"ha":564,"x_min":-63,"x_max":633,"o":"m 258 860 q 291 983 267 932 q 349 1068 314 1035 q 430 1117 384 1101 q 530 1133 476 1133 q 582 1128 555 1133 q 633 1112 610 1124 l 624 1049 q 620 1034 623 1040 q 610 1025 617 1028 q 593 1021 603 1022 q 565 1019 582 1019 q 495 1011 524 1019 q 447 984 467 1002 q 417 936 428 965 q 401 865 406 907 l 310 33 q 278 -89 301 -37 q 220 -174 255 -141 q 139 -224 185 -208 q 39 -240 93 -240 q -13 -235 15 -240 q -63 -218 -40 -230 l -55 -155 q -50 -140 -53 -146 q -41 -132 -47 -135 q -24 -127 -35 -128 q 5 -126 -12 -126 q 74 -117 45 -126 q 122 -90 103 -108 q 153 -42 142 -72 q 169 29 164 -12 l 258 860 z "},"√":{"ha":865,"x_min":32,"x_max":952,"o":"m 952 1188 l 423 0 l 302 0 l 189 454 l 84 454 q 47 467 62 454 q 36 513 32 481 l 42 560 l 279 560 q 306 551 296 560 q 319 531 316 543 l 377 276 q 385 224 383 250 q 387 171 387 198 q 417 258 398 213 l 813 1158 q 831 1179 819 1171 q 858 1188 843 1188 l 952 1188 z "},"∏":{"ha":965,"x_min":89,"x_max":988,"o":"m 973 877 l 849 877 l 712 -236 l 564 -236 l 700 877 l 374 877 l 237 -236 l 89 -236 l 225 877 l 101 877 l 116 999 l 988 999 l 973 877 z "},"∑":{"ha":877,"x_min":-34,"x_max":889,"o":"m 874 873 l 329 873 l 611 404 l 605 360 l 208 -108 l 752 -108 l 737 -235 l -34 -235 l -28 -182 q -21 -159 -26 -171 q -6 -137 -16 -147 l 444 385 l 122 901 q 112 923 114 911 q 112 947 110 935 l 118 1000 l 889 1000 l 874 873 z "},"◊":{"ha":806,"x_min":92,"x_max":731,"o":"m 612 494 l 434 867 q 422 899 427 884 q 412 928 417 914 q 402 899 408 914 q 390 867 397 884 l 215 494 l 390 122 q 402 89 397 104 q 412 60 408 74 q 422 89 417 74 q 434 122 427 104 l 612 494 m 731 494 l 464 -72 l 360 -72 l 92 494 l 360 1060 l 464 1060 l 731 494 z "},"←":{"ha":1389,"x_min":70,"x_max":1310,"o":"m 70 448 l 472 849 l 524 797 q 536 764 540 780 q 519 733 533 747 l 349 563 q 283 503 313 527 q 368 512 323 509 q 458 515 413 515 l 1310 515 l 1310 380 l 458 380 q 367 383 412 380 q 282 391 322 385 q 314 365 297 379 q 349 332 330 350 l 520 161 q 538 130 535 147 q 525 98 541 114 l 474 44 l 70 448 z "},"→":{"ha":1389,"x_min":78,"x_max":1319,"o":"m 1319 447 l 917 45 l 865 99 q 852 131 849 115 q 870 163 856 147 l 1040 331 q 1075 364 1058 349 q 1107 391 1092 379 q 1021 383 1066 386 q 931 380 976 380 l 78 380 l 78 515 l 931 515 q 1022 512 976 515 q 1108 503 1067 509 q 1075 530 1092 515 q 1040 563 1058 545 l 869 733 q 851 765 854 748 q 864 797 848 781 l 915 851 l 1319 447 z "},"↑":{"ha":1042,"x_min":118,"x_max":923,"o":"m 923 681 l 870 629 q 838 616 854 613 q 806 634 821 619 l 637 803 q 604 838 619 822 q 577 870 589 855 q 585 784 582 829 q 588 693 588 740 l 588 -157 l 453 -157 l 453 693 q 457 785 453 740 q 465 871 460 830 q 439 839 453 856 q 406 803 424 822 l 235 633 q 204 615 220 618 q 172 628 188 613 l 118 680 l 522 1083 l 923 681 z "},"↓":{"ha":1042,"x_min":119,"x_max":924,"o":"m 924 163 l 520 -240 l 119 162 l 172 214 q 204 227 188 230 q 235 209 220 224 l 405 40 q 438 5 423 22 q 465 -27 453 -12 q 456 59 459 14 q 453 150 453 103 l 453 1000 l 588 1000 l 588 150 q 585 58 588 103 q 576 -27 582 13 q 603 5 588 -12 q 635 40 617 22 l 807 210 q 838 228 822 225 q 870 215 854 231 l 924 163 z "},"↗":{"ha":1042,"x_min":29,"x_max":953,"o":"m 953 915 l 953 347 l 879 349 q 848 363 857 349 q 838 397 838 376 l 838 636 q 839 684 838 663 q 843 726 840 706 q 789 659 818 693 q 727 592 760 625 l 124 -9 l 29 87 l 631 688 q 698 751 665 722 q 765 806 732 781 q 723 801 745 803 q 675 800 701 800 l 433 800 q 398 809 412 800 q 385 842 385 819 l 383 916 l 953 915 z "},"↖":{"ha":1042,"x_min":88,"x_max":1013,"o":"m 1013 87 l 917 -9 l 315 592 q 253 659 282 625 q 199 726 224 693 q 202 684 201 706 q 203 636 203 663 l 203 397 q 194 363 203 376 q 163 349 185 349 l 88 347 l 88 915 l 658 916 l 657 842 q 643 809 657 819 q 609 800 630 800 l 367 800 q 318 801 340 800 q 277 806 297 803 q 343 751 310 781 q 410 688 377 722 l 1013 87 z "},"↘":{"ha":1042,"x_min":29,"x_max":953,"o":"m 953 569 l 953 1 l 383 0 l 385 75 q 398 107 385 97 q 433 116 412 116 l 675 116 q 723 115 701 116 q 765 110 745 113 q 698 165 732 135 q 631 228 665 194 l 29 829 l 124 925 l 727 324 q 789 257 760 291 q 843 190 818 223 q 839 232 840 210 q 838 280 838 253 l 838 519 q 848 554 838 540 q 879 568 857 567 l 953 569 z "},"↙":{"ha":1042,"x_min":88,"x_max":1013,"o":"m 88 0 l 88 569 l 163 567 q 194 553 185 567 q 203 519 203 540 l 203 279 q 202 232 203 253 q 199 190 201 210 q 253 257 224 223 q 315 324 282 290 l 917 924 l 1013 829 l 410 228 q 343 165 377 194 q 276 110 309 135 q 318 114 296 113 q 367 115 340 115 l 609 115 q 643 106 630 116 q 657 74 657 97 l 658 -1 l 88 0 z "},"↔":{"ha":1389,"x_min":70,"x_max":1319,"o":"m 1319 447 l 917 45 l 865 99 q 852 131 849 115 q 870 163 856 147 l 1040 331 q 1075 364 1058 349 q 1107 391 1092 379 q 1021 383 1066 386 q 931 380 976 380 l 296 380 q 349 332 319 361 l 520 161 q 538 130 535 147 q 525 98 541 114 l 474 44 l 70 448 l 472 849 l 524 797 q 536 764 540 780 q 519 733 533 747 l 349 563 q 322 537 335 549 q 297 515 309 525 l 931 515 q 1022 512 976 515 q 1108 503 1067 509 q 1075 530 1092 515 q 1040 563 1058 545 l 869 733 q 851 765 854 748 q 864 797 848 781 l 915 851 l 1319 447 z "},"↕":{"ha":1042,"x_min":118,"x_max":924,"o":"m 521 -240 l 119 162 l 172 214 q 205 227 188 230 q 236 209 221 224 l 406 40 q 431 13 419 26 q 453 -12 443 -1 l 453 693 q 457 784 453 740 q 465 870 460 829 q 439 838 453 855 q 406 803 424 822 l 235 633 q 203 615 220 618 q 171 628 187 612 l 118 680 l 522 1083 l 923 681 l 870 629 q 838 616 854 613 q 806 634 821 619 l 637 803 q 576 870 600 839 q 585 784 582 829 q 588 693 588 739 l 588 -13 q 610 12 598 -1 q 636 40 622 25 l 808 210 q 839 228 822 225 q 871 215 855 231 l 924 163 l 521 -240 z "},"Ơ":{"ha":1097,"x_min":62,"x_max":1155,"o":"m 485 120 q 629 152 564 120 q 740 241 694 183 q 812 382 787 299 q 838 565 838 464 q 819 695 838 637 q 767 794 801 753 q 684 858 733 835 q 574 880 635 880 q 431 848 496 880 q 320 758 366 817 q 248 618 274 700 q 222 435 222 535 q 240 305 222 363 q 292 206 258 247 q 374 142 326 165 q 485 120 423 120 m 1152 1099 q 1154 1079 1153 1092 q 1155 1058 1155 1066 q 1142 965 1155 1008 q 1103 887 1128 922 q 1039 828 1077 853 q 951 792 1001 804 q 986 688 974 744 q 999 569 999 632 q 981 410 999 485 q 929 270 963 334 q 847 154 895 206 q 740 66 799 102 q 613 9 681 29 q 467 -10 544 -10 q 298 23 374 -10 q 170 115 223 56 q 90 254 118 174 q 62 430 62 335 q 80 590 62 514 q 132 730 99 665 q 213 847 165 794 q 320 935 261 899 q 448 991 379 972 q 593 1011 517 1011 q 776 971 697 1011 q 910 860 856 931 q 978 893 953 869 q 1003 949 1003 917 q 1001 968 1003 960 q 994 984 998 976 q 988 1001 991 992 q 985 1022 985 1010 q 1074 1099 985 1099 l 1152 1099 z "},"Ư":{"ha":1113,"x_min":87,"x_max":1191,"o":"m 1189 1099 q 1191 1079 1190 1092 q 1191 1058 1191 1066 q 1172 948 1191 999 q 1116 861 1153 898 q 1025 804 1079 824 q 899 783 970 783 l 852 396 q 806 234 841 308 q 715 105 770 159 q 585 19 659 50 q 424 -12 512 -12 q 271 19 337 -12 q 163 105 205 50 q 104 234 121 159 q 98 396 87 308 l 171 1000 l 327 1000 l 253 396 q 255 286 246 336 q 288 201 264 237 q 350 145 312 165 q 441 126 389 126 q 536 145 493 126 q 613 201 580 165 q 667 286 646 237 q 695 396 688 336 l 769 1000 l 926 1000 l 908 857 q 1004 884 969 858 q 1040 949 1040 910 q 1037 968 1040 960 q 1031 984 1034 976 q 1025 1001 1028 992 q 1022 1022 1022 1010 q 1044 1080 1022 1060 q 1111 1099 1065 1099 l 1189 1099 z "},"ơ":{"ha":791,"x_min":35,"x_max":847,"o":"m 317 106 q 402 132 364 106 q 467 202 440 158 q 508 303 493 246 q 522 423 522 360 q 489 559 522 515 q 390 603 455 603 q 305 578 342 603 q 240 509 267 552 q 199 408 214 465 q 185 287 185 350 q 317 106 185 106 m 844 816 q 846 797 846 808 q 847 778 847 785 q 835 691 847 731 q 799 619 823 651 q 740 566 775 588 q 656 533 704 544 q 668 482 664 509 q 672 424 672 454 q 658 308 672 364 q 622 205 645 253 q 564 117 598 156 q 490 49 531 77 q 402 5 449 21 q 304 -10 355 -10 q 197 9 246 -10 q 111 67 147 29 q 56 160 76 105 q 35 285 35 215 q 64 456 35 376 q 143 593 93 535 q 259 686 192 652 q 403 719 326 719 q 536 688 478 719 q 631 594 595 656 q 689 627 668 604 q 710 679 710 651 q 707 695 710 688 q 701 710 704 703 q 694 727 697 718 q 691 748 691 736 q 711 798 691 781 q 773 816 731 816 l 844 816 z "},"ư":{"ha":856,"x_min":51,"x_max":917,"o":"m 915 816 q 916 797 916 808 q 917 778 917 785 q 901 681 917 725 q 855 603 885 636 q 778 549 824 569 q 670 526 731 529 l 607 0 l 533 0 q 478 53 478 0 l 485 155 q 364 31 431 72 q 226 -10 297 -10 q 147 7 182 -10 q 90 59 113 25 q 60 144 68 94 q 59 258 51 194 l 113 708 l 261 708 l 208 258 q 216 148 198 183 q 283 113 235 113 q 343 130 312 113 q 403 176 374 146 q 458 248 433 206 q 500 342 483 290 l 544 708 l 692 708 l 678 591 q 754 622 726 597 q 781 679 781 647 q 778 695 781 688 q 771 710 775 703 q 764 727 767 718 q 761 748 761 736 q 781 798 761 781 q 843 816 801 816 l 915 816 z "},"₫":{"ha":808,"x_min":2,"x_max":804,"o":"m 13 -82 l 663 -82 l 651 -173 l 2 -173 l 13 -82 m 526 533 q 468 574 501 562 q 402 586 435 586 q 311 559 352 586 q 242 486 271 531 q 198 384 213 441 q 182 267 182 326 q 209 149 182 188 q 285 109 236 109 q 347 129 315 109 q 408 185 379 149 q 463 269 438 220 q 506 374 488 317 l 526 533 m 794 790 l 704 790 l 606 0 l 528 0 q 489 15 499 0 q 479 51 479 29 l 488 172 q 432 97 462 130 q 369 39 402 63 q 301 2 336 15 q 228 -10 265 -10 q 86 55 138 -10 q 35 251 35 121 q 47 367 35 310 q 81 473 59 423 q 135 565 103 523 q 205 637 167 607 q 287 684 243 667 q 379 701 331 701 q 469 683 429 701 q 538 633 509 665 l 558 790 l 463 790 q 422 803 432 790 q 415 842 411 815 l 422 881 l 569 881 l 588 1028 l 733 1028 l 715 881 l 804 881 l 794 790 z "},"○":{"ha":921,"x_min":83,"x_max":844,"o":"m 83 451 q 113 599 83 530 q 195 720 143 669 q 316 802 247 772 q 464 832 385 832 q 612 802 542 832 q 733 720 681 772 q 815 599 785 669 q 844 451 844 530 q 815 303 844 373 q 733 182 785 234 q 612 101 681 131 q 464 71 542 71 q 316 101 385 71 q 195 182 247 131 q 113 303 143 234 q 83 451 83 373 m 215 451 q 235 355 215 400 q 288 275 254 309 q 367 222 322 242 q 464 203 412 203 q 561 222 516 203 q 640 275 606 242 q 694 355 674 309 q 713 451 713 400 q 694 548 713 503 q 640 627 674 594 q 561 681 606 661 q 464 700 516 700 q 367 681 412 700 q 288 627 322 661 q 235 549 254 594 q 215 451 215 503 z "},"◌":{"ha":921,"x_min":85,"x_max":844,"o":"m 419 785 q 433 817 419 803 q 465 830 446 830 q 496 817 483 830 q 509 785 509 803 q 496 753 509 767 q 465 740 483 740 q 433 753 446 740 q 419 785 419 767 m 547 760 q 560 792 547 778 q 591 805 573 805 q 623 792 610 805 q 636 760 636 778 q 623 728 636 742 q 591 715 610 715 q 560 728 573 715 q 547 760 547 742 m 655 689 q 668 720 655 707 q 700 733 681 733 q 731 720 718 733 q 744 689 744 707 q 731 657 744 670 q 700 644 718 644 q 668 657 681 644 q 655 689 655 670 m 726 581 q 739 612 726 599 q 770 625 752 625 q 802 612 788 625 q 815 581 815 599 q 802 549 815 563 q 770 535 788 535 q 739 549 752 535 q 726 581 726 563 m 755 451 q 768 483 755 469 q 799 496 781 496 q 831 483 817 496 q 844 451 844 469 q 831 419 844 433 q 799 406 817 406 q 768 419 781 406 q 755 451 755 433 m 290 760 q 303 792 290 778 q 335 805 317 805 q 367 792 353 805 q 380 760 380 778 q 367 728 380 742 q 335 715 353 715 q 303 728 317 715 q 290 760 290 742 m 182 689 q 195 720 182 707 q 227 733 208 733 q 258 720 245 733 q 272 689 272 707 q 258 657 272 670 q 227 644 245 644 q 195 657 208 644 q 182 689 182 670 m 111 581 q 124 612 111 599 q 156 625 138 625 q 187 612 174 625 q 201 581 201 599 q 187 549 201 563 q 156 535 174 535 q 124 549 138 535 q 111 581 111 563 m 85 451 q 99 483 85 469 q 131 496 112 496 q 162 483 149 496 q 175 451 175 469 q 162 419 175 433 q 131 406 149 406 q 99 419 112 406 q 85 451 85 433 m 726 324 q 739 356 726 342 q 770 369 752 369 q 802 356 788 369 q 815 324 815 342 q 802 293 815 306 q 770 279 788 279 q 739 293 752 279 q 726 324 726 306 m 111 324 q 124 356 111 342 q 156 369 138 369 q 187 356 174 369 q 201 324 201 342 q 187 293 201 306 q 156 279 174 279 q 124 293 138 279 q 111 324 111 306 m 655 216 q 668 247 655 234 q 700 260 681 260 q 731 247 718 260 q 744 216 744 234 q 731 184 744 197 q 700 171 718 171 q 668 184 681 171 q 655 216 655 197 m 182 216 q 195 247 182 234 q 227 260 208 260 q 258 247 245 260 q 272 216 272 234 q 258 184 272 197 q 227 171 245 171 q 195 184 208 171 q 182 216 182 197 m 547 145 q 560 177 547 164 q 591 190 573 190 q 623 177 610 190 q 636 145 636 164 q 623 114 636 127 q 591 100 610 100 q 560 114 573 100 q 547 145 547 127 m 290 145 q 303 177 290 164 q 335 190 317 190 q 367 177 353 190 q 380 145 380 164 q 367 114 380 127 q 335 100 353 100 q 303 114 317 100 q 290 145 290 127 m 419 116 q 433 148 419 135 q 465 161 446 161 q 496 148 483 161 q 509 116 509 135 q 496 84 509 98 q 465 71 483 71 q 433 84 446 71 q 419 116 419 98 z "},"͏":{"ha":0,"x_min":0,"x_max":0,"o":""},"᷂":{"ha":0,"x_min":-122,"x_max":70,"o":"m -122 -62 q -112 -52 -122 -58 q -88 -41 -102 -46 q -60 -33 -74 -36 q -35 -29 -45 -29 q -21 -32 -27 -29 q -9 -39 -15 -35 q 6 -48 -2 -43 q 26 -58 14 -53 q 58 -76 45 -65 q 70 -106 70 -88 q 55 -141 70 -128 q 20 -161 39 -153 q -14 -174 1 -169 q -30 -183 -30 -178 q -20 -190 -30 -187 q 1 -199 -10 -193 q 23 -214 13 -204 q 33 -240 33 -224 q 20 -273 33 -262 q -7 -291 8 -284 q -34 -303 -22 -297 q -47 -319 -47 -308 q -41 -330 -47 -325 q -26 -339 -35 -335 q -25 -341 -25 -339 q -26 -346 -25 -344 q -29 -349 -27 -349 q -68 -334 -53 -345 q -83 -305 -83 -322 q -72 -278 -83 -288 q -48 -263 -61 -269 q -25 -254 -35 -257 q -14 -247 -14 -251 q -26 -239 -14 -242 q -53 -230 -38 -235 q -80 -214 -67 -224 q -92 -186 -92 -204 q -85 -162 -92 -172 q -67 -144 -78 -151 q -44 -132 -57 -137 q -22 -122 -32 -126 q -4 -115 -11 -118 q 3 -108 3 -112 q -13 -98 3 -98 q -25 -100 -21 -98 q -32 -103 -28 -101 q -40 -106 -35 -105 q -51 -107 -44 -108 q -73 -102 -61 -106 q -96 -91 -85 -97 q -114 -76 -107 -84 q -122 -62 -122 -69 z "},"Ɓ":{"ha":1047,"x_min":66,"x_max":1000,"o":"m 616 124 q 706 138 667 124 q 769 177 744 151 q 806 238 794 202 q 818 317 818 273 q 778 413 818 377 q 655 448 739 448 l 474 448 l 434 124 l 616 124 m 526 876 l 488 558 l 633 558 q 789 607 736 558 q 841 747 841 656 q 801 845 841 814 q 680 876 762 876 l 526 876 m 695 1000 q 833 984 776 1000 q 928 939 891 968 q 983 867 965 909 q 1000 774 1000 825 q 988 691 1000 731 q 951 618 976 651 q 889 558 926 584 q 799 515 851 531 q 929 445 886 494 q 972 319 972 395 q 947 191 972 249 q 874 90 922 133 q 758 24 826 48 q 603 0 690 0 l 263 0 l 371 884 l 359 884 q 283 874 313 884 q 234 844 252 863 q 208 798 215 825 q 200 738 200 771 q 201 715 200 726 q 203 697 201 703 q 199 668 205 682 q 170 649 193 654 l 78 628 q 69 676 72 651 q 66 723 66 701 q 87 838 66 786 q 147 925 108 889 q 244 981 187 961 q 373 1000 301 1000 l 695 1000 z "},"Ƅ":{"ha":897,"x_min":68,"x_max":853,"o":"m 486 124 q 558 134 526 124 q 613 162 589 144 q 653 203 636 180 q 680 251 669 226 q 694 304 690 277 q 699 355 699 331 q 690 415 699 386 q 661 467 681 444 q 610 504 641 490 q 534 517 578 517 l 347 517 l 304 161 l 299 124 l 486 124 m 542 642 q 681 619 622 642 q 778 558 740 597 q 835 469 816 520 q 853 363 853 419 q 828 220 853 287 q 754 105 803 154 q 635 28 706 56 q 474 0 565 0 l 128 0 l 206 638 l 68 742 l 292 1000 l 406 1000 l 363 642 l 542 642 z "},"Ɔ":{"ha":863,"x_min":-6,"x_max":819,"o":"m 88 219 q 100 216 94 219 q 112 208 106 213 q 151 169 131 185 q 195 143 172 153 q 249 128 219 133 q 315 124 278 124 q 446 153 384 124 q 556 240 508 183 q 631 378 603 297 q 659 565 659 460 q 641 694 659 637 q 590 792 623 751 q 511 853 558 832 q 407 875 464 875 q 340 869 369 875 q 287 853 310 863 q 246 833 264 844 q 215 813 228 822 q 190 797 201 803 q 170 791 179 791 q 151 797 158 791 q 140 810 144 802 l 98 883 q 241 976 160 940 q 423 1011 323 1011 q 587 978 514 1011 q 712 887 660 946 q 791 748 763 828 q 819 572 819 667 q 781 338 819 445 q 676 153 744 231 q 515 32 608 76 q 309 -11 422 -11 q 118 28 194 -11 q -6 141 41 68 l 63 209 q 88 219 76 219 z "},"Ƈ":{"ha":872,"x_min":62,"x_max":1128,"o":"m 799 141 q 647 29 735 69 q 447 -11 560 -11 q 284 22 356 -11 q 163 112 213 54 q 88 249 114 169 q 62 424 62 329 q 80 588 62 510 q 133 730 99 665 q 214 847 167 794 q 320 935 262 899 q 446 991 378 972 q 586 1011 513 1010 q 684 1000 637 1012 q 772 967 731 988 q 787 1062 775 1016 q 825 1143 799 1108 q 894 1200 851 1178 q 999 1222 936 1222 q 1036 1220 1019 1222 q 1069 1215 1053 1218 q 1099 1207 1084 1211 q 1128 1196 1113 1202 l 1098 1114 q 1088 1097 1094 1103 q 1076 1089 1083 1091 q 1062 1086 1069 1086 q 1048 1088 1055 1087 q 999 1096 1026 1096 q 928 1059 953 1096 q 895 956 903 1023 l 886 876 l 833 810 q 818 797 826 803 q 797 792 810 792 q 779 798 788 792 q 759 814 770 804 q 733 834 748 823 q 697 854 718 844 q 648 869 676 863 q 582 876 620 876 q 440 845 506 876 q 325 757 374 814 q 249 619 277 700 q 222 437 222 538 q 240 306 222 364 q 292 207 259 247 q 372 145 326 167 q 473 124 418 124 q 550 131 517 124 q 609 148 584 138 q 652 172 634 159 q 683 195 669 184 q 706 213 696 206 q 724 219 715 219 q 737 216 732 219 q 744 210 742 213 l 799 141 z "},"Ɗ":{"ha":1185,"x_min":66,"x_max":1140,"o":"m 627 126 q 771 157 706 126 q 883 244 836 187 q 955 382 929 301 q 980 565 980 463 q 962 693 980 636 q 911 790 944 750 q 829 851 878 830 q 719 873 781 873 l 527 873 l 435 126 l 627 126 m 734 1000 q 903 968 828 1000 q 1031 879 978 936 q 1112 743 1084 822 q 1140 569 1140 664 q 1122 410 1140 485 q 1071 272 1104 335 q 990 159 1038 209 q 884 73 943 108 q 757 19 826 38 q 612 0 688 0 l 263 0 l 371 884 l 359 884 q 283 874 313 884 q 234 844 252 863 q 208 798 215 825 q 200 738 200 771 q 201 715 200 726 q 203 697 201 703 q 199 668 205 682 q 170 649 193 654 l 78 628 q 69 676 72 651 q 66 723 66 701 q 87 838 66 786 q 147 925 108 889 q 244 981 187 961 q 373 1000 301 1000 l 734 1000 z "},"Ƌ":{"ha":809,"x_min":31,"x_max":768,"o":"m 504 124 l 544 453 l 385 453 q 233 405 281 453 q 185 262 185 357 q 193 207 185 232 q 222 163 202 181 q 271 134 241 144 q 345 124 301 124 l 504 124 m 768 1000 l 645 0 l 330 0 q 202 19 258 0 q 108 73 147 38 q 51 156 70 108 q 31 265 31 205 q 52 389 31 331 q 118 488 74 446 q 233 553 163 529 q 400 576 303 576 l 560 576 l 597 876 l 138 876 l 152 1000 l 768 1000 z "},"Ǝ":{"ha":743,"x_min":2,"x_max":701,"o":"m 578 0 l 2 0 l 17 127 l 436 127 l 475 443 l 142 443 l 157 565 l 490 565 l 528 873 l 109 873 l 124 1000 l 701 1000 l 578 0 z "},"Ə":{"ha":941,"x_min":49,"x_max":896,"o":"m 202 406 q 205 290 194 342 q 242 200 215 238 q 311 142 269 163 q 409 121 353 121 q 520 141 470 121 q 610 198 571 161 q 677 288 649 235 q 719 406 704 340 l 202 406 m 117 856 q 207 929 160 899 q 305 978 255 959 q 405 1005 354 997 q 506 1014 456 1014 q 663 984 591 1014 q 786 898 734 954 q 867 758 838 841 q 896 569 896 675 q 860 339 896 445 q 758 156 824 233 q 599 34 692 78 q 394 -10 507 -10 q 252 15 316 -10 q 144 90 189 41 q 74 209 99 138 q 49 368 49 279 q 53 446 49 417 q 66 490 58 475 q 86 510 74 506 q 113 515 98 515 l 733 515 q 734 539 734 526 q 735 563 735 551 q 667 796 735 716 q 474 876 599 876 q 372 861 416 876 q 295 827 328 846 q 237 794 262 809 q 192 779 212 779 q 158 797 169 779 l 117 856 z "},"Ɛ":{"ha":769,"x_min":44,"x_max":776,"o":"m 704 146 q 624 73 667 103 q 534 25 581 44 q 439 -2 488 6 q 339 -10 390 -10 q 228 7 281 -10 q 134 59 175 25 q 68 143 93 93 q 44 258 44 193 q 59 351 44 307 q 102 432 74 395 q 167 497 129 469 q 251 544 205 526 q 189 576 214 557 q 148 618 164 595 q 125 667 132 641 q 118 719 118 693 q 144 830 118 777 q 220 923 171 883 q 338 987 269 963 q 494 1011 408 1011 q 586 1003 544 1011 q 663 981 628 995 q 725 945 697 966 q 776 900 753 925 l 734 839 q 711 817 722 821 q 692 813 700 813 q 664 823 679 813 q 625 847 649 834 q 565 870 601 860 q 474 881 529 881 q 389 868 425 881 q 329 832 353 854 q 294 780 306 809 q 283 717 283 750 q 328 625 283 657 q 453 593 373 593 l 605 593 l 591 480 l 426 480 q 329 463 370 480 q 261 418 288 446 q 220 356 233 391 q 206 285 206 321 q 218 222 206 251 q 255 170 231 192 q 314 135 278 148 q 396 122 349 122 q 476 133 442 122 q 535 158 510 143 q 577 187 560 172 q 607 212 594 202 q 620 220 613 217 q 635 224 627 224 q 656 213 647 224 l 704 146 z "},"Ƒ":{"ha":737,"x_min":-172,"x_max":759,"o":"m 324 873 l 284 547 l 640 547 l 624 420 l 269 420 l 224 58 l 219 14 q 193 -93 212 -44 q 142 -177 174 -142 q 66 -232 110 -212 q -35 -252 22 -252 q -77 -250 -58 -252 q -112 -245 -96 -249 q -142 -237 -128 -242 q -172 -226 -156 -232 l -141 -144 q -118 -118 -133 -122 q -90 -118 -104 -115 q -42 -126 -69 -126 q 29 -90 4 -126 q 62 14 53 -54 l 69 69 l 183 1000 l 759 1000 l 744 873 l 324 873 z "},"Ɠ":{"ha":947,"x_min":62,"x_max":1165,"o":"m 923 883 l 869 811 q 840 790 857 794 q 804 799 822 786 q 767 823 786 810 q 722 848 747 837 q 664 867 697 860 q 585 875 631 875 q 438 844 505 875 q 324 756 372 813 q 249 618 276 699 q 222 437 222 537 q 242 302 222 362 q 297 201 261 242 q 382 138 332 160 q 492 115 431 115 q 552 119 524 115 q 604 128 579 122 q 651 144 628 135 q 696 165 674 153 l 722 371 l 597 371 q 574 379 582 371 q 568 401 567 388 l 579 490 l 878 490 l 830 97 q 666 16 753 42 q 465 -11 579 -11 q 300 22 374 -11 q 173 114 226 55 q 91 253 119 172 q 62 431 62 334 q 102 665 62 558 q 214 849 142 772 q 386 968 285 926 q 607 1011 486 1011 q 716 1001 667 1011 q 805 971 765 990 q 821 1064 808 1019 q 862 1144 835 1110 q 931 1200 889 1179 q 1035 1222 974 1222 q 1074 1220 1056 1222 q 1106 1215 1091 1218 q 1136 1207 1122 1211 q 1165 1196 1150 1202 l 1134 1114 q 1124 1097 1130 1103 q 1112 1089 1119 1091 q 1098 1086 1106 1086 q 1084 1088 1091 1087 q 1035 1096 1063 1096 q 965 1059 990 1096 q 932 956 940 1023 l 923 883 z "},"Ɣ":{"ha":888,"x_min":15,"x_max":975,"o":"m 544 119 q 533 130 538 124 q 524 142 528 135 l 425 328 q 408 299 417 313 q 388 272 399 285 l 292 136 q 270 119 284 127 l 544 119 m 533 415 l 763 0 l 15 0 l 352 424 l 49 1000 l 200 1000 q 223 994 216 1000 q 238 976 231 989 l 465 525 l 788 976 q 825 999 805 999 l 975 999 l 533 415 z "},"Ɩ":{"ha":429,"x_min":76,"x_max":372,"o":"m 178 1000 l 336 1000 l 240 219 q 249 137 233 163 q 311 111 265 111 l 372 111 l 365 59 q 352 27 363 40 q 323 7 340 15 q 282 -5 305 -1 q 235 -8 260 -8 q 159 8 191 -8 q 108 53 128 24 q 82 123 89 83 q 81 210 76 163 l 178 1000 z "},"Ƙ":{"ha":905,"x_min":60,"x_max":963,"o":"m 285 570 l 328 570 q 370 577 352 570 q 404 606 388 583 l 592 874 q 647 937 618 911 q 707 978 675 963 q 774 1002 738 994 q 849 1009 809 1009 q 917 1003 891 1009 q 963 987 943 997 l 939 908 q 916 882 930 885 q 890 881 903 878 q 868 885 881 883 q 842 887 855 887 q 778 870 808 887 q 728 824 749 853 l 561 588 q 527 551 545 566 q 489 528 509 537 q 525 506 510 520 q 555 469 541 492 l 827 0 l 689 0 q 648 8 660 0 q 627 32 635 17 l 400 415 q 375 441 390 433 q 329 450 360 450 l 271 450 l 216 0 l 60 0 l 183 1000 l 338 1000 l 285 570 z "},"Ɯ":{"ha":1399,"x_min":88,"x_max":1358,"o":"m 1358 1000 l 1235 2 l 1154 2 q 1109 42 1114 2 l 1116 194 q 994 39 1063 88 q 850 -10 926 -10 q 772 6 806 -10 q 712 51 738 22 q 670 119 687 79 q 644 205 653 158 q 583 111 617 151 q 511 44 549 71 q 431 3 472 17 q 348 -10 390 -10 q 220 16 272 -10 q 136 95 167 43 q 97 224 106 147 q 99 400 88 300 l 173 1000 l 330 1000 l 256 400 q 254 267 248 322 q 278 177 260 213 q 326 126 297 142 q 394 110 356 110 q 472 134 435 110 q 538 201 508 158 q 588 303 567 244 q 616 435 608 363 l 686 1000 l 844 1000 l 774 435 q 768 291 766 352 q 784 190 770 231 q 826 130 799 150 q 897 110 853 110 q 1024 190 963 110 q 1131 435 1085 269 l 1201 1000 l 1358 1000 z "}}}
